<svg width="200" height="200" viewBox="0 0 200 200" fill="none" xmlns="http://www.w3.org/2000/svg">
<rect x="3.125" y="3.125" width="193.75" height="193.75" rx="96.875" fill="url(#paint0_linear)" stroke="url(#paint1_linear)" stroke-width="6.25"/>
<path d="M118.655 61.8649H122.212V62.4051L119.779 67.3295L118.907 66.8999L120.943 62.8037H118.655V61.8649ZM122.792 61.8649H126.349V62.4051L123.916 67.3649L123.044 66.9353L125.04 62.8037H122.788V61.8649H122.792ZM128.641 61.7232L129.513 62.1527L128.57 63.9861C129.044 63.9861 129.406 64.1676 129.734 64.4909C130.061 64.8142 130.207 65.2083 130.207 65.7131C130.207 66.1825 130.026 66.5766 129.698 66.8999C129.371 67.2232 128.973 67.4047 128.499 67.4047C128.026 67.4047 127.592 67.2232 127.265 66.8999C126.938 66.5766 126.792 66.1825 126.792 65.7485C126.792 65.567 126.827 65.4253 126.862 65.2437C126.898 65.0621 127.044 64.8142 127.225 64.451L128.641 61.7232ZM128.53 64.9204C128.349 64.9204 128.168 64.9913 128.057 65.1374C127.911 65.2791 127.876 65.4607 127.876 65.6423C127.876 65.8592 127.946 66.0364 128.092 66.1471C128.238 66.2932 128.384 66.3641 128.566 66.3641C128.747 66.3641 128.929 66.2932 129.075 66.1471C129.221 66.0054 129.291 65.8238 129.291 65.6068C129.291 65.3898 129.221 65.2127 129.075 65.102C128.893 64.9913 128.712 64.9204 128.53 64.9204ZM133.831 64.3093C134.087 64.451 134.264 64.668 134.41 64.9204C134.556 65.1729 134.627 65.4253 134.627 65.7131C134.627 66.0364 134.556 66.3242 134.41 66.5766C134.264 66.8291 134.048 67.0416 133.791 67.1523C133.539 67.2985 133.211 67.3693 132.773 67.3693C132.34 67.3693 131.977 67.2985 131.72 67.1877C131.468 67.0416 131.247 66.8645 131.101 66.6121C130.955 66.3597 130.884 66.0718 130.884 65.7485C130.884 65.4607 130.955 65.2083 131.066 64.9957C131.176 64.7787 131.393 64.5662 131.61 64.3846C131.464 64.2075 131.318 64.0613 131.247 63.8798C131.176 63.6982 131.136 63.5211 131.136 63.3041C131.136 63.0163 131.207 62.7638 131.353 62.5513C131.499 62.3343 131.681 62.1572 131.933 62.011C132.079 61.794 132.366 61.7232 132.694 61.7232C133.021 61.7232 133.273 61.794 133.53 61.9047C133.782 62.0464 133.964 62.228 134.11 62.445C134.256 62.6974 134.326 62.9498 134.326 63.2377C134.326 63.4192 134.291 63.5964 134.216 63.7779C134.158 63.9152 134.012 64.0968 133.831 64.3093ZM132.672 62.693C132.49 62.693 132.344 62.7638 132.273 62.8745C132.163 62.9808 132.092 63.127 132.092 63.3041C132.092 63.4857 132.163 63.6274 132.273 63.7336C132.384 63.8399 132.53 63.9152 132.707 63.9152C132.888 63.9152 133.034 63.8444 133.141 63.7336C133.251 63.6274 133.322 63.4812 133.322 63.3041C133.322 63.1225 133.251 62.9808 133.141 62.8745C132.999 62.7638 132.853 62.693 132.672 62.693ZM132.707 64.8496C132.455 64.8496 132.234 64.9204 132.092 65.0666C131.911 65.2127 131.835 65.3898 131.835 65.6068C131.835 65.8238 131.906 66.001 132.092 66.1471C132.238 66.2932 132.455 66.3641 132.707 66.3641C132.964 66.3641 133.18 66.2932 133.326 66.1471C133.472 66.0054 133.543 65.8238 133.543 65.6068C133.543 65.3898 133.472 65.2127 133.291 65.0666C133.18 64.9204 132.959 64.8496 132.707 64.8496ZM136.919 61.7232L137.791 62.1527L136.848 63.9861C137.322 63.9861 137.684 64.1676 138.012 64.4909C138.339 64.8142 138.485 65.2083 138.485 65.7131C138.485 66.1825 138.304 66.5766 137.976 66.8999C137.649 67.2232 137.251 67.4047 136.777 67.4047C136.304 67.4047 135.87 67.2232 135.543 66.8999C135.216 66.5766 135.07 66.1825 135.07 65.7485C135.07 65.567 135.105 65.4253 135.14 65.2437C135.176 65.0621 135.322 64.8142 135.503 64.451L136.919 61.7232ZM136.773 64.9204C136.592 64.9204 136.41 64.9913 136.3 65.1374C136.154 65.2791 136.118 65.4607 136.118 65.6423C136.118 65.8592 136.189 66.0364 136.335 66.1471C136.481 66.2932 136.627 66.3641 136.808 66.3641C136.99 66.3641 137.171 66.2932 137.317 66.1471C137.463 66.0054 137.534 65.8238 137.534 65.6068C137.534 65.3898 137.463 65.2127 137.317 65.102C137.171 64.9913 136.99 64.9204 136.773 64.9204ZM140.914 67.3295L140.043 66.8999L140.985 65.0666C140.512 65.102 140.113 64.9249 139.786 64.5972C139.459 64.2739 139.313 63.8798 139.313 63.3749C139.313 62.9055 139.494 62.5114 139.821 62.1882C140.149 61.9003 140.547 61.7188 141.02 61.7188C141.494 61.7188 141.927 61.9003 142.255 62.2236C142.582 62.5468 142.728 62.941 142.728 63.3749C142.728 63.5565 142.693 63.6982 142.657 63.8798C142.622 64.0613 142.476 64.3093 142.295 64.6326L140.914 67.3295ZM141.02 64.1322C141.202 64.1322 141.383 64.0613 141.494 63.9152C141.64 63.7735 141.675 63.5919 141.675 63.4104C141.675 63.1934 141.604 63.0163 141.458 62.8701C141.312 62.7284 141.166 62.6531 140.985 62.6531C140.804 62.6531 140.622 62.724 140.476 62.8701C140.33 63.0163 140.259 63.1934 140.259 63.4104C140.259 63.6274 140.33 63.8045 140.476 63.9152C140.658 64.0569 140.839 64.1322 141.02 64.1322ZM143.454 61.8649H147.011V62.4051L144.578 67.3649L143.706 66.9353L145.701 62.8037H143.449V61.8649H143.454ZM149.626 61.7232H150.643V65.1729H151.117V66.1072H150.643V67.1877H149.626V66.1072H147.268V65.1729L149.626 61.7232ZM149.666 65.1729V63.3749L148.431 65.1729H149.666ZM153.44 61.7232L154.311 62.1527L153.369 63.9861C153.842 63.9861 154.205 64.1676 154.532 64.4909C154.86 64.8142 155.006 65.2083 155.006 65.7131C155.006 66.1825 154.824 66.5766 154.497 66.8999C154.17 67.2232 153.771 67.4047 153.298 67.4047C152.825 67.4047 152.391 67.2232 152.064 66.8999C151.736 66.5766 151.59 66.1825 151.59 65.7485C151.59 65.567 151.626 65.4253 151.661 65.2437C151.696 65.0621 151.842 64.8142 152.024 64.451L153.44 61.7232ZM153.333 64.9204C153.152 64.9204 152.971 64.9913 152.86 65.1374C152.714 65.2791 152.679 65.4607 152.679 65.6423C152.679 65.8592 152.749 66.0364 152.895 66.1471C153.041 66.2932 153.187 66.3641 153.369 66.3641C153.55 66.3641 153.732 66.2932 153.878 66.1471C154.024 66.0054 154.094 65.8238 154.094 65.6068C154.094 65.3898 154.024 65.2127 153.878 65.102C153.696 64.9913 153.515 64.9204 153.333 64.9204ZM156.634 61.8649H159.178V62.7993H157.399L157.218 63.7691C157.289 63.7691 157.329 63.7336 157.399 63.7336H157.581C158.054 63.7336 158.488 63.9152 158.815 64.2385C159.143 64.5617 159.289 64.9913 159.289 65.4961C159.289 66.0364 159.107 66.4659 158.744 66.8246C158.382 67.1833 157.944 67.3649 157.435 67.3649C156.961 67.3649 156.563 67.2232 156.236 66.9708C155.908 66.7183 155.692 66.3597 155.581 65.8902H156.669C156.74 66.0674 156.851 66.1781 156.997 66.2844C157.143 66.3552 157.289 66.4305 157.43 66.4305C157.647 66.4305 157.864 66.3597 158.01 66.1781C158.156 66.0364 158.262 65.8194 158.262 65.567C158.262 65.3146 158.191 65.1374 158.045 64.9559C157.899 64.8142 157.718 64.7035 157.501 64.7035C157.39 64.7035 157.284 64.7389 157.174 64.7743C157.063 64.8452 156.957 64.916 156.846 65.0267L156.01 64.8452L156.634 61.8649ZM152.568 70.6374H151.55C151.586 70.0617 151.767 69.5968 152.095 69.2691C152.422 68.9458 152.856 68.7642 153.404 68.7642C153.732 68.7642 154.024 68.8351 154.276 68.9812C154.528 69.1229 154.709 69.3045 154.895 69.5923C155.041 69.8448 155.112 70.1326 155.112 70.385C155.112 70.7083 155.001 71.0315 154.82 71.4257C154.639 71.7844 154.311 72.2183 153.802 72.7187L153.183 73.3653H155.108V74.2997H151.404V73.7948L153.077 72.1032C153.475 71.7091 153.767 71.3858 153.878 71.1334C154.024 70.881 154.094 70.664 154.094 70.4514C154.094 70.2344 154.024 70.0927 153.878 69.9466C153.732 69.8005 153.55 69.7296 153.333 69.7296C153.117 69.7296 152.935 69.8005 152.789 69.982C152.679 70.1326 152.568 70.3496 152.568 70.6374ZM157.47 68.7687C157.868 68.7687 158.196 68.8749 158.488 69.0565C158.78 69.2381 158.997 69.5259 159.143 69.92C159.289 70.3142 159.359 70.8544 159.359 71.5718C159.359 72.2892 159.289 72.8295 159.103 73.2236C158.957 73.6177 158.74 73.9055 158.448 74.0871C158.191 74.2687 157.828 74.3749 157.43 74.3749C157.032 74.3749 156.669 74.2687 156.413 74.0871C156.121 73.9055 155.904 73.6177 155.758 73.2236C155.612 72.8295 155.541 72.2892 155.541 71.6072C155.541 70.6374 155.687 69.9156 156.014 69.4861C156.417 69.0167 156.891 68.7687 157.47 68.7687ZM157.51 69.7385C157.329 69.7385 157.183 69.7739 157.037 69.92C156.891 70.0263 156.784 70.2079 156.709 70.4957C156.638 70.7481 156.599 71.1423 156.599 71.6825C156.599 72.3645 156.669 72.8339 156.851 73.0863C156.997 73.3387 157.214 73.4804 157.47 73.4804C157.722 73.4804 157.904 73.3741 158.05 73.1217C158.231 72.8339 158.302 72.3291 158.302 71.6471C158.302 70.9651 158.231 70.4603 158.05 70.2079C157.979 69.8802 157.762 69.7385 157.51 69.7385ZM159.979 68.9104H163.536V69.4506L161.103 74.4104L160.231 73.9808L162.266 69.8492H160.014V68.9148H159.979V68.9104ZM164.115 68.9104H167.673V69.4506L165.204 74.4104L164.332 73.9808L166.367 69.8492H164.115V68.9104ZM132.632 81.4559L131.76 81.0263L132.703 79.193C132.229 79.193 131.866 79.0114 131.539 78.6882C131.212 78.3649 131.066 77.9708 131.066 77.4659C131.066 76.9965 131.247 76.6024 131.574 76.2791C131.902 75.9559 132.3 75.7743 132.773 75.7743C133.247 75.7743 133.68 75.9559 134.008 76.2791C134.335 76.6024 134.481 76.9965 134.481 77.4305C134.481 77.6121 134.446 77.7538 134.41 77.9353C134.375 78.1169 134.229 78.3649 134.048 78.6882L132.632 81.4559ZM132.778 78.2232C132.959 78.2232 133.141 78.1523 133.251 78.0062C133.397 77.8645 133.433 77.6829 133.433 77.5014C133.433 77.2844 133.362 77.1072 133.216 76.9611C133.07 76.8194 132.924 76.7441 132.742 76.7441C132.561 76.7441 132.38 76.815 132.234 76.9611C132.088 77.1072 132.017 77.2844 132.017 77.5014C132.017 77.7183 132.088 77.8955 132.234 78.0062C132.415 78.1479 132.561 78.2232 132.778 78.2232ZM163.279 89.9406C163.677 89.9406 164.005 90.0468 164.297 90.2284C164.589 90.41 164.806 90.6978 164.952 91.0919C165.098 91.4861 165.168 92.0263 165.168 92.7437C165.168 93.4611 165.098 94.0014 164.916 94.3955C164.77 94.7896 164.554 95.0774 164.261 95.259C164.005 95.4406 163.642 95.5468 163.244 95.5468C162.846 95.5468 162.483 95.4406 162.226 95.259C161.934 95.0774 161.717 94.7896 161.571 94.3955C161.425 94.0014 161.355 93.4611 161.355 92.7791C161.355 91.8093 161.501 91.0875 161.828 90.658C162.191 90.1531 162.664 89.9406 163.279 89.9406ZM163.319 90.9104C163.138 90.9104 162.992 90.9458 162.846 91.0919C162.7 91.1982 162.594 91.3798 162.554 91.6676C162.483 91.92 162.443 92.3142 162.443 92.8544C162.443 93.5364 162.514 94.0058 162.7 94.2582C162.846 94.5106 163.062 94.6523 163.315 94.6523C163.571 94.6523 163.748 94.546 163.894 94.2936C164.076 94.0058 164.151 93.5009 164.151 92.819C164.151 92.137 164.08 91.6322 163.894 91.3798C163.753 91.0166 163.571 90.9104 163.319 90.9104ZM122.792 97.0923H126.349V97.6326L123.916 102.592L123.044 102.163L125.079 98.0311H122.827V97.0968H122.792V97.0923ZM145.051 102.592L144.179 102.163L145.122 100.329C144.648 100.329 144.286 100.148 143.958 99.8246C143.631 99.5013 143.485 99.1072 143.485 98.6024C143.485 98.133 143.666 97.7389 143.994 97.4156C144.321 97.0923 144.719 96.9108 145.193 96.9108C145.666 96.9108 146.1 97.0923 146.427 97.4156C146.754 97.7389 146.9 98.133 146.9 98.567C146.9 98.7485 146.865 98.8902 146.83 99.0718C146.794 99.2534 146.648 99.5013 146.467 99.8246L145.051 102.592ZM145.162 99.3906C145.343 99.3906 145.524 99.3198 145.635 99.1736C145.781 99.0319 145.816 98.8504 145.816 98.6688C145.816 98.4518 145.746 98.2747 145.6 98.1286C145.454 97.9869 145.308 97.9116 145.126 97.9116C144.945 97.9116 144.763 97.9824 144.617 98.1286C144.471 98.2747 144.401 98.4518 144.401 98.6688C144.401 98.8858 144.471 99.0629 144.617 99.1736C144.799 99.3198 144.98 99.3906 145.162 99.3906ZM160.775 97.0923H163.319V98.0267H161.541L161.324 98.9965C161.395 98.9965 161.434 98.9611 161.505 98.9611H161.687C162.16 98.9611 162.594 99.1427 162.921 99.4659C163.248 99.7892 163.394 100.219 163.394 100.724C163.394 101.264 163.213 101.693 162.85 102.052C162.487 102.411 162.049 102.592 161.545 102.592C161.072 102.592 160.673 102.451 160.346 102.198C160.019 101.946 159.802 101.587 159.691 101.122H160.78C160.85 101.304 160.961 101.41 161.107 101.516C161.253 101.587 161.399 101.658 161.541 101.658C161.757 101.658 161.974 101.587 162.12 101.406C162.266 101.264 162.372 101.047 162.372 100.794C162.372 100.542 162.302 100.365 162.156 100.183C162.009 100.042 161.828 99.9309 161.611 99.9309C161.501 99.9309 161.395 99.9663 161.284 100.002C161.173 100.073 161.067 100.148 160.956 100.254L160.12 100.073L160.775 97.0923ZM133.105 104.032H134.123V107.481H134.596V108.416H134.123V109.496H133.105V108.416H130.747V107.481L133.105 104.032ZM133.105 107.481V105.683L131.871 107.481H133.105ZM167.496 105.9H166.478C166.513 105.325 166.695 104.86 167.022 104.536C167.35 104.213 167.783 104.032 168.327 104.032C168.655 104.032 168.947 104.102 169.199 104.249C169.451 104.39 169.633 104.572 169.818 104.824C169.964 105.077 170.035 105.364 170.035 105.617C170.035 105.94 169.925 106.263 169.743 106.658C169.562 107.016 169.234 107.45 168.726 107.951L168.106 108.597H170.031V109.532H166.292V109.027L167.965 107.34C168.363 106.945 168.655 106.622 168.765 106.37C168.911 106.117 168.982 105.9 168.982 105.688C168.982 105.471 168.911 105.329 168.765 105.183C168.619 105.041 168.438 104.966 168.221 104.966C168.005 104.966 167.823 105.037 167.677 105.218C167.602 105.395 167.496 105.612 167.496 105.9ZM172.433 104.032C172.831 104.032 173.159 104.138 173.451 104.319C173.743 104.501 173.96 104.789 174.106 105.183C174.252 105.577 174.322 106.117 174.322 106.835C174.322 107.552 174.252 108.092 174.07 108.486C173.924 108.881 173.707 109.168 173.415 109.35C173.163 109.532 172.796 109.638 172.398 109.638C172 109.638 171.637 109.532 171.38 109.35C171.088 109.168 170.871 108.881 170.725 108.486C170.579 108.092 170.509 107.552 170.509 106.87C170.509 105.9 170.655 105.178 170.982 104.749C171.345 104.28 171.814 104.032 172.433 104.032ZM172.433 105.001C172.252 105.001 172.106 105.037 171.96 105.183C171.814 105.289 171.708 105.471 171.632 105.759C171.562 106.011 171.522 106.405 171.522 106.945C171.522 107.627 171.593 108.097 171.774 108.349C171.92 108.602 172.137 108.743 172.393 108.743C172.646 108.743 172.827 108.637 172.973 108.385C173.154 108.097 173.225 107.592 173.225 106.91C173.225 106.228 173.154 105.723 172.973 105.471C172.902 105.143 172.685 105.001 172.433 105.001ZM118.655 111.219H122.212V111.759L119.779 116.719L118.907 116.289L120.943 112.158H118.655V111.219ZM122.792 111.219H126.349V111.759L123.916 116.719L123.044 116.289L125.079 112.158H122.827V111.223H122.792V111.219ZM128.641 111.073L129.513 111.502L128.57 113.335C129.044 113.335 129.406 113.517 129.734 113.84C130.061 114.164 130.207 114.558 130.207 115.063C130.207 115.528 130.026 115.926 129.698 116.249C129.371 116.573 128.973 116.754 128.499 116.754C128.026 116.754 127.592 116.577 127.265 116.249C126.938 115.926 126.792 115.532 126.792 115.098C126.792 114.916 126.827 114.775 126.862 114.593C126.898 114.412 127.044 114.164 127.225 113.8L128.641 111.073ZM128.53 114.274C128.349 114.274 128.168 114.345 128.057 114.491C127.911 114.633 127.876 114.815 127.876 114.996C127.876 115.213 127.946 115.39 128.092 115.501C128.238 115.643 128.384 115.718 128.566 115.718C128.747 115.718 128.929 115.647 129.075 115.501C129.221 115.359 129.291 115.178 129.291 114.961C129.291 114.744 129.221 114.567 129.075 114.456C128.893 114.345 128.712 114.274 128.53 114.274ZM133.831 113.663C134.087 113.809 134.264 114.022 134.41 114.274C134.556 114.527 134.627 114.779 134.627 115.067C134.627 115.39 134.556 115.678 134.41 115.93C134.264 116.183 134.048 116.395 133.791 116.506C133.539 116.648 133.211 116.723 132.773 116.723C132.34 116.723 131.977 116.652 131.72 116.542C131.468 116.395 131.247 116.218 131.101 115.966C130.955 115.714 130.884 115.426 130.884 115.102C130.884 114.815 130.955 114.562 131.066 114.35C131.176 114.133 131.393 113.92 131.61 113.738C131.464 113.557 131.318 113.415 131.247 113.234C131.176 113.052 131.136 112.875 131.136 112.658C131.136 112.37 131.207 112.118 131.353 111.905C131.499 111.688 131.681 111.511 131.933 111.365C132.189 111.219 132.477 111.183 132.769 111.183C133.096 111.183 133.349 111.254 133.605 111.365C133.862 111.507 134.039 111.688 134.185 111.905C134.331 112.158 134.402 112.41 134.402 112.658C134.402 112.84 134.366 113.017 134.291 113.198C134.158 113.269 134.012 113.446 133.831 113.663ZM132.672 112.047C132.49 112.047 132.344 112.118 132.273 112.228C132.163 112.335 132.092 112.481 132.092 112.658C132.092 112.84 132.163 112.981 132.273 113.087C132.384 113.194 132.53 113.269 132.707 113.269C132.888 113.269 133.034 113.198 133.141 113.087C133.251 112.981 133.322 112.835 133.322 112.658C133.322 112.476 133.251 112.335 133.141 112.228C132.999 112.118 132.853 112.047 132.672 112.047ZM132.707 114.203C132.455 114.203 132.234 114.274 132.092 114.42C131.911 114.567 131.835 114.744 131.835 114.961C131.835 115.178 131.906 115.355 132.092 115.501C132.238 115.643 132.455 115.718 132.707 115.718C132.964 115.718 133.18 115.647 133.326 115.501C133.472 115.359 133.543 115.178 133.543 114.961C133.543 114.744 133.472 114.567 133.291 114.42C133.18 114.274 132.959 114.203 132.707 114.203ZM158.09 111.073L158.961 111.502L158.019 113.335C158.492 113.335 158.855 113.517 159.182 113.84C159.51 114.164 159.656 114.558 159.656 115.063C159.656 115.528 159.474 115.926 159.147 116.249C158.82 116.573 158.421 116.754 157.948 116.754C157.475 116.754 157.041 116.577 156.714 116.249C156.386 115.926 156.24 115.532 156.24 115.098C156.24 114.916 156.276 114.775 156.311 114.593C156.346 114.412 156.492 114.164 156.674 113.8L158.09 111.073ZM157.944 114.274C157.762 114.274 157.581 114.345 157.47 114.491C157.324 114.633 157.289 114.815 157.289 114.996C157.289 115.213 157.359 115.39 157.506 115.501C157.652 115.643 157.798 115.718 157.979 115.718C158.16 115.718 158.342 115.647 158.488 115.501C158.634 115.359 158.705 115.178 158.705 114.961C158.705 114.744 158.634 114.567 158.488 114.456C158.342 114.345 158.16 114.274 157.944 114.274ZM162.085 116.683L161.213 116.254L162.156 114.42C161.682 114.42 161.319 114.239 160.992 113.916C160.664 113.592 160.518 113.198 160.518 112.693C160.518 112.224 160.7 111.83 161.027 111.507C161.355 111.183 161.753 111.002 162.226 111.002C162.7 111.002 163.133 111.183 163.461 111.507C163.788 111.83 163.934 112.224 163.934 112.658C163.934 112.84 163.899 112.981 163.863 113.163C163.828 113.344 163.682 113.592 163.5 113.916L162.085 116.683ZM162.191 113.482C162.372 113.482 162.554 113.411 162.664 113.265C162.81 113.123 162.846 112.941 162.846 112.76C162.846 112.543 162.775 112.366 162.629 112.22C162.483 112.078 162.337 112.003 162.156 112.003C161.974 112.003 161.793 112.073 161.647 112.22C161.501 112.366 161.43 112.543 161.43 112.76C161.43 112.977 161.501 113.154 161.647 113.265C161.828 113.411 162.01 113.482 162.191 113.482ZM164.624 111.219H168.181V111.759L165.748 116.719L164.876 116.289L166.912 112.158H164.66V111.223H164.624V111.219ZM170.796 111.073H171.814V114.522H172.287V115.457H171.814V116.537H170.796V115.457H168.438V114.522L170.796 111.073ZM170.796 114.527V112.729L169.562 114.527H170.796ZM174.61 111.073L175.482 111.502L174.539 113.335C175.013 113.335 175.375 113.517 175.703 113.84C176.03 114.164 176.176 114.558 176.176 115.063C176.176 115.528 175.995 115.926 175.667 116.249C175.34 116.573 174.942 116.754 174.468 116.754C173.995 116.754 173.561 116.577 173.234 116.249C172.907 115.926 172.761 115.532 172.761 115.098C172.761 114.916 172.796 114.775 172.831 114.593C172.867 114.412 173.013 114.164 173.194 113.8L174.61 111.073ZM174.504 114.274C174.322 114.274 174.141 114.345 174.03 114.491C173.884 114.633 173.849 114.815 173.849 114.996C173.849 115.213 173.92 115.39 174.066 115.501C174.212 115.643 174.358 115.718 174.539 115.718C174.721 115.718 174.902 115.647 175.048 115.501C175.194 115.359 175.265 115.178 175.265 114.961C175.265 114.744 175.194 114.567 175.048 114.456C174.867 114.345 174.685 114.274 174.504 114.274ZM119.452 118.264H121.996V119.199H120.217L120 120.168C120.071 120.168 120.111 120.133 120.182 120.133H120.363C120.836 120.133 121.27 120.315 121.597 120.638C121.925 120.961 122.071 121.391 122.071 121.895C122.071 122.436 121.889 122.865 121.527 123.224C121.164 123.583 120.726 123.764 120.221 123.764C119.748 123.764 119.35 123.623 119.022 123.37C118.695 123.118 118.478 122.759 118.368 122.294H119.456C119.527 122.476 119.637 122.582 119.783 122.688C119.929 122.759 120.075 122.834 120.221 122.834C120.438 122.834 120.655 122.763 120.801 122.582C120.947 122.44 121.058 122.223 121.058 121.971C121.058 121.718 120.987 121.541 120.841 121.36C120.695 121.218 120.513 121.107 120.297 121.107C120.186 121.107 120.08 121.143 119.969 121.178C119.859 121.249 119.752 121.32 119.642 121.43L118.806 121.249L119.452 118.264ZM123.664 119.991H122.646C122.681 119.416 122.863 118.951 123.19 118.627C123.518 118.304 123.951 118.123 124.5 118.123C124.827 118.123 125.115 118.193 125.371 118.34C125.628 118.481 125.805 118.663 125.991 118.915C126.137 119.168 126.208 119.455 126.208 119.708C126.208 120.031 126.097 120.354 125.916 120.749C125.734 121.107 125.407 121.541 124.898 122.042L124.283 122.688H126.208V123.623H122.504V123.118L124.177 121.43C124.575 121.036 124.867 120.713 124.978 120.461C125.124 120.208 125.194 119.991 125.194 119.779C125.194 119.562 125.124 119.42 124.978 119.274C124.832 119.132 124.65 119.057 124.433 119.057C124.217 119.057 124.035 119.128 123.889 119.309C123.739 119.486 123.664 119.703 123.664 119.991ZM128.566 118.118C128.964 118.118 129.291 118.224 129.583 118.406C129.875 118.587 130.092 118.875 130.238 119.269C130.384 119.664 130.455 120.204 130.455 120.921C130.455 121.639 130.384 122.179 130.203 122.573C130.057 122.967 129.84 123.255 129.548 123.437C129.296 123.618 128.929 123.724 128.53 123.724C128.132 123.724 127.769 123.618 127.513 123.437C127.221 123.255 127.004 122.967 126.858 122.573C126.712 122.179 126.641 121.639 126.641 120.957C126.641 119.987 126.787 119.265 127.115 118.835C127.477 118.371 127.951 118.118 128.566 118.118ZM128.601 119.092C128.42 119.092 128.274 119.128 128.128 119.274C127.982 119.38 127.876 119.562 127.836 119.85C127.765 120.102 127.725 120.496 127.725 121.036C127.725 121.718 127.796 122.188 127.977 122.44C128.123 122.693 128.34 122.834 128.592 122.834C128.849 122.834 129.026 122.728 129.172 122.476C129.353 122.188 129.424 121.683 129.424 121.001C129.424 120.319 129.353 119.814 129.172 119.562C129.039 119.234 128.858 119.092 128.601 119.092ZM132.778 118.118L133.649 118.548L132.707 120.381C133.18 120.381 133.543 120.563 133.871 120.886C134.198 121.209 134.344 121.603 134.344 122.108C134.344 122.577 134.163 122.972 133.835 123.295C133.508 123.618 133.11 123.8 132.636 123.8C132.163 123.8 131.729 123.618 131.402 123.295C131.074 122.972 130.928 122.577 130.928 122.143C130.928 121.962 130.964 121.82 130.999 121.639C131.035 121.457 131.181 121.209 131.362 120.846L132.778 118.118ZM132.672 121.355C132.49 121.355 132.309 121.426 132.198 121.572C132.052 121.714 132.017 121.895 132.017 122.077C132.017 122.294 132.088 122.471 132.234 122.582C132.38 122.728 132.526 122.799 132.707 122.799C132.888 122.799 133.07 122.728 133.216 122.582C133.362 122.44 133.433 122.259 133.433 122.042C133.433 121.825 133.362 121.647 133.216 121.537C133.034 121.391 132.853 121.355 132.672 121.355ZM155.838 123.729L154.966 123.299L155.908 121.466C155.435 121.466 155.072 121.284 154.745 120.961C154.417 120.638 154.271 120.244 154.271 119.739C154.271 119.269 154.453 118.875 154.78 118.552C155.108 118.229 155.506 118.047 155.979 118.047C156.453 118.047 156.886 118.229 157.214 118.552C157.541 118.875 157.687 119.269 157.687 119.703C157.687 119.885 157.652 120.027 157.616 120.208C157.581 120.39 157.435 120.638 157.253 120.961L155.838 123.729ZM155.948 120.527C156.13 120.527 156.311 120.456 156.422 120.31C156.568 120.164 156.603 119.987 156.603 119.805C156.603 119.588 156.532 119.411 156.386 119.265C156.24 119.123 156.094 119.048 155.913 119.048C155.731 119.048 155.55 119.119 155.404 119.265C155.258 119.411 155.187 119.588 155.187 119.805C155.187 120.022 155.258 120.199 155.404 120.31C155.585 120.456 155.767 120.527 155.948 120.527ZM158.377 118.264H161.934V118.804L159.501 123.764L158.629 123.335L160.664 119.203H158.417V118.269H158.377V118.264ZM163.5 119.593H162.518C162.554 119.199 162.7 118.875 162.952 118.658C163.279 118.335 163.677 118.154 164.186 118.154C164.624 118.154 164.987 118.295 165.31 118.583C165.602 118.871 165.748 119.194 165.748 119.588C165.748 119.841 165.677 120.058 165.567 120.235C165.421 120.416 165.239 120.594 164.987 120.704C165.314 120.811 165.567 120.957 165.748 121.209C165.929 121.461 166.04 121.749 166.04 122.073C166.04 122.538 165.859 122.972 165.496 123.295C165.133 123.618 164.695 123.8 164.115 123.8C163.607 123.8 163.173 123.658 162.846 123.33C162.518 123.007 162.337 122.577 162.302 122.037H163.319C163.355 122.325 163.465 122.507 163.611 122.648C163.757 122.79 163.939 122.865 164.191 122.865C164.443 122.865 164.629 122.794 164.77 122.648C164.916 122.507 165.027 122.325 165.027 122.073C165.027 121.82 164.916 121.643 164.7 121.461C164.483 121.28 164.191 121.209 163.793 121.209V120.35C164.045 120.315 164.226 120.279 164.337 120.244C164.447 120.173 164.553 120.102 164.629 119.991C164.7 119.885 164.739 119.774 164.739 119.668C164.739 119.526 164.704 119.416 164.593 119.309C164.483 119.203 164.337 119.163 164.195 119.163C164.049 119.163 163.903 119.199 163.797 119.309C163.607 119.305 163.536 119.451 163.5 119.593ZM167.496 119.991H166.478C166.513 119.416 166.695 118.951 167.022 118.627C167.35 118.304 167.783 118.123 168.327 118.123C168.655 118.123 168.947 118.193 169.199 118.34C169.451 118.481 169.633 118.663 169.818 118.915C169.964 119.168 170.035 119.455 170.035 119.708C170.035 120.031 169.925 120.354 169.743 120.749C169.562 121.107 169.234 121.541 168.726 122.042L168.106 122.688H170.031V123.623H166.292V123.118L167.965 121.43C168.363 121.036 168.655 120.713 168.765 120.461C168.911 120.208 168.982 119.991 168.982 119.779C168.982 119.562 168.911 119.42 168.765 119.274C168.619 119.132 168.438 119.057 168.221 119.057C168.005 119.057 167.823 119.128 167.677 119.309C167.602 119.486 167.496 119.703 167.496 119.991ZM172.433 118.118C172.831 118.118 173.159 118.224 173.451 118.406C173.743 118.587 173.96 118.875 174.106 119.269C174.252 119.664 174.322 120.204 174.322 120.921C174.322 121.639 174.252 122.179 174.07 122.573C173.924 122.967 173.707 123.255 173.415 123.437C173.163 123.618 172.796 123.724 172.398 123.724C172 123.724 171.637 123.618 171.38 123.437C171.088 123.255 170.871 122.967 170.725 122.573C170.579 122.179 170.509 121.639 170.509 120.957C170.509 119.987 170.655 119.265 170.982 118.835C171.345 118.371 171.814 118.118 172.433 118.118ZM172.433 119.092C172.252 119.092 172.106 119.128 171.96 119.274C171.814 119.38 171.708 119.562 171.632 119.85C171.562 120.102 171.522 120.496 171.522 121.036C171.522 121.718 171.593 122.188 171.774 122.44C171.92 122.693 172.137 122.834 172.393 122.834C172.646 122.834 172.827 122.728 172.973 122.476C173.154 122.188 173.225 121.683 173.225 121.001C173.225 120.319 173.154 119.814 172.973 119.562C172.902 119.234 172.685 119.092 172.433 119.092ZM120.398 125.164L121.27 125.593L120.328 127.426C120.801 127.426 121.164 127.608 121.491 127.931C121.819 128.255 121.965 128.649 121.965 129.154C121.965 129.623 121.783 130.017 121.456 130.34C121.128 130.664 120.73 130.845 120.257 130.845C119.783 130.845 119.35 130.664 119.022 130.34C118.695 130.017 118.549 129.623 118.549 129.189C118.549 129.007 118.584 128.866 118.62 128.684C118.655 128.503 118.801 128.255 118.983 127.891L120.398 125.164ZM120.252 128.401C120.071 128.401 119.89 128.472 119.779 128.618C119.633 128.764 119.598 128.941 119.598 129.123C119.598 129.34 119.668 129.517 119.814 129.627C119.96 129.769 120.106 129.844 120.288 129.844C120.469 129.844 120.651 129.773 120.797 129.627C120.943 129.481 121.013 129.304 121.013 129.087C121.013 128.87 120.943 128.693 120.797 128.582C120.615 128.472 120.469 128.401 120.252 128.401ZM123.774 126.638H122.792C122.827 126.244 122.973 125.921 123.226 125.704C123.553 125.381 123.951 125.199 124.46 125.199C124.894 125.199 125.261 125.345 125.584 125.629C125.876 125.916 126.017 126.24 126.017 126.634C126.017 126.886 125.947 127.099 125.836 127.28C125.69 127.462 125.509 127.639 125.256 127.75C125.584 127.856 125.836 128.002 126.017 128.255C126.199 128.507 126.309 128.795 126.309 129.118C126.309 129.587 126.128 130.017 125.765 130.34C125.402 130.664 124.969 130.845 124.385 130.845C123.876 130.845 123.442 130.699 123.115 130.376C122.788 130.052 122.606 129.623 122.571 129.083H123.588C123.624 129.37 123.734 129.552 123.88 129.694C124.026 129.84 124.208 129.911 124.46 129.911C124.717 129.911 124.894 129.84 125.04 129.694C125.186 129.552 125.296 129.335 125.296 129.118C125.296 128.866 125.186 128.689 124.969 128.507C124.752 128.33 124.46 128.255 124.062 128.255V127.391C124.314 127.356 124.495 127.32 124.606 127.285C124.717 127.214 124.823 127.143 124.898 127.032C124.969 126.926 125.009 126.815 125.009 126.709C125.009 126.567 124.973 126.457 124.863 126.35C124.752 126.244 124.61 126.209 124.464 126.209C124.318 126.209 124.172 126.244 124.066 126.35C123.88 126.386 123.81 126.497 123.774 126.638ZM128.641 125.164L129.513 125.593L128.57 127.426C129.044 127.426 129.406 127.608 129.734 127.931C130.061 128.255 130.207 128.649 130.207 129.154C130.207 129.623 130.026 130.017 129.698 130.34C129.371 130.664 128.973 130.845 128.499 130.845C128.026 130.845 127.592 130.664 127.265 130.34C126.938 130.017 126.792 129.623 126.792 129.189C126.792 129.007 126.827 128.866 126.862 128.684C126.898 128.503 127.044 128.255 127.225 127.891L128.641 125.164ZM128.53 128.401C128.349 128.401 128.168 128.472 128.057 128.618C127.911 128.764 127.876 128.941 127.876 129.123C127.876 129.34 127.946 129.517 128.092 129.627C128.238 129.769 128.384 129.844 128.566 129.844C128.747 129.844 128.929 129.773 129.075 129.627C129.221 129.481 129.291 129.304 129.291 129.087C129.291 128.87 129.221 128.693 129.075 128.582C128.893 128.472 128.712 128.401 128.53 128.401ZM136.193 126.244L135.468 126.926C134.959 126.421 134.415 126.173 133.795 126.173C133.287 126.173 132.853 126.355 132.49 126.713C132.127 127.072 131.946 127.506 131.946 128.007C131.946 128.365 132.017 128.689 132.203 128.941C132.349 129.229 132.565 129.446 132.857 129.587C133.149 129.734 133.472 129.84 133.8 129.84C134.092 129.84 134.379 129.769 134.636 129.658C134.888 129.552 135.145 129.335 135.437 129.047L136.127 129.765C135.729 130.159 135.366 130.411 135.003 130.557C134.64 130.699 134.242 130.774 133.769 130.774C132.933 130.774 132.242 130.522 131.698 129.982C131.154 129.441 130.897 128.759 130.897 127.967C130.897 127.426 131.008 126.961 131.26 126.528C131.517 126.098 131.84 125.775 132.313 125.522C132.747 125.27 133.256 125.128 133.764 125.128C134.198 125.128 134.636 125.234 135.034 125.416C135.539 125.633 135.901 125.921 136.193 126.244ZM138.587 125.164L139.459 125.593L138.516 127.426C138.99 127.426 139.352 127.608 139.68 127.931C140.007 128.255 140.153 128.649 140.153 129.154C140.153 129.623 139.972 130.017 139.644 130.34C139.317 130.664 138.919 130.845 138.445 130.845C137.972 130.845 137.538 130.664 137.211 130.34C136.884 130.017 136.738 129.623 136.738 129.189C136.738 129.007 136.773 128.866 136.808 128.684C136.844 128.503 136.99 128.255 137.171 127.891L138.587 125.164ZM138.445 128.401C138.264 128.401 138.083 128.472 137.972 128.618C137.826 128.764 137.791 128.941 137.791 129.123C137.791 129.34 137.861 129.517 138.007 129.627C138.153 129.769 138.299 129.844 138.481 129.844C138.662 129.844 138.844 129.773 138.99 129.627C139.136 129.481 139.206 129.304 139.206 129.087C139.206 128.87 139.136 128.693 138.99 128.582C138.808 128.472 138.662 128.401 138.445 128.401ZM141.786 125.31H144.325V126.244H142.547L142.33 127.214C142.401 127.214 142.441 127.178 142.511 127.178H142.693C143.166 127.178 143.6 127.36 143.927 127.683C144.255 128.007 144.401 128.436 144.401 128.941C144.401 129.481 144.219 129.911 143.856 130.269C143.494 130.628 143.056 130.81 142.551 130.81C142.078 130.81 141.68 130.668 141.352 130.416C141.025 130.163 140.808 129.804 140.697 129.335H141.786C141.857 129.517 141.967 129.623 142.113 129.729C142.259 129.8 142.405 129.871 142.547 129.871C142.764 129.871 142.98 129.8 143.126 129.618C143.272 129.472 143.379 129.26 143.379 129.007C143.379 128.755 143.308 128.578 143.162 128.396C143.016 128.255 142.834 128.144 142.618 128.144C142.507 128.144 142.401 128.179 142.29 128.215C142.18 128.286 142.073 128.356 141.963 128.467L141.127 128.286L141.786 125.31ZM146.834 125.164L147.706 125.593L146.763 127.426C147.237 127.426 147.599 127.608 147.927 127.931C148.254 128.255 148.4 128.649 148.4 129.154C148.4 129.623 148.219 130.017 147.891 130.34C147.564 130.664 147.166 130.845 146.692 130.845C146.219 130.845 145.785 130.664 145.458 130.34C145.131 130.017 144.985 129.623 144.985 129.189C144.985 129.007 145.02 128.866 145.055 128.684C145.091 128.503 145.237 128.255 145.418 127.891L146.834 125.164ZM146.723 128.401C146.542 128.401 146.361 128.472 146.25 128.618C146.104 128.764 146.069 128.941 146.069 129.123C146.069 129.34 146.139 129.517 146.285 129.627C146.431 129.769 146.577 129.844 146.759 129.844C146.94 129.844 147.122 129.773 147.268 129.627C147.414 129.481 147.484 129.304 147.484 129.087C147.484 128.87 147.414 128.693 147.268 128.582C147.086 128.472 146.905 128.401 146.723 128.401ZM150.028 125.31H151.59V130.668H150.573V126.284H149.449L150.028 125.31ZM153.369 125.31H156.926V125.85L154.493 130.81L153.621 130.38L155.656 126.249H153.404V125.31H153.369ZM158.377 127.032H157.36C157.395 126.457 157.576 125.992 157.904 125.668C158.231 125.345 158.665 125.164 159.209 125.164C159.536 125.164 159.828 125.234 160.08 125.381C160.337 125.522 160.514 125.704 160.7 125.992C160.846 126.244 160.917 126.532 160.917 126.784C160.917 127.108 160.806 127.431 160.625 127.825C160.443 128.184 160.116 128.618 159.607 129.118L158.988 129.765H160.912V130.699H157.209V130.194L158.881 128.503C159.28 128.108 159.572 127.785 159.682 127.533C159.828 127.28 159.899 127.063 159.899 126.851C159.899 126.634 159.828 126.492 159.682 126.346C159.536 126.204 159.355 126.129 159.138 126.129C158.921 126.129 158.74 126.2 158.594 126.381C158.452 126.532 158.377 126.744 158.377 127.032ZM162.483 127.032H161.465C161.501 126.457 161.682 125.992 162.009 125.668C162.337 125.345 162.77 125.164 163.315 125.164C163.642 125.164 163.934 125.234 164.186 125.381C164.438 125.522 164.624 125.704 164.806 125.992C164.952 126.244 165.022 126.532 165.022 126.784C165.022 127.108 164.912 127.431 164.73 127.825C164.549 128.184 164.222 128.618 163.713 129.118L163.093 129.765H165.018V130.699H161.279V130.194L162.952 128.503C163.35 128.108 163.642 127.785 163.753 127.533C163.899 127.28 163.969 127.063 163.969 126.851C163.969 126.634 163.899 126.492 163.753 126.346C163.607 126.204 163.425 126.129 163.208 126.129C162.992 126.129 162.81 126.2 162.664 126.381C162.594 126.532 162.518 126.744 162.483 127.032ZM167.42 125.164C167.819 125.164 168.146 125.27 168.438 125.451C168.73 125.633 168.947 125.921 169.093 126.315C169.239 126.709 169.31 127.249 169.31 127.967C169.31 128.684 169.239 129.224 169.057 129.618C168.911 130.013 168.695 130.3 168.403 130.482C168.151 130.664 167.783 130.77 167.385 130.77C166.987 130.77 166.624 130.664 166.367 130.482C166.075 130.3 165.859 130.017 165.713 129.618C165.567 129.224 165.496 128.684 165.496 128.002C165.496 127.032 165.642 126.315 165.969 125.881C166.332 125.416 166.806 125.164 167.42 125.164ZM167.456 126.133C167.274 126.133 167.128 126.169 166.982 126.315C166.836 126.421 166.73 126.603 166.655 126.891C166.584 127.143 166.544 127.537 166.544 128.077C166.544 128.759 166.615 129.229 166.801 129.481C166.947 129.734 167.164 129.875 167.42 129.875C167.673 129.875 167.854 129.769 168 129.517C168.181 129.229 168.257 128.724 168.257 128.042C168.257 127.36 168.186 126.855 168 126.603C167.894 126.28 167.712 126.133 167.456 126.133ZM160.85 134.078H159.833C159.868 133.502 160.05 133.037 160.377 132.714C160.704 132.391 161.138 132.209 161.687 132.209C162.014 132.209 162.302 132.28 162.558 132.426C162.815 132.568 162.992 132.749 163.178 133.002C163.324 133.254 163.394 133.542 163.394 133.794C163.394 134.118 163.284 134.441 163.102 134.835C162.921 135.194 162.594 135.628 162.085 136.128L161.47 136.775H163.394V137.709H159.656V137.204L161.328 135.517C161.726 135.123 162.018 134.8 162.129 134.547C162.275 134.295 162.346 134.082 162.346 133.865C162.346 133.648 162.275 133.507 162.129 133.36C161.983 133.214 161.802 133.143 161.585 133.143C161.368 133.143 161.187 133.214 161.041 133.396C160.921 133.577 160.85 133.79 160.85 134.078ZM119.527 70.6374H118.509C118.545 70.0617 118.726 69.5968 119.053 69.2735C119.381 68.9502 119.814 68.7687 120.359 68.7687C120.686 68.7687 120.978 68.8395 121.23 68.9857C121.482 69.1318 121.664 69.3089 121.85 69.5968C121.996 69.8492 122.066 70.137 122.066 70.3894C122.066 70.7127 121.956 71.036 121.774 71.4301C121.593 71.7888 121.266 72.2228 120.757 72.7232L120.177 73.3343H122.102V74.2687H118.363V73.7638L120.036 72.0722C120.434 71.6781 120.726 71.3548 120.836 71.1024C120.982 70.85 121.053 70.633 121.053 70.4204C121.053 70.2034 120.982 70.0617 120.836 69.9156C120.69 69.7695 120.509 69.6986 120.292 69.6986C120.075 69.6986 119.894 69.7695 119.748 69.951C119.598 70.1326 119.527 70.3496 119.527 70.6374ZM124.429 68.7687C124.827 68.7687 125.155 68.8749 125.447 69.0565C125.739 69.2381 125.955 69.5259 126.101 69.92C126.247 70.3142 126.318 70.8544 126.318 71.5718C126.318 72.2892 126.247 72.8295 126.066 73.2236C125.92 73.6177 125.703 73.9055 125.411 74.0871C125.155 74.2687 124.792 74.3749 124.394 74.3749C123.995 74.3749 123.633 74.2687 123.376 74.0871C123.084 73.9055 122.867 73.6177 122.721 73.2236C122.575 72.8295 122.504 72.2892 122.504 71.6072C122.504 70.6374 122.65 69.92 122.978 69.4861C123.336 69.0167 123.81 68.7687 124.429 68.7687ZM124.464 69.7385C124.283 69.7385 124.137 69.7739 123.991 69.92C123.845 70.0263 123.739 70.2079 123.664 70.4957C123.593 70.7481 123.553 71.1423 123.553 71.6825C123.553 72.3645 123.624 72.8339 123.805 73.0819C123.951 73.3343 124.168 73.476 124.425 73.476C124.677 73.476 124.863 73.3697 125.004 73.1173C125.186 72.8295 125.256 72.3246 125.256 71.6427C125.256 70.9607 125.186 70.4559 125.004 70.2035C124.933 69.8802 124.717 69.7385 124.464 69.7385ZM128.964 68.7687H129.982V72.2183H130.455V73.1527H129.982V74.2332H128.964V73.1527H126.606V72.2183L128.964 68.7687ZM129.004 72.2183V70.4204L127.769 72.2183H129.004ZM131.906 70.6374H130.889C130.924 70.0617 131.105 69.5968 131.433 69.2735C131.76 68.9502 132.194 68.7687 132.742 68.7687C133.07 68.7687 133.357 68.8395 133.614 68.9857C133.871 69.1318 134.048 69.3089 134.233 69.5968C134.379 69.8492 134.45 70.137 134.45 70.3894C134.45 70.7127 134.34 71.036 134.158 71.4301C133.977 71.7888 133.649 72.2228 133.141 72.7232L132.526 73.3697H134.45V74.3041H130.747V73.7993L132.419 72.1121C132.818 71.7179 133.11 71.3947 133.22 71.1423C133.366 70.8898 133.437 70.6729 133.437 70.4603C133.437 70.2433 133.366 70.1016 133.22 69.9555C133.074 69.8138 132.893 69.7385 132.676 69.7385C132.459 69.7385 132.278 69.8093 132.132 69.9909C132.017 70.1326 131.906 70.3496 131.906 70.6374ZM137.246 68.7687H138.264V72.2183H138.737V73.1527H138.264V74.2332H137.246V73.1527H134.888V72.2183L137.246 68.7687ZM137.246 72.2183V70.4204L136.012 72.2183H137.246ZM140.914 74.4104L140.043 73.9808L140.985 72.1475C140.512 72.1475 140.149 71.9659 139.821 71.6427C139.494 71.3194 139.348 70.9253 139.348 70.4204C139.348 69.951 139.529 69.5569 139.857 69.2336C140.184 68.9104 140.582 68.7288 141.056 68.7288C141.529 68.7288 141.963 68.9104 142.29 69.2336C142.618 69.5569 142.764 69.951 142.764 70.385C142.764 70.5666 142.728 70.7083 142.693 70.8898C142.657 71.0714 142.511 71.3194 142.33 71.6427L140.914 74.4104ZM141.02 71.1733C141.202 71.1733 141.383 71.1024 141.494 70.9563C141.64 70.8146 141.675 70.633 141.675 70.4514C141.675 70.2344 141.604 70.0573 141.458 69.9112C141.312 69.765 141.166 69.6942 140.985 69.6942C140.804 69.6942 140.622 69.765 140.476 69.9112C140.33 70.0529 140.259 70.2344 140.259 70.4514C140.259 70.6684 140.33 70.8456 140.476 70.9563C140.658 71.1024 140.839 71.1733 141.02 71.1733ZM144.255 68.9104H146.799V69.8448H145.02L144.803 70.8146C144.874 70.8146 144.914 70.7791 144.985 70.7791H145.166C145.639 70.7791 146.073 70.9607 146.4 71.284C146.728 71.6072 146.874 72.0368 146.874 72.5416C146.874 73.0819 146.692 73.5114 146.33 73.8701C145.967 74.2288 145.529 74.4104 145.02 74.4104C144.547 74.4104 144.148 74.2642 143.821 74.0163C143.494 73.7638 143.277 73.4051 143.166 72.9357H144.255C144.325 73.1173 144.436 73.2236 144.582 73.3299C144.728 73.4007 144.874 73.4716 145.016 73.4716C145.232 73.4716 145.449 73.4007 145.595 73.2191C145.741 73.073 145.847 72.8605 145.847 72.608C145.847 72.3556 145.777 72.1785 145.631 71.9969C145.485 71.8508 145.303 71.7445 145.086 71.7445C144.976 71.7445 144.87 71.7799 144.759 71.8154C144.648 71.8862 144.542 71.9571 144.432 72.0678L143.595 71.8862L144.255 68.9104ZM149.626 68.7687H150.643V72.2183H151.117V73.1527H150.643V74.2332H149.626V73.1527H147.268V72.2183L149.626 68.7687ZM149.666 72.2183V70.4204L148.431 72.2183H149.666ZM120.398 75.8142L121.27 76.2437L120.328 78.077C120.801 78.077 121.164 78.2586 121.491 78.5819C121.819 78.9051 121.965 79.2993 121.965 79.8041C121.965 80.2735 121.783 80.6676 121.456 80.9909C121.128 81.3142 120.73 81.4957 120.257 81.4957C119.783 81.4957 119.35 81.3142 119.022 80.9909C118.695 80.6676 118.549 80.2735 118.549 79.8395C118.549 79.658 118.584 79.5162 118.62 79.3347C118.655 79.1576 118.801 78.9051 118.983 78.542L120.398 75.8142ZM120.252 79.0468C120.071 79.0468 119.89 79.1177 119.779 79.2638C119.633 79.4055 119.598 79.5871 119.598 79.7687C119.598 79.9857 119.668 80.1628 119.814 80.2735C119.96 80.4152 120.106 80.4905 120.288 80.4905C120.469 80.4905 120.651 80.4196 120.797 80.2735C120.943 80.1274 121.013 79.9502 121.013 79.7332C121.013 79.5162 120.943 79.3391 120.797 79.2284C120.615 79.1177 120.469 79.0468 120.252 79.0468ZM125.553 78.4003C125.805 78.542 125.991 78.759 126.132 79.0114C126.278 79.2638 126.349 79.5162 126.349 79.8041C126.349 80.1274 126.278 80.4152 126.132 80.6676C125.986 80.92 125.77 81.137 125.517 81.2433C125.261 81.385 124.938 81.4603 124.5 81.4603C124.066 81.4603 123.699 81.3894 123.447 81.2787C123.195 81.137 122.973 80.9555 122.832 80.703C122.686 80.4506 122.615 80.1628 122.615 79.8395C122.615 79.5517 122.686 79.2993 122.796 79.0867C122.907 78.8697 123.124 78.6572 123.341 78.4756C123.195 78.294 123.049 78.1523 122.978 77.9708C122.907 77.7892 122.867 77.6121 122.867 77.3951C122.867 77.1072 122.938 76.8548 123.084 76.6423C123.23 76.4253 123.411 76.2481 123.664 76.102C123.916 75.9603 124.208 75.9204 124.5 75.9204C124.827 75.9204 125.079 75.9913 125.336 76.102C125.588 76.2437 125.77 76.4253 125.916 76.6423C126.062 76.8947 126.132 77.1471 126.132 77.3951C126.132 77.5766 126.097 77.7538 126.022 77.9353C125.88 78.0062 125.734 78.2187 125.553 78.4003ZM124.389 76.8194C124.208 76.8194 124.097 76.8902 123.991 77.001C123.88 77.1072 123.81 77.2534 123.81 77.4305C123.81 77.6121 123.88 77.7538 123.991 77.8601C124.102 77.9663 124.243 78.0416 124.425 78.0416C124.606 78.0416 124.752 77.9708 124.863 77.8601C124.973 77.7493 125.044 77.6076 125.044 77.4305C125.044 77.2489 124.973 77.1072 124.863 77.001C124.752 76.8548 124.571 76.8194 124.389 76.8194ZM124.464 78.9406C124.212 78.9406 123.991 79.0114 123.849 79.1576C123.668 79.2993 123.593 79.4808 123.593 79.6978C123.593 79.9148 123.664 80.0919 123.849 80.2381C123.995 80.3842 124.212 80.4551 124.464 80.4551C124.721 80.4551 124.938 80.3842 125.084 80.2381C125.23 80.0964 125.301 79.9148 125.301 79.6978C125.301 79.4808 125.23 79.3037 125.044 79.1576C124.898 79.0114 124.681 78.9406 124.464 78.9406ZM128.641 75.8142L129.513 76.2437L128.57 78.077C129.044 78.077 129.406 78.2586 129.734 78.5819C130.061 78.9051 130.207 79.2993 130.207 79.8041C130.207 80.2735 130.026 80.6676 129.698 80.9909C129.371 81.3142 128.973 81.4957 128.499 81.4957C128.026 81.4957 127.592 81.3142 127.265 80.9909C126.938 80.6676 126.792 80.2735 126.792 79.8395C126.792 79.658 126.827 79.5162 126.862 79.3347C126.898 79.1576 127.044 78.9051 127.225 78.542L128.641 75.8142ZM128.53 79.0468C128.349 79.0468 128.168 79.1177 128.057 79.2638C127.911 79.4055 127.876 79.5871 127.876 79.7687C127.876 79.9857 127.946 80.1628 128.092 80.2735C128.238 80.4152 128.384 80.4905 128.566 80.4905C128.747 80.4905 128.929 80.4196 129.075 80.2735C129.221 80.1274 129.291 79.9502 129.291 79.7332C129.291 79.5162 129.221 79.3391 129.075 79.2284C128.893 79.1177 128.712 79.0468 128.53 79.0468ZM152.134 75.9559H155.692V76.4961L153.258 81.4559L152.387 81.0263L154.422 76.8902H152.134V75.9559ZM158.306 75.8142H159.324V79.2638H159.797V80.1982H159.324V81.2787H158.306V80.1982H155.948V79.2638L158.306 75.8142ZM158.342 79.2638V77.4659L157.107 79.2638H158.342ZM162.12 75.8142L162.992 76.2437L162.049 78.077C162.523 78.077 162.886 78.2586 163.213 78.5819C163.54 78.9051 163.686 79.2993 163.686 79.8041C163.686 80.2735 163.505 80.6676 163.178 80.9909C162.85 81.3142 162.452 81.4957 161.979 81.4957C161.505 81.4957 161.072 81.3142 160.744 80.9909C160.417 80.6676 160.271 80.2735 160.271 79.8395C160.271 79.658 160.306 79.5162 160.342 79.3347C160.377 79.1576 160.523 78.9051 160.704 78.542L162.12 75.8142ZM162.009 79.0468C161.828 79.0468 161.647 79.1177 161.536 79.2638C161.39 79.4055 161.355 79.5871 161.355 79.7687C161.355 79.9857 161.425 80.1628 161.571 80.2735C161.717 80.4152 161.863 80.4905 162.045 80.4905C162.226 80.4905 162.408 80.4196 162.554 80.2735C162.7 80.1274 162.77 79.9502 162.77 79.7332C162.77 79.5162 162.7 79.3391 162.554 79.2284C162.372 79.1177 162.191 79.0468 162.009 79.0468ZM165.35 75.9559H167.889V76.8902H166.115L165.899 77.8601C165.969 77.8601 166.009 77.8246 166.08 77.8246H166.261C166.735 77.8246 167.168 78.0062 167.496 78.3295C167.823 78.6527 167.969 79.0823 167.969 79.5871C167.969 80.1274 167.788 80.5569 167.425 80.9156C167.062 81.2743 166.624 81.4559 166.115 81.4559C165.642 81.4559 165.244 81.3142 164.916 81.0617C164.589 80.8093 164.372 80.4506 164.261 79.9812H165.35C165.421 80.1628 165.531 80.2691 165.677 80.3753C165.823 80.4462 165.969 80.5171 166.111 80.5171C166.328 80.5171 166.544 80.4462 166.69 80.2646C166.836 80.1185 166.943 79.9059 166.943 79.6535C166.943 79.4011 166.872 79.224 166.726 79.0424C166.58 78.8963 166.398 78.79 166.182 78.79C166.071 78.79 165.965 78.8254 165.854 78.8609C165.744 78.9317 165.637 79.0026 165.527 79.1133L164.691 78.9317L165.35 75.9559ZM169.526 77.6829H168.509C168.544 77.1072 168.726 76.6423 169.053 76.319C169.38 75.9957 169.814 75.8142 170.363 75.8142C170.69 75.8142 170.978 75.885 171.234 76.0311C171.491 76.1729 171.668 76.3544 171.854 76.6068C172 76.8592 172.07 77.1471 172.07 77.3995C172.07 77.7228 171.96 78.046 171.778 78.4402C171.597 78.7989 171.27 79.2328 170.761 79.7332L170.146 80.3798H172.07V81.3142H168.327V80.8093L170 79.1177C170.398 78.7236 170.69 78.4003 170.801 78.1479C170.947 77.8955 171.017 77.6829 171.017 77.4659C171.017 77.2489 170.947 77.1072 170.801 76.9611C170.655 76.815 170.473 76.7441 170.257 76.7441C170.04 76.7441 169.858 76.815 169.712 76.9965C169.602 77.1781 169.526 77.3951 169.526 77.6829ZM120.288 82.8596C120.686 82.8596 121.013 82.9659 121.305 83.1475C121.597 83.3291 121.814 83.6169 121.96 84.011C122.106 84.4051 122.177 84.9454 122.177 85.6628C122.177 86.3802 122.106 86.9204 121.92 87.3146C121.774 87.7087 121.558 87.9965 121.266 88.1781C121.009 88.3596 120.646 88.4659 120.248 88.4659C119.85 88.4659 119.487 88.3596 119.23 88.1781C118.938 87.9965 118.722 87.7087 118.576 87.3146C118.43 86.9204 118.359 86.3802 118.359 85.6982C118.359 84.7284 118.505 84.011 118.832 83.577C119.199 83.1076 119.708 82.8596 120.288 82.8596ZM120.323 83.8295C120.142 83.8295 119.996 83.8649 119.85 84.011C119.704 84.1173 119.598 84.2989 119.522 84.5867C119.487 84.8391 119.452 85.2332 119.452 85.7735C119.452 86.4555 119.522 86.9249 119.708 87.1773C119.854 87.4297 120.071 87.5714 120.328 87.5714C120.58 87.5714 120.761 87.4651 120.907 87.2127C121.089 86.9249 121.164 86.42 121.164 85.7381C121.164 85.0561 121.093 84.5513 120.907 84.2989C120.797 83.9712 120.58 83.8295 120.323 83.8295ZM124.535 82.8596L125.407 83.2892L124.464 85.1225C124.938 85.1225 125.301 85.3041 125.628 85.6274C125.955 85.9506 126.101 86.3447 126.101 86.8496C126.101 87.319 125.92 87.7131 125.593 88.0364C125.265 88.3596 124.867 88.5412 124.394 88.5412C123.92 88.5412 123.487 88.3596 123.159 88.0364C122.832 87.7131 122.686 87.319 122.686 86.885C122.686 86.7034 122.721 86.5617 122.757 86.3802C122.792 86.1986 122.938 85.9506 123.119 85.5875L124.535 82.8596ZM124.389 86.0923C124.208 86.0923 124.026 86.1632 123.916 86.3093C123.77 86.4555 123.734 86.6326 123.734 86.8142C123.734 87.0311 123.805 87.2083 123.951 87.319C124.097 87.4607 124.243 87.536 124.425 87.536C124.606 87.536 124.787 87.4651 124.933 87.319C125.079 87.1728 125.15 86.9957 125.15 86.7787C125.15 86.5617 125.079 86.3846 124.933 86.2739C124.752 86.1632 124.61 86.0923 124.389 86.0923ZM128.495 88.5014L127.623 88.0718L128.566 86.2385C128.092 86.2385 127.73 86.0569 127.402 85.7336C127.075 85.4104 126.929 85.0162 126.929 84.5114C126.929 84.0464 127.11 83.6479 127.438 83.3246C127.765 83.0014 128.163 82.8198 128.637 82.8198C129.11 82.8198 129.544 83.0014 129.871 83.3246C130.198 83.6479 130.344 84.042 130.344 84.476C130.344 84.6576 130.309 84.7993 130.274 84.9808C130.238 85.1624 130.092 85.4104 129.911 85.7381L128.495 88.5014ZM128.641 85.2642C128.822 85.2642 129.004 85.1934 129.114 85.0472C129.26 84.9055 129.296 84.724 129.296 84.5424C129.296 84.3254 129.225 84.1483 129.079 84.0022C128.933 83.856 128.787 83.7852 128.606 83.7852C128.424 83.7852 128.243 83.856 128.097 84.0022C127.951 84.1439 127.88 84.3254 127.88 84.5424C127.88 84.7594 127.951 84.9365 128.097 85.0472C128.274 85.1934 128.42 85.2642 128.641 85.2642ZM131.074 83.0014H134.632V83.5416L132.163 88.5014L131.291 88.0718L133.326 83.9402H131.074V83.0014ZM153.112 84.3299H152.134C152.17 83.9357 152.316 83.6125 152.568 83.3955C152.895 83.0722 153.294 82.8906 153.802 82.8906C154.24 82.8906 154.603 83.0324 154.926 83.3202C155.218 83.608 155.364 83.9313 155.364 84.3254C155.364 84.5778 155.293 84.7948 155.183 84.972C155.037 85.1535 154.855 85.3307 154.603 85.4414C154.931 85.5476 155.183 85.6938 155.364 85.9462C155.546 86.1986 155.656 86.4865 155.656 86.8097C155.656 87.2791 155.475 87.7087 155.112 88.0319C154.749 88.3552 154.311 88.5368 153.732 88.5368C153.223 88.5368 152.789 88.3906 152.462 88.0718C152.134 87.7485 151.953 87.319 151.918 86.7787H152.935C152.971 87.0666 153.081 87.2481 153.227 87.3898C153.373 87.536 153.555 87.6068 153.807 87.6068C154.059 87.6068 154.245 87.536 154.386 87.3898C154.532 87.2481 154.639 87.0666 154.639 86.8142C154.639 86.5617 154.528 86.3846 154.311 86.203C154.094 86.0215 153.802 85.9506 153.404 85.9506V85.0871C153.661 85.0517 153.838 85.0162 153.948 84.9808C154.059 84.91 154.165 84.8391 154.24 84.7284C154.311 84.6221 154.351 84.5114 154.351 84.4051C154.351 84.2634 154.316 84.1527 154.205 84.0464C154.094 83.9402 153.953 83.9047 153.807 83.9047C153.661 83.9047 153.515 83.9402 153.409 84.0464C153.258 84.0774 153.152 84.1881 153.112 84.3299ZM157.143 84.7284H156.125C156.16 84.1527 156.342 83.6877 156.669 83.3645C156.997 83.0412 157.43 82.8596 157.974 82.8596C158.302 82.8596 158.594 82.9305 158.846 83.0766C159.098 83.2183 159.28 83.3999 159.465 83.6523C159.611 83.9047 159.682 84.1926 159.682 84.445C159.682 84.7683 159.572 85.0915 159.39 85.4857C159.209 85.8443 158.881 86.2783 158.373 86.7787L157.753 87.4253H159.678V88.3596H155.939V87.8548L157.612 86.1676C158.01 85.7735 158.302 85.4502 158.408 85.1978C158.554 84.9454 158.625 84.7284 158.625 84.5158C158.625 84.2989 158.554 84.1571 158.408 84.011C158.262 83.8649 158.081 83.794 157.864 83.794C157.647 83.794 157.466 83.8649 157.32 84.0464C157.218 84.2236 157.143 84.476 157.143 84.7284ZM162.045 82.8596C162.443 82.8596 162.77 82.9659 163.062 83.1475C163.355 83.3291 163.571 83.6169 163.717 84.011C163.863 84.4051 163.934 84.9454 163.934 85.6628C163.934 86.3802 163.863 86.9204 163.682 87.3146C163.536 87.7087 163.319 87.9965 163.027 88.1781C162.77 88.3596 162.408 88.4659 162.009 88.4659C161.611 88.4659 161.249 88.3596 160.992 88.1781C160.7 87.9965 160.483 87.7087 160.337 87.3146C160.191 86.9204 160.12 86.3802 160.12 85.6982C160.12 84.7284 160.266 84.011 160.594 83.577C160.957 83.1076 161.43 82.8596 162.045 82.8596ZM162.085 83.8295C161.903 83.8295 161.757 83.8649 161.611 84.011C161.465 84.1173 161.359 84.2989 161.319 84.5867C161.249 84.8391 161.209 85.2332 161.209 85.7735C161.209 86.4555 161.279 86.9249 161.465 87.1773C161.611 87.4297 161.828 87.5714 162.08 87.5714C162.332 87.5714 162.514 87.4651 162.66 87.2127C162.841 86.9249 162.916 86.42 162.916 85.7381C162.916 85.0561 162.846 84.5513 162.66 84.2989C162.518 83.9712 162.337 83.8295 162.085 83.8295ZM166.261 82.8596L167.133 83.2892L166.191 85.1225C166.664 85.1225 167.027 85.3041 167.354 85.6274C167.682 85.9506 167.828 86.3447 167.828 86.8496C167.828 87.319 167.646 87.7131 167.319 88.0364C166.991 88.3596 166.593 88.5412 166.12 88.5412C165.646 88.5412 165.213 88.3596 164.885 88.0364C164.558 87.7131 164.412 87.319 164.412 86.885C164.412 86.7034 164.447 86.5617 164.483 86.3802C164.518 86.1986 164.664 85.9506 164.846 85.5875L166.261 82.8596ZM166.151 86.0923C165.969 86.0923 165.788 86.1632 165.677 86.3093C165.531 86.451 165.496 86.6326 165.496 86.8142C165.496 87.0311 165.567 87.2083 165.713 87.319C165.859 87.4607 166.005 87.536 166.186 87.536C166.367 87.536 166.549 87.4651 166.695 87.319C166.841 87.1773 166.912 86.9957 166.912 86.7787C166.912 86.5617 166.841 86.3846 166.695 86.2739C166.513 86.1632 166.332 86.0923 166.151 86.0923ZM119.633 91.3753H118.651C118.686 90.9812 118.832 90.658 119.089 90.441C119.416 90.1177 119.814 89.9361 120.323 89.9361C120.757 89.9361 121.124 90.0778 121.447 90.3657C121.739 90.6535 121.881 90.9768 121.881 91.3709C121.881 91.6233 121.81 91.8359 121.699 92.0175C121.553 92.199 121.372 92.3761 121.12 92.4869C121.447 92.5931 121.699 92.7393 121.881 92.9917C122.062 93.2441 122.173 93.5319 122.173 93.8552C122.173 94.3246 121.991 94.7542 121.628 95.0774C121.266 95.4007 120.828 95.5823 120.248 95.5823C119.739 95.5823 119.306 95.4406 118.978 95.1129C118.651 94.7896 118.469 94.36 118.434 93.8198H119.452C119.487 94.1076 119.598 94.2892 119.744 94.4309C119.89 94.577 120.071 94.6479 120.323 94.6479C120.575 94.6479 120.757 94.577 120.903 94.4309C121.049 94.2892 121.159 94.1076 121.159 93.8552C121.159 93.6028 121.049 93.4257 120.832 93.2441C120.615 93.0625 120.323 92.9917 119.925 92.9917V92.1282C120.182 92.0927 120.359 92.0573 120.469 92.0219C120.58 91.951 120.686 91.8757 120.761 91.7695C120.832 91.6632 120.872 91.5525 120.872 91.4462C120.872 91.3045 120.836 91.1938 120.726 91.0875C120.615 90.9812 120.469 90.9458 120.328 90.9458C120.182 90.9458 120.036 90.9812 119.929 91.0875C119.779 91.1229 119.668 91.2336 119.633 91.3753ZM124.535 89.9406L125.407 90.3701L124.464 92.2034C124.938 92.2034 125.301 92.385 125.628 92.7083C125.955 93.0315 126.101 93.4257 126.101 93.9305C126.101 94.3999 125.92 94.794 125.593 95.1173C125.265 95.4406 124.867 95.6221 124.394 95.6221C123.92 95.6221 123.487 95.4406 123.159 95.1173C122.832 94.794 122.686 94.3999 122.686 93.9659C122.686 93.7844 122.721 93.6427 122.757 93.4611C122.792 93.2795 122.938 93.0315 123.119 92.6684L124.535 89.9406ZM124.389 93.1378C124.208 93.1378 124.026 93.2087 123.916 93.3548C123.77 93.4965 123.734 93.6781 123.734 93.8596C123.734 94.0766 123.805 94.2538 123.951 94.3645C124.097 94.5062 124.243 94.5815 124.425 94.5815C124.606 94.5815 124.787 94.5106 124.933 94.3645C125.079 94.2183 125.15 94.0412 125.15 93.8242C125.15 93.6072 125.079 93.4301 124.933 93.3194C124.752 93.2087 124.61 93.1378 124.389 93.1378ZM132.052 90.9812L131.327 91.6632C130.818 91.1584 130.274 90.9104 129.654 90.9104C129.145 90.9104 128.712 91.0919 128.349 91.4506C127.986 91.8093 127.805 92.2433 127.805 92.7437C127.805 93.1024 127.876 93.4257 128.061 93.6781C128.207 93.9659 128.424 94.1829 128.716 94.3246C129.008 94.4708 129.336 94.577 129.659 94.577C129.951 94.577 130.238 94.5062 130.495 94.3955C130.751 94.2892 131.004 94.0722 131.296 93.7844L131.986 94.5018C131.588 94.8959 131.225 95.1483 130.862 95.2944C130.499 95.4406 130.101 95.5114 129.663 95.5114C128.827 95.5114 128.137 95.259 127.592 94.7187C127.048 94.1785 126.792 93.4965 126.792 92.7038C126.792 92.1636 126.902 91.6986 127.154 91.2646C127.411 90.8351 127.734 90.5118 128.207 90.2594C128.641 90.007 129.15 89.8653 129.694 89.8653C130.128 89.8653 130.566 89.9716 130.964 90.1531C131.397 90.4055 131.76 90.658 132.052 90.9812ZM134.45 89.9406L135.322 90.3701L134.379 92.2034C134.853 92.2034 135.216 92.385 135.543 92.7083C135.87 93.0315 136.016 93.4257 136.016 93.9305C136.016 94.3999 135.835 94.794 135.508 95.1173C135.18 95.4406 134.782 95.6221 134.309 95.6221C133.835 95.6221 133.402 95.4406 133.074 95.1173C132.747 94.794 132.601 94.3999 132.601 93.9659C132.601 93.7844 132.636 93.6427 132.672 93.4611C132.707 93.2795 132.853 93.0315 133.034 92.6684L134.45 89.9406ZM134.304 93.1378C134.123 93.1378 133.941 93.2087 133.831 93.3548C133.685 93.4965 133.649 93.6781 133.649 93.8596C133.649 94.0766 133.72 94.2538 133.866 94.3645C134.012 94.5062 134.158 94.5815 134.34 94.5815C134.521 94.5815 134.702 94.5106 134.848 94.3645C134.994 94.2183 135.065 94.0412 135.065 93.8242C135.065 93.6072 134.994 93.4301 134.848 93.3194C134.667 93.2087 134.521 93.1378 134.304 93.1378ZM137.645 90.0468H140.184V90.9812H138.406L138.189 91.951C138.26 91.9156 138.299 91.9156 138.37 91.9156H138.552C139.025 91.9156 139.459 92.0972 139.786 92.4204C140.113 92.7437 140.259 93.1733 140.259 93.6781C140.259 94.2183 140.078 94.6479 139.715 95.0066C139.352 95.3653 138.914 95.5468 138.41 95.5468C137.937 95.5468 137.538 95.4007 137.211 95.1527C136.884 94.9003 136.667 94.5416 136.556 94.0722H137.645C137.715 94.2538 137.826 94.36 137.972 94.4663C138.118 94.5372 138.264 94.608 138.406 94.608C138.622 94.608 138.839 94.5372 138.985 94.3556C139.131 94.2139 139.237 93.9969 139.237 93.7445C139.237 93.4921 139.167 93.315 139.021 93.1334C138.875 92.9873 138.693 92.881 138.476 92.881C138.366 92.881 138.26 92.9164 138.149 92.9518C138.038 93.0227 137.932 93.0935 137.822 93.2042L136.985 93.0227L137.645 90.0468ZM142.693 89.9406L143.564 90.3701L142.622 92.2034C143.095 92.2034 143.458 92.385 143.786 92.7083C144.113 93.0315 144.259 93.4257 144.259 93.9305C144.259 94.3999 144.078 94.794 143.75 95.1173C143.423 95.4406 143.025 95.6221 142.551 95.6221C142.078 95.6221 141.644 95.4406 141.317 95.1173C140.989 94.794 140.843 94.3999 140.843 93.9659C140.843 93.7844 140.879 93.6427 140.914 93.4611C140.95 93.2795 141.096 93.0315 141.277 92.6684L142.693 89.9406ZM142.582 93.1378C142.401 93.1378 142.219 93.2087 142.109 93.3548C141.963 93.4965 141.927 93.6781 141.927 93.8596C141.927 94.0766 141.998 94.2538 142.144 94.3645C142.29 94.5062 142.436 94.5815 142.618 94.5815C142.799 94.5815 142.98 94.5106 143.126 94.3645C143.272 94.2183 143.343 94.0412 143.343 93.8242C143.343 93.6072 143.272 93.4301 143.126 93.3194C142.945 93.2087 142.764 93.1378 142.582 93.1378ZM145.887 90.0468H147.414V95.4007H146.396V91.0166H145.272L145.887 90.0468ZM149.228 90.0468H152.785V90.5871L150.351 95.5468L149.48 95.1173L151.515 90.9857H149.228V90.0468ZM154.24 91.7739H153.223C153.258 91.1982 153.44 90.7332 153.767 90.41C154.094 90.0867 154.528 89.9051 155.077 89.9051C155.404 89.9051 155.696 89.976 155.948 90.1221C156.2 90.2683 156.386 90.4454 156.568 90.6978C156.714 90.9502 156.784 91.2381 156.784 91.4905C156.784 91.8137 156.674 92.137 156.492 92.5311C156.311 92.8898 155.984 93.3238 155.475 93.8242L154.855 94.4708H156.78V95.4051H153.077V94.9003L154.749 93.2087C155.147 92.8146 155.439 92.4913 155.55 92.2389C155.696 91.9865 155.767 91.7695 155.767 91.5569C155.767 91.3399 155.696 91.1982 155.55 91.0521C155.404 90.9104 155.223 90.8351 155.006 90.8351C154.789 90.8351 154.608 90.9059 154.462 91.0875C154.311 91.2691 154.24 91.5215 154.24 91.7739ZM158.377 91.7739H157.36C157.395 91.1982 157.576 90.7332 157.904 90.41C158.231 90.0867 158.665 89.9051 159.209 89.9051C159.536 89.9051 159.828 89.976 160.08 90.1221C160.337 90.2683 160.514 90.4454 160.7 90.6978C160.846 90.9502 160.917 91.2381 160.917 91.4905C160.917 91.8137 160.806 92.137 160.625 92.5311C160.443 92.8898 160.116 93.3238 159.607 93.8242L158.988 94.4708H160.912V95.4051H157.209V94.9003L158.881 93.2087C159.28 92.8146 159.572 92.4913 159.682 92.2389C159.828 91.9865 159.899 91.7695 159.899 91.5569C159.899 91.3399 159.828 91.1982 159.682 91.0521C159.536 90.9104 159.355 90.8351 159.138 90.8351C158.921 90.8351 158.74 90.9059 158.594 91.0875C158.452 91.2691 158.377 91.5215 158.377 91.7739ZM120.288 96.9861C120.686 96.9861 121.013 97.0923 121.305 97.2739C121.597 97.4555 121.814 97.7433 121.96 98.1374C122.106 98.5315 122.177 99.0718 122.177 99.7892C122.177 100.507 122.106 101.047 121.92 101.441C121.774 101.835 121.558 102.123 121.266 102.304C121.009 102.486 120.646 102.592 120.248 102.592C119.85 102.592 119.487 102.486 119.23 102.304C118.938 102.123 118.722 101.84 118.576 101.441C118.43 101.047 118.359 100.507 118.359 99.8246C118.359 98.8548 118.505 98.1374 118.832 97.7034C119.199 97.1986 119.708 96.9861 120.288 96.9861ZM120.323 97.9559C120.142 97.9559 119.996 97.9913 119.85 98.1374C119.704 98.2437 119.598 98.4253 119.522 98.7131C119.452 98.9655 119.412 99.3596 119.412 99.8999C119.412 100.582 119.483 101.051 119.664 101.304C119.81 101.556 120.027 101.698 120.283 101.698C120.536 101.698 120.717 101.592 120.863 101.339C121.044 101.051 121.115 100.546 121.115 99.8645C121.115 99.1825 121.044 98.6777 120.863 98.4253C120.797 98.0621 120.58 97.9559 120.323 97.9559ZM126.933 97.0923H130.49V97.6326L128.057 102.592L127.185 102.163L129.221 98.0267H126.933V97.0923ZM132.778 96.9861L133.649 97.4156L132.707 99.2489C133.18 99.2489 133.543 99.4305 133.871 99.7538C134.198 100.077 134.344 100.471 134.344 100.976C134.344 101.445 134.163 101.84 133.835 102.163C133.508 102.486 133.11 102.668 132.636 102.668C132.163 102.668 131.729 102.486 131.402 102.163C131.074 101.84 130.928 101.445 130.928 101.011C130.928 100.83 130.964 100.688 130.999 100.507C131.035 100.325 131.181 100.077 131.362 99.7139L132.778 96.9861ZM132.672 100.183C132.49 100.183 132.309 100.254 132.198 100.4C132.052 100.542 132.017 100.724 132.017 100.905C132.017 101.122 132.088 101.299 132.234 101.41C132.38 101.552 132.526 101.627 132.707 101.627C132.888 101.627 133.07 101.556 133.216 101.41C133.362 101.264 133.433 101.087 133.433 100.87C133.433 100.653 133.362 100.476 133.216 100.365C133.034 100.254 132.853 100.183 132.672 100.183ZM137.937 99.5722C138.193 99.7139 138.37 99.9309 138.516 100.183C138.662 100.436 138.733 100.688 138.733 100.976C138.733 101.299 138.662 101.587 138.516 101.84C138.37 102.092 138.153 102.304 137.901 102.415C137.649 102.557 137.322 102.632 136.884 102.632C136.45 102.632 136.083 102.561 135.831 102.451C135.578 102.309 135.357 102.127 135.216 101.875C135.07 101.623 134.999 101.335 134.999 101.011C134.999 100.724 135.07 100.471 135.18 100.259C135.291 100.042 135.508 99.829 135.724 99.6475C135.578 99.4659 135.432 99.3242 135.362 99.1427C135.291 98.9611 135.251 98.784 135.251 98.567C135.251 98.2791 135.322 98.0267 135.468 97.8141C135.614 97.5972 135.795 97.42 136.047 97.2739C136.304 97.1322 136.592 97.0923 136.884 97.0923C137.211 97.0923 137.463 97.1632 137.72 97.2739C137.976 97.42 138.153 97.5972 138.299 97.8141C138.445 98.0666 138.516 98.319 138.516 98.567C138.516 98.7485 138.481 98.9257 138.41 99.1072C138.264 99.1781 138.153 99.3552 137.937 99.5722ZM136.808 97.9559C136.627 97.9559 136.516 98.0267 136.41 98.1374C136.3 98.2437 136.229 98.3898 136.229 98.567C136.229 98.7485 136.3 98.8902 136.41 98.9965C136.521 99.1028 136.662 99.1781 136.844 99.1781C137.025 99.1781 137.171 99.1072 137.277 98.9965C137.388 98.8902 137.459 98.7441 137.459 98.567C137.459 98.3854 137.388 98.2437 137.277 98.1374C137.136 98.0267 136.99 97.9559 136.808 97.9559ZM136.844 100.112C136.592 100.112 136.37 100.183 136.229 100.329C136.047 100.471 135.977 100.653 135.977 100.87C135.977 101.087 136.047 101.264 136.229 101.41C136.375 101.552 136.592 101.627 136.844 101.627C137.1 101.627 137.317 101.556 137.463 101.41C137.609 101.264 137.68 101.087 137.68 100.87C137.68 100.653 137.609 100.476 137.428 100.329C137.282 100.183 137.1 100.112 136.844 100.112ZM141.06 96.9861L141.932 97.4156L140.989 99.2489C141.463 99.2489 141.826 99.4305 142.153 99.7538C142.48 100.077 142.626 100.471 142.626 100.976C142.626 101.445 142.445 101.84 142.118 102.163C141.79 102.486 141.392 102.668 140.919 102.668C140.445 102.668 140.012 102.486 139.684 102.163C139.357 101.84 139.211 101.445 139.211 101.011C139.211 100.83 139.246 100.688 139.282 100.507C139.317 100.325 139.463 100.077 139.644 99.7139L141.06 96.9861ZM140.914 100.183C140.733 100.183 140.551 100.254 140.441 100.4C140.295 100.542 140.259 100.724 140.259 100.905C140.259 101.122 140.33 101.299 140.476 101.41C140.622 101.552 140.768 101.627 140.95 101.627C141.131 101.627 141.312 101.556 141.458 101.41C141.604 101.264 141.675 101.087 141.675 100.87C141.675 100.653 141.604 100.476 141.458 100.365C141.277 100.254 141.131 100.183 140.914 100.183ZM147.595 97.0923H151.152V97.6326L148.719 102.592L147.847 102.163L149.882 98.0267H147.63V97.0923H147.595ZM153.767 96.9861H154.785V100.436H155.258V101.37H154.785V102.451H153.767V101.37H151.409V100.436L153.767 96.9861ZM153.767 100.436V98.6378L152.533 100.436H153.767ZM157.581 96.9861L158.452 97.4156L157.51 99.2489C157.983 99.2489 158.346 99.4305 158.674 99.7538C159.001 100.077 159.147 100.471 159.147 100.976C159.147 101.445 158.966 101.84 158.638 102.163C158.311 102.486 157.913 102.668 157.439 102.668C156.966 102.668 156.532 102.486 156.205 102.163C155.877 101.84 155.731 101.445 155.731 101.011C155.731 100.83 155.767 100.688 155.802 100.507C155.838 100.325 155.984 100.077 156.165 99.7139L157.581 96.9861ZM157.435 100.183C157.253 100.183 157.072 100.254 156.961 100.4C156.815 100.542 156.78 100.724 156.78 100.905C156.78 101.122 156.851 101.299 156.997 101.41C157.143 101.552 157.289 101.627 157.47 101.627C157.652 101.627 157.833 101.556 157.979 101.41C158.125 101.264 158.196 101.087 158.196 100.87C158.196 100.653 158.125 100.476 157.979 100.365C157.833 100.254 157.652 100.183 157.435 100.183ZM164.987 98.8548H163.969C164.005 98.2791 164.186 97.8141 164.514 97.4909C164.841 97.1676 165.275 96.9861 165.823 96.9861C166.151 96.9861 166.438 97.0569 166.695 97.203C166.947 97.3447 167.133 97.5263 167.314 97.7787C167.46 98.0311 167.531 98.319 167.531 98.5714C167.531 98.8947 167.42 99.2179 167.239 99.6121C167.058 99.9708 166.73 100.405 166.221 100.905L165.606 101.552H167.531V102.486H163.793V101.981L165.465 100.294C165.863 99.8999 166.155 99.5766 166.266 99.3242C166.412 99.0718 166.483 98.8548 166.483 98.6423C166.483 98.4253 166.412 98.2836 166.266 98.1374C166.12 97.9957 165.938 97.9204 165.722 97.9204C165.505 97.9204 165.323 97.9913 165.177 98.1728C165.062 98.35 164.987 98.567 164.987 98.8548ZM120.288 104.032C120.686 104.032 121.013 104.138 121.305 104.319C121.597 104.501 121.814 104.789 121.96 105.183C122.106 105.577 122.177 106.117 122.177 106.835C122.177 107.552 122.106 108.092 121.92 108.486C121.774 108.881 121.558 109.168 121.266 109.35C121.009 109.532 120.646 109.638 120.248 109.638C119.85 109.638 119.487 109.532 119.23 109.35C118.938 109.168 118.722 108.881 118.576 108.486C118.43 108.092 118.359 107.552 118.359 106.87C118.359 105.9 118.505 105.183 118.832 104.749C119.199 104.28 119.708 104.032 120.288 104.032ZM120.323 105.001C120.142 105.001 119.996 105.037 119.85 105.183C119.704 105.289 119.598 105.471 119.522 105.759C119.452 106.011 119.412 106.405 119.412 106.945C119.412 107.627 119.483 108.097 119.664 108.349C119.81 108.602 120.027 108.743 120.283 108.743C120.536 108.743 120.717 108.637 120.863 108.385C121.044 108.097 121.115 107.592 121.115 106.91C121.115 106.228 121.044 105.723 120.863 105.471C120.797 105.143 120.58 105.001 120.323 105.001ZM124.827 104.032H125.845V107.481H126.354V108.416H125.88V109.496H124.863V108.416H122.504V107.481L124.827 104.032ZM124.863 107.481V105.683L123.628 107.481H124.863ZM127.769 105.9H126.752C126.787 105.325 126.969 104.86 127.296 104.536C127.623 104.213 128.057 104.032 128.601 104.032C128.929 104.032 129.221 104.102 129.473 104.249C129.729 104.39 129.906 104.572 130.092 104.824C130.238 105.077 130.309 105.364 130.309 105.617C130.309 105.94 130.198 106.263 130.017 106.658C129.836 107.016 129.508 107.45 128.999 107.951L128.38 108.597H130.305V109.532H126.637V109.027L128.309 107.34C128.707 106.945 128.999 106.622 129.11 106.37C129.256 106.117 129.327 105.9 129.327 105.688C129.327 105.471 129.256 105.329 129.11 105.183C128.964 105.041 128.783 104.966 128.566 104.966C128.349 104.966 128.168 105.037 128.022 105.218C127.876 105.395 127.805 105.612 127.769 105.9ZM155.838 109.638L154.966 109.208L155.908 107.375C155.435 107.375 155.072 107.193 154.745 106.87C154.417 106.547 154.271 106.153 154.271 105.648C154.271 105.178 154.453 104.784 154.78 104.461C155.108 104.138 155.506 103.956 155.979 103.956C156.453 103.956 156.886 104.138 157.214 104.461C157.541 104.784 157.687 105.178 157.687 105.612C157.687 105.794 157.652 105.936 157.616 106.117C157.581 106.299 157.435 106.547 157.253 106.87L155.838 109.638ZM155.948 106.436C156.13 106.436 156.311 106.365 156.422 106.219C156.568 106.077 156.603 105.896 156.603 105.714C156.603 105.497 156.532 105.32 156.386 105.174C156.24 105.032 156.094 104.957 155.913 104.957C155.731 104.957 155.55 105.028 155.404 105.174C155.258 105.316 155.187 105.497 155.187 105.714C155.187 105.931 155.258 106.108 155.404 106.219C155.585 106.365 155.767 106.436 155.948 106.436ZM159.178 104.173H161.717V105.108H159.939L159.722 106.077C159.793 106.077 159.833 106.042 159.904 106.042H160.085C160.558 106.042 160.992 106.224 161.319 106.547C161.647 106.87 161.793 107.3 161.793 107.804C161.793 108.345 161.611 108.774 161.249 109.133C160.886 109.492 160.448 109.673 159.939 109.673C159.465 109.673 159.067 109.527 158.74 109.279C158.413 109.027 158.196 108.668 158.085 108.199H159.173C159.244 108.38 159.355 108.486 159.501 108.593C159.647 108.664 159.793 108.734 159.934 108.734C160.151 108.734 160.368 108.664 160.514 108.482C160.66 108.34 160.766 108.123 160.766 107.871C160.766 107.618 160.695 107.441 160.549 107.26C160.403 107.118 160.222 107.007 160.005 107.007C159.895 107.007 159.788 107.043 159.678 107.078C159.567 107.149 159.461 107.224 159.35 107.331L158.514 107.149L159.178 104.173ZM164.554 104.032H165.571V107.481H166.045V108.416H165.571V109.496H164.554V108.416H162.195V107.481L164.554 104.032ZM164.589 107.481V105.683L163.355 107.481H164.589ZM118.655 132.355H122.212V132.895L119.779 137.855L118.907 137.426L120.943 133.294H118.655V132.355ZM122.792 132.355H126.349V132.895L123.916 137.855L123.044 137.426L125.079 133.294H122.827V132.36H122.792V132.355ZM128.641 132.209L129.513 132.639L128.57 134.472C129.044 134.472 129.406 134.654 129.734 134.977C130.061 135.3 130.207 135.694 130.207 136.199C130.207 136.668 130.026 137.063 129.698 137.386C129.371 137.709 128.973 137.891 128.499 137.891C128.026 137.891 127.592 137.709 127.265 137.386C126.938 137.063 126.792 136.668 126.792 136.234C126.792 136.053 126.827 135.911 126.862 135.73C126.898 135.548 127.044 135.3 127.225 134.937L128.641 132.209ZM128.53 135.446C128.349 135.446 128.168 135.517 128.057 135.663C127.911 135.805 127.876 135.986 127.876 136.168C127.876 136.385 127.946 136.562 128.092 136.673C128.238 136.815 128.384 136.89 128.566 136.89C128.747 136.89 128.929 136.819 129.075 136.673C129.221 136.527 129.291 136.35 129.291 136.133C129.291 135.916 129.221 135.738 129.075 135.628C128.893 135.517 128.712 135.446 128.53 135.446ZM133.831 134.8C134.087 134.941 134.264 135.158 134.41 135.411C134.556 135.663 134.627 135.916 134.627 136.203C134.627 136.527 134.556 136.815 134.41 137.067C134.264 137.319 134.048 137.536 133.791 137.643C133.539 137.784 133.211 137.86 132.773 137.86C132.34 137.86 131.977 137.789 131.72 137.678C131.468 137.536 131.247 137.355 131.101 137.102C130.955 136.85 130.884 136.562 130.884 136.239C130.884 135.951 130.955 135.699 131.066 135.486C131.176 135.269 131.393 135.056 131.61 134.875C131.464 134.693 131.318 134.552 131.247 134.37C131.176 134.189 131.136 134.011 131.136 133.794C131.136 133.507 131.207 133.254 131.353 133.042C131.499 132.825 131.681 132.647 131.933 132.501C132.189 132.36 132.477 132.32 132.769 132.32C133.096 132.32 133.349 132.391 133.605 132.501C133.862 132.643 134.039 132.825 134.185 133.042C134.331 133.294 134.402 133.546 134.402 133.794C134.402 133.976 134.366 134.153 134.291 134.335C134.158 134.441 134.012 134.618 133.831 134.8ZM132.672 133.219C132.49 133.219 132.344 133.29 132.273 133.4C132.163 133.507 132.092 133.653 132.092 133.83C132.092 134.011 132.163 134.153 132.273 134.259C132.384 134.366 132.53 134.441 132.707 134.441C132.888 134.441 133.034 134.37 133.141 134.259C133.251 134.153 133.322 134.007 133.322 133.83C133.322 133.648 133.251 133.507 133.141 133.4C132.999 133.254 132.853 133.219 132.672 133.219ZM132.707 135.335C132.455 135.335 132.234 135.406 132.092 135.552C131.911 135.694 131.835 135.876 131.835 136.093C131.835 136.31 131.906 136.487 132.092 136.633C132.238 136.779 132.455 136.85 132.707 136.85C132.964 136.85 133.18 136.779 133.326 136.633C133.472 136.491 133.543 136.31 133.543 136.093C133.543 135.876 133.472 135.699 133.291 135.552C133.18 135.446 132.959 135.335 132.707 135.335ZM136.919 132.209L137.791 132.639L136.848 134.472C137.322 134.472 137.684 134.654 138.012 134.977C138.339 135.3 138.485 135.694 138.485 136.199C138.485 136.668 138.304 137.063 137.976 137.386C137.649 137.709 137.251 137.891 136.777 137.891C136.304 137.891 135.87 137.709 135.543 137.386C135.216 137.063 135.07 136.668 135.07 136.234C135.07 136.053 135.105 135.911 135.14 135.73C135.176 135.548 135.322 135.3 135.503 134.937L136.919 132.209ZM136.773 135.446C136.592 135.446 136.41 135.517 136.3 135.663C136.154 135.805 136.118 135.986 136.118 136.168C136.118 136.385 136.189 136.562 136.335 136.673C136.481 136.815 136.627 136.89 136.808 136.89C136.99 136.89 137.171 136.819 137.317 136.673C137.463 136.527 137.534 136.35 137.534 136.133C137.534 135.916 137.463 135.738 137.317 135.628C137.171 135.517 136.99 135.446 136.773 135.446ZM140.914 137.855L140.043 137.426L140.985 135.592C140.512 135.592 140.149 135.411 139.821 135.087C139.494 134.764 139.348 134.37 139.348 133.865C139.348 133.396 139.529 133.002 139.857 132.678C140.184 132.355 140.582 132.174 141.056 132.174C141.529 132.174 141.963 132.355 142.29 132.678C142.618 133.002 142.764 133.396 142.764 133.83C142.764 134.011 142.728 134.153 142.693 134.335C142.657 134.516 142.511 134.764 142.33 135.087L140.914 137.855ZM141.02 134.618C141.202 134.618 141.383 134.547 141.494 134.401C141.64 134.259 141.675 134.078 141.675 133.896C141.675 133.679 141.604 133.502 141.458 133.356C141.312 133.21 141.166 133.139 140.985 133.139C140.804 133.139 140.622 133.21 140.476 133.356C140.33 133.498 140.259 133.679 140.259 133.896C140.259 134.113 140.33 134.29 140.476 134.401C140.658 134.547 140.839 134.618 141.02 134.618ZM143.454 132.355H147.011V132.895L144.578 137.855L143.706 137.426L145.741 133.294H143.489V132.36H143.454V132.355ZM149.626 132.209H150.643V135.659H151.117V136.593H150.643V137.674H149.626V136.593H147.268V135.659L149.626 132.209ZM149.666 135.663V133.865L148.431 135.663H149.666ZM153.44 132.209L154.311 132.639L153.369 134.472C153.842 134.472 154.205 134.654 154.532 134.977C154.86 135.3 155.006 135.694 155.006 136.199C155.006 136.668 154.824 137.063 154.497 137.386C154.17 137.709 153.771 137.891 153.298 137.891C152.825 137.891 152.391 137.709 152.064 137.386C151.736 137.063 151.59 136.668 151.59 136.234C151.59 136.053 151.626 135.911 151.661 135.73C151.696 135.548 151.842 135.3 152.024 134.937L153.44 132.209ZM153.333 135.446C153.152 135.446 152.971 135.517 152.86 135.663C152.714 135.805 152.679 135.986 152.679 136.168C152.679 136.385 152.749 136.562 152.895 136.673C153.041 136.815 153.187 136.89 153.369 136.89C153.55 136.89 153.732 136.819 153.878 136.673C154.024 136.527 154.094 136.35 154.094 136.133C154.094 135.916 154.024 135.738 153.878 135.628C153.696 135.517 153.515 135.446 153.333 135.446ZM156.634 132.355H159.178V133.29H157.399L157.183 134.259C157.253 134.259 157.293 134.224 157.364 134.224H157.545C158.019 134.224 158.452 134.406 158.78 134.729C159.107 135.052 159.253 135.482 159.253 135.986C159.253 136.527 159.072 136.956 158.709 137.315C158.346 137.674 157.908 137.855 157.399 137.855C156.926 137.855 156.528 137.709 156.2 137.461C155.873 137.209 155.656 136.85 155.546 136.381H156.634C156.705 136.562 156.815 136.668 156.961 136.775C157.107 136.846 157.253 136.916 157.395 136.916C157.612 136.916 157.833 136.846 157.974 136.664C158.12 136.518 158.231 136.305 158.231 136.053C158.231 135.8 158.16 135.623 158.014 135.442C157.868 135.296 157.687 135.189 157.47 135.189C157.36 135.189 157.253 135.225 157.143 135.26C157.032 135.331 156.926 135.402 156.815 135.513L155.979 135.331L156.634 132.355Z" fill="#A09039"/>
<path d="M92.6312 137.891L109.979 61.7188H93.5471L83.8489 106.896L72.8942 61.7188H60.9131L50.0734 106.896L40.2602 61.7188H23.8281L41.1716 137.891H57.1479L66.8461 94.9986L76.6593 137.891H92.6312Z" fill="#FFFFFD"/>
<defs>
<linearGradient id="paint0_linear" x1="100" y1="0" x2="100" y2="200" gradientUnits="userSpaceOnUse">
<stop stop-color="#323232"/>
<stop offset="1" stop-color="#222222"/>
<stop offset="1"/>
</linearGradient>
<linearGradient id="paint1_linear" x1="100" y1="0" x2="100" y2="200" gradientUnits="userSpaceOnUse">
<stop stop-color="#A09039"/>
<stop offset="1" stop-color="#C0AC3F"/>
</linearGradient>
</defs>
</svg>
