<svg width="165" height="32" viewBox="0 0 165 32" fill="none" xmlns="http://www.w3.org/2000/svg">
<path d="M11.8448 31.2677H8.34229L0 9.01094H5.76318L10.5711 21.8428L15.1562 9.01094H18.1493L22.7343 21.8428L27.5423 9.01094H33.3055L24.9632 31.2677H21.4607L16.6527 18.4677L11.8448 31.2677Z" fill="white"/>
<path d="M36.3622 0.796021H41.3612V11.8766C42.5393 10.2209 44.3224 8.27861 47.9204 8.27861C49.8627 8.27861 52.7602 8.85174 54.5114 11.0169C56.0398 12.9274 56.2627 15.1244 56.2627 17.2896V31.2677H50.3084V19.1363C50.3084 17.8945 50.2448 15.9522 49.1303 14.7741C48.1433 13.7552 46.806 13.6279 46.201 13.6279C44.5453 13.6279 43.2716 14.201 42.3483 15.5702C41.4249 17.003 41.3612 18.595 41.3612 19.9005V31.2677H36.3622V0.796021Z" fill="white"/>
<path d="M63.1721 0C65.2418 0 66.9293 1.68756 66.9293 3.75721C66.9293 5.82687 65.2418 7.51443 63.1721 7.51443C61.1025 7.51443 59.4149 5.82687 59.4149 3.75721C59.4149 1.68756 61.1025 0 63.1721 0Z" fill="#A09039"/>
<path d="M65.9741 12.004V31.2677H60.0199V12.004C60.0199 10.3483 61.3572 9.04279 62.9811 9.04279C64.6368 9.01095 65.9741 10.3483 65.9741 12.004Z" fill="white"/>
<path d="M71.4826 9.01095V1.401H77.1184V9.01095H80.1751V14.3602H77.1184V31.2677H71.4826V14.3602V9.01095Z" fill="white"/>
<path d="M104.947 25.0587C104.279 26.7144 101.763 32 93.994 32C90.396 32 87.6577 30.9811 85.4607 28.8796C83.0089 26.5552 81.9582 23.6896 81.9582 20.1871C81.9582 15.7612 83.7413 13.0547 85.3652 11.4627C87.9761 8.88358 91.0647 8.34229 93.7393 8.34229C98.2607 8.34229 100.872 10.1254 102.432 12.004C104.788 14.8378 105.106 18.9771 105.106 21.3652V21.8746H88.4537C88.4537 23.2119 88.804 24.008 89.5363 24.995C90.205 25.9184 91.606 27.0965 93.994 27.0965C96.3502 27.0965 98.1652 25.9502 99.1841 24.1672L104.947 25.0587ZM99.2159 17.8308C98.7065 14.806 96.2229 13.3731 93.9303 13.3731C91.6378 13.3731 89.2179 14.8696 88.6766 17.8308H99.2159Z" fill="white"/>
<path d="M145.29 1.62387V31.3632H139.495V1.62387H145.29Z" fill="#A09039"/>
<path d="M159.522 6.94128V31.3632H153.727V6.94128H148.314V1.62387H164.935V6.94128H159.522Z" fill="#A09039"/>
<path d="M112.525 1.75124H113.894V1.97413L112.939 3.88458L112.589 3.72537L113.385 2.13333H112.493V1.75124H112.525ZM114.149 1.75124H115.518V1.97413L114.563 3.91642L114.213 3.75721L114.977 2.16517H114.085V1.75124H114.149ZM116.442 1.68756L116.792 1.84677L116.41 2.54726C116.601 2.54726 116.728 2.61094 116.856 2.73831C116.983 2.86567 117.047 3.02487 117.047 3.21592C117.047 3.40696 116.983 3.56617 116.856 3.66169C116.728 3.78905 116.569 3.85274 116.378 3.85274C116.187 3.85274 116.028 3.78905 115.9 3.66169C115.773 3.53433 115.709 3.37512 115.709 3.21592C115.709 3.15224 115.709 3.08856 115.741 3.02487C115.741 2.96119 115.805 2.86567 115.869 2.70647L116.442 1.68756ZM116.378 2.92935C116.314 2.92935 116.251 2.96119 116.187 3.02487C116.123 3.08856 116.123 3.15224 116.123 3.21592C116.123 3.31144 116.155 3.37512 116.219 3.40696C116.283 3.47065 116.346 3.50249 116.41 3.50249C116.474 3.50249 116.537 3.47065 116.601 3.40696C116.665 3.34328 116.696 3.2796 116.696 3.18408C116.696 3.08856 116.665 3.02487 116.601 2.99303C116.537 2.96119 116.442 2.92935 116.378 2.92935ZM118.448 2.70647C118.543 2.77015 118.607 2.83383 118.671 2.92935C118.734 3.02487 118.766 3.1204 118.766 3.24776C118.766 3.37512 118.734 3.47065 118.671 3.59801C118.607 3.69353 118.543 3.78905 118.416 3.82089C118.32 3.88458 118.193 3.91642 118.034 3.91642C117.875 3.91642 117.715 3.88458 117.62 3.85274C117.524 3.78905 117.429 3.72537 117.365 3.62985C117.301 3.53433 117.27 3.40696 117.27 3.2796C117.27 3.15224 117.301 3.05672 117.333 2.99303C117.365 2.89751 117.461 2.83383 117.556 2.77015C117.492 2.70647 117.429 2.64278 117.429 2.5791C117.397 2.51542 117.397 2.45174 117.397 2.35622C117.397 2.22885 117.429 2.13333 117.492 2.06965C117.556 1.97413 117.62 1.91045 117.715 1.84677C117.779 1.75124 117.875 1.7194 118.002 1.7194C118.129 1.7194 118.225 1.75124 118.32 1.78308C118.416 1.84676 118.48 1.91045 118.543 2.00597C118.607 2.10149 118.639 2.19701 118.639 2.32438C118.639 2.38806 118.639 2.45174 118.607 2.54726C118.575 2.54726 118.511 2.61094 118.448 2.70647ZM118.002 2.06965C117.938 2.06965 117.875 2.10149 117.843 2.13333C117.811 2.16517 117.779 2.22885 117.779 2.29254C117.779 2.35622 117.811 2.4199 117.843 2.45174C117.875 2.48358 117.938 2.51542 118.002 2.51542C118.066 2.51542 118.129 2.48358 118.161 2.45174C118.193 2.4199 118.225 2.35622 118.225 2.29254C118.225 2.22885 118.193 2.16517 118.161 2.13333C118.129 2.10149 118.066 2.06965 118.002 2.06965ZM118.002 2.89751C117.906 2.89751 117.811 2.92935 117.747 2.99303C117.684 3.05672 117.652 3.1204 117.652 3.21592C117.652 3.31144 117.684 3.37512 117.747 3.4388C117.811 3.50249 117.875 3.53433 118.002 3.53433C118.097 3.53433 118.193 3.50249 118.257 3.4388C118.32 3.37512 118.352 3.31144 118.352 3.21592C118.352 3.1204 118.32 3.05672 118.257 2.99303C118.193 2.92935 118.097 2.89751 118.002 2.89751ZM119.658 1.68756L120.008 1.84677L119.626 2.54726C119.817 2.54726 119.944 2.61094 120.072 2.73831C120.199 2.86567 120.263 3.02487 120.263 3.21592C120.263 3.40696 120.199 3.56617 120.072 3.66169C119.944 3.78905 119.785 3.85274 119.594 3.85274C119.403 3.85274 119.244 3.78905 119.116 3.66169C118.989 3.53433 118.925 3.37512 118.925 3.21592C118.925 3.15224 118.925 3.08856 118.957 3.02487C118.957 2.96119 119.021 2.86567 119.085 2.70647L119.658 1.68756ZM119.594 2.92935C119.53 2.92935 119.467 2.96119 119.403 3.02487C119.339 3.08856 119.339 3.15224 119.339 3.21592C119.339 3.31144 119.371 3.37512 119.435 3.40696C119.498 3.47065 119.562 3.50249 119.626 3.50249C119.689 3.50249 119.753 3.47065 119.817 3.40696C119.881 3.34328 119.912 3.2796 119.912 3.18408C119.912 3.08856 119.881 3.02487 119.817 2.99303C119.753 2.96119 119.689 2.92935 119.594 2.92935ZM121.186 3.88458L120.836 3.72537L121.218 3.02487C121.027 3.02487 120.868 2.96119 120.74 2.83383C120.613 2.70647 120.549 2.54726 120.549 2.35622C120.549 2.16517 120.613 2.00597 120.74 1.91045C120.868 1.78308 121.027 1.7194 121.218 1.7194C121.409 1.7194 121.568 1.78308 121.695 1.91045C121.823 2.03781 121.886 2.19701 121.886 2.35622C121.886 2.4199 121.886 2.48358 121.855 2.54726C121.855 2.61094 121.791 2.70647 121.727 2.83383L121.186 3.88458ZM121.25 2.64278C121.313 2.64278 121.377 2.61094 121.441 2.54726C121.504 2.48358 121.504 2.4199 121.504 2.35622C121.504 2.2607 121.473 2.19701 121.409 2.13333C121.345 2.06965 121.282 2.03781 121.218 2.03781C121.154 2.03781 121.09 2.06965 121.027 2.13333C120.963 2.19701 120.931 2.2607 120.931 2.35622C120.931 2.45174 120.963 2.51542 121.027 2.54726C121.09 2.61094 121.186 2.64278 121.25 2.64278ZM122.205 1.75124H123.574V1.97413L122.619 3.91642L122.269 3.75721L123.033 2.16517H122.141V1.75124H122.205ZM124.593 1.68756H124.975V3.02487H125.166V3.37512H124.975V3.82089H124.593V3.40696H123.67V3.02487L124.593 1.68756ZM124.593 3.02487V2.32438L124.115 3.02487H124.593ZM126.089 1.68756L126.44 1.84677L126.058 2.54726C126.249 2.54726 126.376 2.61094 126.503 2.73831C126.631 2.86567 126.694 3.02487 126.694 3.21592C126.694 3.40696 126.631 3.56617 126.503 3.66169C126.376 3.78905 126.217 3.85274 126.026 3.85274C125.835 3.85274 125.676 3.78905 125.548 3.66169C125.421 3.53433 125.357 3.37512 125.357 3.21592C125.357 3.15224 125.357 3.08856 125.389 3.02487C125.389 2.96119 125.453 2.86567 125.516 2.70647L126.089 1.68756ZM126.026 2.92935C125.962 2.92935 125.898 2.96119 125.835 3.02487C125.771 3.08856 125.771 3.15224 125.771 3.21592C125.771 3.31144 125.803 3.37512 125.867 3.40696C125.93 3.47065 125.994 3.50249 126.058 3.50249C126.121 3.50249 126.185 3.47065 126.249 3.40696C126.312 3.34328 126.344 3.2796 126.344 3.18408C126.344 3.08856 126.312 3.02487 126.249 2.99303C126.185 2.96119 126.089 2.92935 126.026 2.92935ZM127.331 1.75124H128.318V2.10149H127.618L127.554 2.48358C127.586 2.48358 127.586 2.48358 127.618 2.48358H127.682C127.873 2.48358 128.032 2.54726 128.159 2.67463C128.286 2.80199 128.35 2.96119 128.35 3.15224C128.35 3.37512 128.286 3.53433 128.127 3.66169C128 3.78905 127.809 3.88458 127.618 3.88458C127.427 3.88458 127.268 3.82089 127.14 3.72537C127.013 3.62985 126.917 3.50249 126.885 3.31144H127.299C127.331 3.37512 127.363 3.4388 127.427 3.47065C127.49 3.50249 127.554 3.53433 127.586 3.53433C127.682 3.53433 127.745 3.50249 127.809 3.4388C127.873 3.37512 127.904 3.31144 127.904 3.21592C127.904 3.1204 127.873 3.05672 127.809 2.99303C127.745 2.92935 127.682 2.89751 127.586 2.89751C127.554 2.89751 127.49 2.89751 127.459 2.92935C127.427 2.96119 127.363 2.99303 127.331 3.02487L127.013 2.96119L127.331 1.75124ZM125.739 5.15821H125.357C125.357 4.93532 125.453 4.74428 125.58 4.61691C125.707 4.48955 125.867 4.42587 126.089 4.42587C126.217 4.42587 126.344 4.45771 126.44 4.52139C126.535 4.58507 126.599 4.64875 126.694 4.74428C126.758 4.8398 126.79 4.96716 126.79 5.06269C126.79 5.19005 126.758 5.31741 126.663 5.47662C126.599 5.60398 126.472 5.79502 126.281 5.98607L126.026 6.24079H126.79V6.59104H125.357V6.4L125.994 5.73134C126.153 5.57214 126.249 5.44477 126.312 5.34925C126.376 5.25373 126.408 5.15821 126.408 5.09453C126.408 4.999 126.376 4.96716 126.312 4.90348C126.249 4.8398 126.185 4.80796 126.089 4.80796C125.994 4.80796 125.93 4.8398 125.867 4.90348C125.771 4.96716 125.739 5.06269 125.739 5.15821ZM127.65 4.42587C127.809 4.42587 127.936 4.45771 128.032 4.55323C128.159 4.61691 128.223 4.74428 128.286 4.90348C128.35 5.06269 128.382 5.25373 128.382 5.5403C128.382 5.82686 128.35 6.01791 128.286 6.17711C128.223 6.33632 128.159 6.43184 128.032 6.52736C127.936 6.59104 127.777 6.65473 127.65 6.65473C127.49 6.65473 127.363 6.62288 127.268 6.52736C127.14 6.46368 127.077 6.33632 127.013 6.17711C126.949 6.01791 126.917 5.82686 126.917 5.5403C126.917 5.15821 126.981 4.87164 127.108 4.71244C127.236 4.52139 127.427 4.42587 127.65 4.42587ZM127.65 4.80796C127.586 4.80796 127.522 4.80796 127.459 4.87164C127.395 4.90348 127.363 4.999 127.331 5.09453C127.299 5.19005 127.299 5.34925 127.299 5.5403C127.299 5.79502 127.331 5.98607 127.395 6.08159C127.459 6.17711 127.522 6.24079 127.65 6.24079C127.745 6.24079 127.809 6.20895 127.873 6.11343C127.936 5.98607 127.968 5.79502 127.968 5.5403C127.968 5.28557 127.936 5.09453 127.873 4.96716C127.841 4.87164 127.745 4.80796 127.65 4.80796ZM128.605 4.48955H129.974V4.71244L129.019 6.65473L128.669 6.49552L129.465 4.90348H128.637L128.605 4.48955ZM130.229 4.48955H131.598V4.71244L130.643 6.65473L130.292 6.49552L131.088 4.90348H130.229V4.48955ZM117.97 9.36119L117.62 9.20199L118.002 8.50149C117.811 8.50149 117.684 8.43781 117.556 8.31045C117.429 8.18308 117.365 8.02388 117.365 7.83283C117.365 7.64179 117.429 7.48259 117.556 7.38706C117.684 7.2597 117.843 7.19602 118.034 7.19602C118.225 7.19602 118.384 7.2597 118.511 7.38706C118.639 7.51443 118.702 7.67363 118.702 7.83283C118.702 7.89652 118.702 7.9602 118.671 8.02388C118.671 8.08756 118.607 8.18308 118.543 8.31045L117.97 9.36119ZM118.034 8.1194C118.097 8.1194 118.161 8.08756 118.225 8.02388C118.288 7.9602 118.288 7.89652 118.288 7.83283C118.288 7.73731 118.257 7.67363 118.193 7.60995C118.129 7.54627 118.066 7.51443 118.002 7.51443C117.938 7.51443 117.875 7.54627 117.811 7.60995C117.747 7.67363 117.715 7.73731 117.715 7.83283C117.715 7.92836 117.747 7.99204 117.811 8.02388C117.906 8.08756 117.938 8.1194 118.034 8.1194ZM129.91 12.6726C130.07 12.6726 130.197 12.7045 130.292 12.8C130.42 12.8637 130.484 12.991 130.547 13.1502C130.611 13.3095 130.643 13.5005 130.643 13.7871C130.643 14.0736 130.611 14.2647 130.547 14.4239C130.484 14.5831 130.42 14.6786 130.292 14.7741C130.197 14.8378 130.038 14.9015 129.91 14.9015C129.751 14.9015 129.624 14.8697 129.528 14.7741C129.401 14.7104 129.337 14.5831 129.274 14.4239C129.21 14.2647 129.178 14.0736 129.178 13.7871C129.178 13.405 129.242 13.1184 129.369 12.9592C129.496 12.7363 129.656 12.6726 129.91 12.6726ZM129.91 13.0547C129.847 13.0547 129.783 13.0547 129.719 13.1184C129.656 13.1502 129.624 13.2458 129.592 13.3413C129.56 13.4368 129.56 13.596 129.56 13.7871C129.56 14.0418 129.592 14.2328 129.656 14.3284C129.719 14.4239 129.783 14.4876 129.91 14.4876C130.006 14.4876 130.07 14.4557 130.133 14.3602C130.197 14.2328 130.229 14.0418 130.229 13.7871C130.229 13.5323 130.197 13.3413 130.133 13.2139C130.101 13.0866 130.006 13.0547 129.91 13.0547ZM114.149 15.4428H115.518V15.6657L114.563 17.608L114.213 17.4488L115.009 15.8567H114.117L114.149 15.4428ZM122.81 17.5761L122.46 17.4169L122.842 16.7164C122.651 16.7164 122.523 16.6527 122.396 16.5254C122.269 16.398 122.205 16.2388 122.205 16.0478C122.205 15.8567 122.269 15.6975 122.396 15.602C122.523 15.4746 122.683 15.4109 122.874 15.4109C123.065 15.4109 123.224 15.4746 123.351 15.602C123.479 15.7294 123.542 15.8886 123.542 16.0478C123.542 16.1114 123.542 16.1751 123.51 16.2388C123.51 16.3025 123.447 16.398 123.383 16.5254L122.81 17.5761ZM122.842 16.3343C122.905 16.3343 122.969 16.3025 123.033 16.2388C123.096 16.1751 123.096 16.1114 123.096 16.0478C123.096 15.9522 123.065 15.8886 123.001 15.8249C122.937 15.7612 122.874 15.7294 122.81 15.7294C122.746 15.7294 122.683 15.7612 122.619 15.8249C122.555 15.8886 122.523 15.9522 122.523 16.0478C122.523 16.1433 122.555 16.207 122.619 16.2388C122.714 16.3025 122.778 16.3343 122.842 16.3343ZM128.923 15.4428H129.91V15.793H129.21L129.114 16.1751C129.146 16.1751 129.146 16.1751 129.178 16.1751H129.242C129.433 16.1751 129.592 16.2388 129.719 16.3662C129.847 16.4935 129.91 16.6527 129.91 16.8438C129.91 17.0667 129.847 17.2259 129.687 17.3532C129.56 17.4806 129.369 17.5761 129.178 17.5761C128.987 17.5761 128.828 17.5124 128.7 17.4169C128.573 17.3214 128.478 17.194 128.446 17.003H128.86C128.891 17.0667 128.923 17.1303 128.987 17.1622C129.051 17.194 129.114 17.2259 129.146 17.2259C129.242 17.2259 129.305 17.194 129.369 17.1303C129.433 17.0667 129.465 17.003 129.465 16.9075C129.465 16.8119 129.433 16.7483 129.369 16.6846C129.305 16.6209 129.242 16.5891 129.146 16.5891C129.114 16.5891 129.051 16.5891 129.019 16.6209C128.987 16.6527 128.923 16.6846 128.891 16.7164L128.573 16.6527L128.923 15.4428ZM118.161 18.1493H118.543V19.4866H118.734V19.8368H118.543V20.2507H118.161V19.8368H117.238V19.4866L118.161 18.1493ZM118.161 19.4866V18.7861L117.684 19.4866H118.161ZM131.534 18.8816H131.152C131.152 18.6587 131.248 18.4677 131.375 18.3403C131.502 18.2129 131.662 18.1493 131.885 18.1493C132.012 18.1493 132.139 18.1811 132.235 18.2448C132.33 18.3085 132.394 18.3721 132.489 18.4677C132.553 18.5632 132.585 18.6905 132.585 18.7861C132.585 18.9134 132.553 19.0408 132.458 19.2C132.394 19.3274 132.267 19.5184 132.076 19.7095L131.821 19.9642H132.585V20.3144H131.12V20.1234L131.757 19.4547C131.916 19.2955 132.012 19.1682 132.076 19.0726C132.139 18.9771 132.171 18.8816 132.171 18.8179C132.171 18.7224 132.139 18.6905 132.076 18.6269C132.012 18.5632 131.948 18.5313 131.853 18.5313C131.757 18.5313 131.693 18.5632 131.63 18.6269C131.598 18.6587 131.534 18.7542 131.534 18.8816ZM133.477 18.1493C133.636 18.1493 133.763 18.1811 133.859 18.2766C133.986 18.3403 134.05 18.4677 134.113 18.6269C134.177 18.7861 134.209 18.9771 134.209 19.2637C134.209 19.5502 134.177 19.7413 134.113 19.9005C134.05 20.0597 133.986 20.1552 133.859 20.2507C133.763 20.3144 133.604 20.3781 133.477 20.3781C133.317 20.3781 133.19 20.3463 133.094 20.2507C132.967 20.1871 132.903 20.0597 132.84 19.9005C132.776 19.7413 132.744 19.5502 132.744 19.2637C132.744 18.8816 132.808 18.595 132.935 18.4358C133.031 18.2448 133.222 18.1493 133.477 18.1493ZM133.477 18.5313C133.413 18.5313 133.349 18.5313 133.286 18.595C133.222 18.6269 133.19 18.7224 133.158 18.8179C133.126 18.9134 133.126 19.0726 133.126 19.2637C133.126 19.5184 133.158 19.7095 133.222 19.805C133.285 19.9005 133.349 19.9642 133.477 19.9642C133.572 19.9642 133.636 19.9323 133.699 19.8368C133.763 19.7095 133.795 19.5184 133.795 19.2637C133.795 19.009 133.763 18.8179 133.699 18.6905C133.636 18.5632 133.572 18.5313 133.477 18.5313ZM112.525 20.9512H113.894V21.1741L112.939 23.1164L112.589 22.9572L113.385 21.3652H112.493V20.9512H112.525ZM114.149 20.9512H115.518V21.1741L114.563 23.1164L114.213 22.9572L115.009 21.3652H114.117L114.149 20.9512ZM116.442 20.8876L116.792 21.0468L116.41 21.7473C116.601 21.7473 116.728 21.8109 116.856 21.9383C116.983 22.0657 117.047 22.2249 117.047 22.4159C117.047 22.607 116.983 22.7662 116.856 22.8617C116.728 22.9891 116.569 23.0527 116.378 23.0527C116.187 23.0527 116.028 22.9891 115.9 22.8617C115.773 22.7343 115.709 22.5751 115.709 22.4159C115.709 22.3522 115.709 22.2886 115.741 22.2249C115.741 22.1612 115.805 22.0657 115.869 21.9065L116.442 20.8876ZM116.378 22.1294C116.314 22.1294 116.251 22.1612 116.187 22.2249C116.123 22.2886 116.123 22.3522 116.123 22.4159C116.123 22.5114 116.155 22.5751 116.219 22.607C116.283 22.6706 116.346 22.7025 116.41 22.7025C116.474 22.7025 116.537 22.6706 116.601 22.607C116.665 22.5433 116.696 22.4796 116.696 22.3841C116.696 22.2886 116.665 22.2249 116.601 22.193C116.537 22.1612 116.442 22.1294 116.378 22.1294ZM118.448 21.8746C118.543 21.9383 118.607 22.002 118.671 22.0975C118.734 22.193 118.766 22.2886 118.766 22.4159C118.766 22.5433 118.734 22.6388 118.671 22.7662C118.607 22.8617 118.543 22.9572 118.416 22.9891C118.32 23.0527 118.193 23.0846 118.034 23.0846C117.875 23.0846 117.715 23.0527 117.62 23.0209C117.524 22.9572 117.429 22.8935 117.365 22.798C117.301 22.7025 117.27 22.5751 117.27 22.4478C117.27 22.3204 117.301 22.2249 117.333 22.1612C117.365 22.0657 117.461 22.002 117.556 21.9383C117.492 21.8746 117.429 21.8109 117.429 21.7473C117.397 21.6836 117.397 21.6199 117.397 21.5244C117.397 21.397 117.429 21.3015 117.492 21.2378C117.556 21.1423 117.62 21.0786 117.715 21.0149C117.811 20.9512 117.938 20.9512 118.034 20.9512C118.161 20.9512 118.257 20.9831 118.352 21.0149C118.448 21.0786 118.511 21.1423 118.575 21.2378C118.639 21.3333 118.671 21.4289 118.671 21.5244C118.671 21.5881 118.671 21.6517 118.639 21.7473C118.575 21.7473 118.511 21.8109 118.448 21.8746ZM118.002 21.2697C117.938 21.2697 117.875 21.3015 117.843 21.3333C117.811 21.3652 117.779 21.4289 117.779 21.4925C117.779 21.5562 117.811 21.6199 117.843 21.6517C117.875 21.6836 117.938 21.7154 118.002 21.7154C118.066 21.7154 118.129 21.6836 118.161 21.6517C118.193 21.6199 118.225 21.5562 118.225 21.4925C118.225 21.4289 118.193 21.3652 118.161 21.3333C118.129 21.3015 118.066 21.2697 118.002 21.2697ZM118.002 22.0975C117.906 22.0975 117.811 22.1293 117.747 22.193C117.684 22.2567 117.652 22.3204 117.652 22.4159C117.652 22.5114 117.684 22.5751 117.747 22.6388C117.811 22.7025 117.875 22.7343 118.002 22.7343C118.097 22.7343 118.193 22.7025 118.257 22.6388C118.32 22.5751 118.352 22.5114 118.352 22.4159C118.352 22.3204 118.32 22.2567 118.257 22.193C118.193 22.1293 118.097 22.0975 118.002 22.0975ZM127.873 20.8876L128.223 21.0468L127.841 21.7473C128.032 21.7473 128.159 21.8109 128.286 21.9383C128.414 22.0657 128.478 22.2249 128.478 22.4159C128.478 22.607 128.414 22.7662 128.286 22.8617C128.159 22.9891 128 23.0527 127.809 23.0527C127.618 23.0527 127.459 22.9891 127.331 22.8617C127.204 22.7343 127.14 22.5751 127.14 22.4159C127.14 22.3522 127.14 22.2886 127.172 22.2249C127.172 22.1612 127.236 22.0657 127.299 21.9065L127.873 20.8876ZM127.841 22.1294C127.777 22.1294 127.713 22.1612 127.65 22.2249C127.586 22.2886 127.586 22.3522 127.586 22.4159C127.586 22.5114 127.618 22.5751 127.682 22.607C127.745 22.6706 127.809 22.7025 127.873 22.7025C127.936 22.7025 128 22.6706 128.064 22.607C128.127 22.5433 128.159 22.4796 128.159 22.3841C128.159 22.2886 128.127 22.2249 128.064 22.193C128 22.1612 127.904 22.1294 127.841 22.1294ZM129.433 23.0527L129.083 22.8935L129.465 22.193C129.274 22.193 129.146 22.1294 129.019 22.002C128.891 21.8746 128.828 21.7154 128.828 21.5244C128.828 21.3333 128.891 21.1741 129.019 21.0786C129.146 20.9512 129.305 20.8876 129.496 20.8876C129.687 20.8876 129.847 20.9512 129.974 21.0786C130.101 21.206 130.165 21.3652 130.165 21.5244C130.165 21.5881 130.165 21.6517 130.133 21.7154C130.133 21.7791 130.07 21.8746 130.006 22.002L129.433 23.0527ZM129.496 21.8109C129.56 21.8109 129.624 21.7791 129.687 21.7154C129.751 21.6517 129.751 21.5881 129.751 21.5244C129.751 21.4289 129.719 21.3652 129.656 21.3015C129.592 21.2378 129.528 21.206 129.465 21.206C129.401 21.206 129.337 21.2378 129.274 21.3015C129.21 21.3652 129.178 21.4289 129.178 21.5244C129.178 21.6199 129.21 21.6836 129.274 21.7154C129.337 21.7791 129.401 21.8109 129.496 21.8109ZM130.42 20.9512H131.789V21.1741L130.834 23.1164L130.484 22.9572L131.28 21.3652H130.388L130.42 20.9512ZM132.84 20.8876H133.222V22.2249H133.413V22.5751H133.222V22.9891H132.84V22.5751H131.916V22.2249L132.84 20.8876ZM132.84 22.2249V21.5244L132.362 22.2249H132.84ZM134.304 20.8876L134.655 21.0468L134.273 21.7473C134.464 21.7473 134.591 21.8109 134.718 21.9383C134.846 22.0657 134.909 22.2249 134.909 22.4159C134.909 22.607 134.846 22.7662 134.718 22.8617C134.591 22.9891 134.432 23.0527 134.241 23.0527C134.05 23.0527 133.89 22.9891 133.763 22.8617C133.636 22.7343 133.572 22.5751 133.572 22.4159C133.572 22.3522 133.572 22.2886 133.604 22.2249C133.604 22.1612 133.668 22.0657 133.731 21.9065L134.304 20.8876ZM134.273 22.1294C134.209 22.1294 134.145 22.1612 134.082 22.2249C134.018 22.2886 134.018 22.3522 134.018 22.4159C134.018 22.5114 134.05 22.5751 134.113 22.607C134.177 22.6706 134.241 22.7025 134.304 22.7025C134.368 22.7025 134.432 22.6706 134.495 22.607C134.559 22.5433 134.591 22.4796 134.591 22.3841C134.591 22.2886 134.559 22.2249 134.495 22.193C134.4 22.1612 134.336 22.1294 134.273 22.1294ZM112.844 23.6896H113.831V24.0398H113.13L113.035 24.4219C113.067 24.4219 113.067 24.4219 113.098 24.4219H113.162C113.353 24.4219 113.512 24.4856 113.64 24.6129C113.767 24.7403 113.831 24.8995 113.831 25.0905C113.831 25.3134 113.767 25.4726 113.608 25.6C113.481 25.7274 113.289 25.8229 113.098 25.8229C112.907 25.8229 112.748 25.7592 112.621 25.6637C112.493 25.5682 112.398 25.4408 112.366 25.2498H112.78C112.812 25.3134 112.844 25.3771 112.907 25.409C112.971 25.4408 113.035 25.4726 113.067 25.4726C113.162 25.4726 113.226 25.4408 113.289 25.3771C113.353 25.3134 113.385 25.2497 113.385 25.1542C113.385 25.0587 113.353 24.995 113.289 24.9313C113.226 24.8677 113.162 24.8358 113.067 24.8358C113.035 24.8358 112.971 24.8358 112.939 24.8677C112.907 24.8995 112.844 24.9313 112.812 24.9632L112.493 24.8995L112.844 23.6896ZM114.499 24.3582H114.117C114.117 24.1353 114.213 23.9443 114.34 23.8169C114.468 23.6896 114.627 23.6259 114.85 23.6259C114.977 23.6259 115.104 23.6577 115.2 23.7214C115.295 23.7851 115.359 23.8488 115.455 23.9443C115.518 24.0398 115.55 24.1672 115.55 24.2627C115.55 24.39 115.518 24.5174 115.423 24.6766C115.359 24.804 115.232 24.995 115.041 25.1861L114.786 25.4408H115.55V25.791H114.117V25.6L114.754 24.9313C114.913 24.7721 115.009 24.6448 115.073 24.5492C115.136 24.4537 115.168 24.3582 115.168 24.2945C115.168 24.199 115.136 24.1672 115.073 24.1035C115.009 24.0398 114.945 24.008 114.85 24.008C114.754 24.008 114.69 24.0398 114.627 24.1035C114.531 24.1353 114.499 24.2308 114.499 24.3582ZM116.41 23.6259C116.569 23.6259 116.696 23.6577 116.792 23.7532C116.919 23.8169 116.983 23.9443 117.047 24.1035C117.11 24.2627 117.142 24.4537 117.142 24.7403C117.142 25.0269 117.11 25.2179 117.047 25.3771C116.983 25.5363 116.919 25.6318 116.792 25.7274C116.696 25.791 116.537 25.8547 116.41 25.8547C116.251 25.8547 116.123 25.8229 116.028 25.7274C115.9 25.6637 115.837 25.5363 115.773 25.3771C115.709 25.2179 115.678 25.0269 115.678 24.7403C115.678 24.3582 115.741 24.0716 115.869 23.9124C115.964 23.7214 116.155 23.6259 116.41 23.6259ZM116.41 24.008C116.346 24.008 116.283 24.008 116.219 24.0716C116.155 24.1035 116.123 24.199 116.091 24.2945C116.06 24.39 116.06 24.5492 116.06 24.7403C116.06 24.995 116.091 25.1861 116.155 25.2816C116.219 25.3771 116.283 25.4408 116.41 25.4408C116.505 25.4408 116.569 25.409 116.633 25.3134C116.696 25.1861 116.728 24.995 116.728 24.7403C116.728 24.4856 116.696 24.2945 116.633 24.1672C116.569 24.0398 116.505 24.008 116.41 24.008ZM118.034 23.6259L118.384 23.7851L118.002 24.4856C118.193 24.4856 118.32 24.5493 118.448 24.6766C118.575 24.804 118.639 24.9632 118.639 25.1542C118.639 25.3453 118.575 25.5045 118.448 25.6C118.32 25.6955 118.161 25.791 117.97 25.791C117.779 25.791 117.62 25.7274 117.492 25.6C117.365 25.4726 117.301 25.3134 117.301 25.1542C117.301 25.0905 117.301 25.0269 117.333 24.9632C117.333 24.8995 117.397 24.804 117.461 24.6448L118.034 23.6259ZM118.002 24.8677C117.938 24.8677 117.875 24.8995 117.811 24.9632C117.747 25.0269 117.747 25.0905 117.747 25.1542C117.747 25.2497 117.779 25.3134 117.843 25.3453C117.906 25.409 117.97 25.4408 118.034 25.4408C118.097 25.4408 118.161 25.409 118.225 25.3453C118.288 25.2816 118.32 25.2179 118.32 25.1224C118.32 25.0269 118.288 24.9632 118.225 24.9313C118.129 24.8995 118.066 24.8677 118.002 24.8677ZM127.013 25.791L126.663 25.6318L127.045 24.9313C126.854 24.9313 126.726 24.8677 126.599 24.7403C126.472 24.6129 126.408 24.4537 126.408 24.2627C126.408 24.0716 126.472 23.9124 126.599 23.8169C126.726 23.6896 126.886 23.6259 127.077 23.6259C127.268 23.6259 127.427 23.6896 127.554 23.8169C127.682 23.9443 127.745 24.1035 127.745 24.2627C127.745 24.3264 127.745 24.39 127.713 24.4537C127.713 24.5174 127.65 24.6129 127.586 24.7403L127.013 25.791ZM127.045 24.5492C127.108 24.5492 127.172 24.5174 127.236 24.4537C127.299 24.39 127.299 24.3264 127.299 24.2627C127.299 24.1672 127.268 24.1035 127.204 24.0398C127.14 23.9761 127.077 23.9443 127.013 23.9443C126.949 23.9443 126.885 23.9761 126.822 24.0398C126.758 24.1035 126.726 24.1672 126.726 24.2627C126.726 24.3582 126.758 24.4219 126.822 24.4537C126.917 24.5174 126.981 24.5492 127.045 24.5492ZM128 23.6896H129.369V23.8806L128.414 25.8229L128.064 25.6637L128.86 24.0716H128V23.6896ZM130.006 24.199H129.624C129.624 24.0398 129.687 23.9124 129.783 23.8488C129.91 23.7214 130.07 23.6577 130.261 23.6577C130.42 23.6577 130.579 23.7214 130.706 23.8169C130.834 23.9443 130.866 24.0398 130.866 24.199C130.866 24.2945 130.834 24.39 130.802 24.4537C130.738 24.5174 130.675 24.5811 130.579 24.6448C130.706 24.6766 130.802 24.7403 130.866 24.8358C130.929 24.9313 130.993 25.0587 130.993 25.1861C130.993 25.3771 130.929 25.5363 130.77 25.6637C130.643 25.791 130.452 25.8547 130.229 25.8547C130.038 25.8547 129.847 25.791 129.719 25.6637C129.592 25.5363 129.528 25.3771 129.496 25.1542H129.879C129.879 25.2816 129.942 25.3453 130.006 25.3771C130.07 25.4408 130.133 25.4726 130.229 25.4726C130.324 25.4726 130.388 25.4408 130.452 25.3771C130.515 25.3134 130.547 25.2497 130.547 25.1542C130.547 25.0587 130.515 24.995 130.42 24.9313C130.324 24.8677 130.229 24.8358 130.07 24.8358V24.4856C130.165 24.4856 130.229 24.4537 130.292 24.4537C130.324 24.4219 130.388 24.39 130.42 24.3582C130.452 24.3264 130.452 24.2627 130.452 24.2308C130.452 24.1672 130.452 24.1353 130.388 24.1035C130.356 24.0716 130.292 24.0398 130.229 24.0398C130.165 24.0398 130.101 24.0398 130.07 24.1035C130.038 24.0716 130.006 24.1353 130.006 24.199ZM131.534 24.3582H131.152C131.152 24.1353 131.248 23.9443 131.375 23.8169C131.502 23.6896 131.662 23.6259 131.885 23.6259C132.012 23.6259 132.139 23.6577 132.235 23.7214C132.33 23.7851 132.394 23.8488 132.489 23.9443C132.553 24.0398 132.585 24.1672 132.585 24.2627C132.585 24.39 132.553 24.5174 132.458 24.6766C132.394 24.804 132.267 24.995 132.076 25.1861L131.821 25.4408H132.585V25.791H131.12V25.6L131.757 24.9313C131.916 24.7721 132.012 24.6448 132.076 24.5492C132.139 24.4537 132.171 24.3582 132.171 24.2945C132.171 24.199 132.139 24.1672 132.076 24.1035C132.012 24.0398 131.948 24.008 131.853 24.008C131.757 24.008 131.693 24.0398 131.63 24.1035C131.598 24.1353 131.534 24.2308 131.534 24.3582ZM133.477 23.6259C133.636 23.6259 133.763 23.6577 133.859 23.7532C133.986 23.8169 134.05 23.9443 134.113 24.1035C134.177 24.2627 134.209 24.4537 134.209 24.7403C134.209 25.0269 134.177 25.2179 134.113 25.3771C134.05 25.5363 133.986 25.6318 133.859 25.7274C133.763 25.791 133.604 25.8547 133.477 25.8547C133.317 25.8547 133.19 25.8229 133.094 25.7274C132.967 25.6637 132.903 25.5363 132.84 25.3771C132.776 25.2179 132.744 25.0269 132.744 24.7403C132.744 24.3582 132.808 24.0716 132.935 23.9124C133.031 23.7214 133.222 23.6259 133.477 23.6259ZM133.477 24.008C133.413 24.008 133.349 24.008 133.286 24.0716C133.222 24.1035 133.19 24.199 133.158 24.2945C133.126 24.39 133.126 24.5492 133.126 24.7403C133.126 24.995 133.158 25.1861 133.222 25.2816C133.285 25.3771 133.349 25.4408 133.477 25.4408C133.572 25.4408 133.636 25.409 133.699 25.3134C133.763 25.1861 133.795 24.995 133.795 24.7403C133.795 24.4856 133.763 24.2945 133.699 24.1672C133.636 24.0398 133.572 24.008 133.477 24.008ZM113.226 26.3642L113.576 26.5234L113.194 27.2239C113.385 27.2239 113.512 27.2876 113.64 27.4149C113.767 27.5423 113.831 27.7015 113.831 27.8925C113.831 28.0836 113.767 28.2428 113.64 28.3383C113.512 28.4657 113.353 28.5294 113.162 28.5294C112.971 28.5294 112.812 28.4657 112.684 28.3383C112.557 28.2109 112.493 28.0517 112.493 27.8925C112.493 27.8289 112.493 27.7652 112.525 27.7015C112.525 27.6378 112.589 27.5423 112.653 27.3831L113.226 26.3642ZM113.162 27.606C113.098 27.606 113.035 27.6378 112.971 27.7015C112.907 27.7652 112.907 27.8289 112.907 27.8925C112.907 27.9881 112.939 28.0517 113.003 28.0836C113.067 28.1473 113.13 28.1791 113.194 28.1791C113.258 28.1791 113.321 28.1473 113.385 28.0836C113.449 28.0199 113.481 27.9562 113.481 27.8607C113.481 27.7652 113.449 27.7015 113.385 27.6696C113.289 27.6378 113.258 27.606 113.162 27.606ZM114.531 26.9373H114.149C114.149 26.7781 114.213 26.6507 114.308 26.5871C114.436 26.4597 114.595 26.396 114.786 26.396C114.945 26.396 115.104 26.4597 115.232 26.5552C115.359 26.6826 115.391 26.7781 115.391 26.9373C115.391 27.0328 115.359 27.1284 115.327 27.192C115.264 27.2557 115.2 27.3194 115.104 27.3831C115.232 27.4149 115.327 27.4786 115.391 27.5741C115.455 27.6696 115.518 27.797 115.518 27.9244C115.518 28.1154 115.455 28.2746 115.295 28.402C115.168 28.5294 114.977 28.593 114.754 28.593C114.563 28.593 114.372 28.5294 114.245 28.402C114.117 28.2746 114.054 28.1154 114.022 27.8925H114.404C114.404 28.0199 114.468 28.0836 114.531 28.1154C114.595 28.1791 114.659 28.2109 114.754 28.2109C114.85 28.2109 114.913 28.1791 114.977 28.1154C115.041 28.0517 115.073 27.9881 115.073 27.8925C115.073 27.797 115.041 27.7333 114.945 27.6696C114.85 27.606 114.754 27.5741 114.595 27.5741V27.2239C114.69 27.2239 114.754 27.192 114.818 27.192C114.85 27.1602 114.913 27.1284 114.945 27.0965C114.977 27.0647 114.977 27.001 114.977 26.9692C114.977 26.9055 114.977 26.8736 114.913 26.8418C114.882 26.8099 114.818 26.7781 114.754 26.7781C114.69 26.7781 114.627 26.7781 114.595 26.8418C114.563 26.8418 114.531 26.8736 114.531 26.9373ZM116.442 26.3642L116.792 26.5234L116.41 27.2239C116.601 27.2239 116.728 27.2876 116.856 27.4149C116.983 27.5423 117.047 27.7015 117.047 27.8925C117.047 28.0836 116.983 28.2428 116.856 28.3383C116.728 28.4657 116.569 28.5294 116.378 28.5294C116.187 28.5294 116.028 28.4657 115.9 28.3383C115.773 28.2109 115.709 28.0517 115.709 27.8925C115.709 27.8289 115.709 27.7652 115.741 27.7015C115.741 27.6378 115.805 27.5423 115.869 27.3831L116.442 26.3642ZM116.378 27.606C116.314 27.606 116.251 27.6378 116.187 27.7015C116.123 27.7652 116.123 27.8289 116.123 27.8925C116.123 27.9881 116.155 28.0517 116.219 28.0836C116.283 28.1473 116.346 28.1791 116.41 28.1791C116.474 28.1791 116.537 28.1473 116.601 28.0836C116.665 28.0199 116.696 27.9562 116.696 27.8607C116.696 27.7652 116.665 27.7015 116.601 27.6696C116.537 27.6378 116.442 27.606 116.378 27.606ZM119.371 26.7781L119.085 27.0328C118.893 26.8418 118.671 26.7463 118.448 26.7463C118.257 26.7463 118.066 26.8099 117.938 26.9692C117.811 27.0965 117.715 27.2876 117.715 27.4786C117.715 27.606 117.747 27.7333 117.811 27.8289C117.875 27.9562 117.938 28.0199 118.066 28.0836C118.193 28.1473 118.32 28.1791 118.448 28.1791C118.575 28.1791 118.671 28.1473 118.766 28.1154C118.862 28.0836 118.957 27.9881 119.085 27.8925L119.339 28.1791C119.18 28.3383 119.053 28.4338 118.893 28.4975C118.766 28.5612 118.607 28.593 118.416 28.593C118.097 28.593 117.811 28.4975 117.62 28.2746C117.397 28.0517 117.301 27.797 117.301 27.4786C117.301 27.2557 117.333 27.0965 117.429 26.9055C117.524 26.7463 117.652 26.6189 117.843 26.5234C118.002 26.4279 118.225 26.3642 118.416 26.3642C118.575 26.3642 118.766 26.396 118.925 26.4915C119.116 26.5552 119.244 26.6507 119.371 26.7781ZM120.294 26.3642L120.645 26.5234L120.263 27.2239C120.454 27.2239 120.581 27.2876 120.708 27.4149C120.836 27.5423 120.899 27.7015 120.899 27.8925C120.899 28.0836 120.836 28.2428 120.708 28.3383C120.581 28.4657 120.422 28.5294 120.231 28.5294C120.04 28.5294 119.881 28.4657 119.753 28.3383C119.626 28.2109 119.562 28.0517 119.562 27.8925C119.562 27.8289 119.562 27.7652 119.594 27.7015C119.594 27.6378 119.658 27.5423 119.721 27.3831L120.294 26.3642ZM120.231 27.606C120.167 27.606 120.103 27.6378 120.04 27.7015C119.976 27.7652 119.976 27.8289 119.976 27.8925C119.976 27.9881 120.008 28.0517 120.072 28.0836C120.135 28.1473 120.199 28.1791 120.263 28.1791C120.326 28.1791 120.39 28.1473 120.454 28.0836C120.517 28.0199 120.549 27.9562 120.549 27.8607C120.549 27.7652 120.517 27.7015 120.454 27.6696C120.39 27.6378 120.326 27.606 120.231 27.606ZM121.536 26.4279H122.523V26.7781H121.823L121.727 27.1602C121.759 27.1602 121.759 27.1602 121.791 27.1602H121.855C122.046 27.1602 122.205 27.2239 122.332 27.3512C122.46 27.4786 122.523 27.6378 122.523 27.8289C122.523 28.0517 122.46 28.2109 122.3 28.3383C122.173 28.4657 121.982 28.5612 121.791 28.5612C121.6 28.5612 121.441 28.4975 121.313 28.402C121.186 28.3065 121.09 28.1791 121.059 27.9881H121.473C121.504 28.0517 121.536 28.1154 121.6 28.1473C121.664 28.1791 121.727 28.2109 121.759 28.2109C121.855 28.2109 121.918 28.1791 121.982 28.1154C122.046 28.0517 122.078 27.9881 122.078 27.8925C122.078 27.797 122.046 27.7333 121.982 27.6696C121.918 27.606 121.855 27.5741 121.759 27.5741C121.727 27.5741 121.664 27.5741 121.632 27.606C121.6 27.6378 121.536 27.6696 121.504 27.7015L121.186 27.6378L121.536 26.4279ZM123.51 26.3642L123.861 26.5234L123.479 27.2239C123.67 27.2239 123.797 27.2876 123.924 27.4149C124.052 27.5423 124.115 27.7015 124.115 27.8925C124.115 28.0836 124.052 28.2428 123.924 28.3383C123.797 28.4657 123.638 28.5294 123.447 28.5294C123.256 28.5294 123.096 28.4657 122.969 28.3383C122.842 28.2109 122.778 28.0517 122.778 27.8925C122.778 27.8289 122.778 27.7652 122.81 27.7015C122.81 27.6378 122.874 27.5423 122.937 27.3831L123.51 26.3642ZM123.479 27.606C123.415 27.606 123.351 27.6378 123.287 27.7015C123.224 27.7652 123.224 27.8289 123.224 27.8925C123.224 27.9881 123.256 28.0517 123.319 28.0836C123.383 28.1473 123.447 28.1791 123.51 28.1791C123.574 28.1791 123.638 28.1473 123.701 28.0836C123.765 28.0199 123.797 27.9562 123.797 27.8607C123.797 27.7652 123.765 27.7015 123.701 27.6696C123.606 27.6378 123.542 27.606 123.479 27.606ZM124.752 26.4279H125.357V28.4975H124.975V26.7781H124.529L124.752 26.4279ZM126.058 26.4279H127.427V26.6507L126.472 28.593L126.121 28.4338L126.917 26.8418H126.026L126.058 26.4279ZM128 27.0965H127.618C127.618 26.8736 127.713 26.6826 127.841 26.5552C127.968 26.4279 128.127 26.3642 128.35 26.3642C128.478 26.3642 128.605 26.396 128.7 26.4597C128.796 26.5234 128.86 26.5871 128.955 26.6826C129.019 26.7781 129.051 26.9055 129.051 27.001C129.051 27.1284 129.019 27.2557 128.923 27.4149C128.86 27.5423 128.732 27.7333 128.541 27.9244L128.286 28.1791H129.051V28.5294H127.618V28.3383L128.255 27.6696C128.414 27.5104 128.509 27.3831 128.573 27.2876C128.637 27.192 128.669 27.0965 128.669 27.0328C128.669 26.9373 128.637 26.9055 128.573 26.8418C128.509 26.7781 128.446 26.7463 128.35 26.7463C128.255 26.7463 128.191 26.7781 128.127 26.8418C128.032 26.9055 128 26.9692 128 27.0965ZM129.592 27.0965H129.21C129.21 26.8736 129.305 26.6826 129.433 26.5552C129.56 26.4279 129.719 26.3642 129.942 26.3642C130.07 26.3642 130.197 26.396 130.292 26.4597C130.388 26.5234 130.452 26.5871 130.547 26.6826C130.611 26.7781 130.643 26.9055 130.643 27.001C130.643 27.1284 130.611 27.2557 130.515 27.4149C130.452 27.5423 130.324 27.7333 130.133 27.9244L129.879 28.1791H130.643V28.5294H129.178V28.3383L129.815 27.6696C129.974 27.5104 130.07 27.3831 130.133 27.2876C130.197 27.192 130.229 27.0965 130.229 27.0328C130.229 26.9373 130.197 26.9055 130.133 26.8418C130.07 26.7781 130.006 26.7463 129.91 26.7463C129.815 26.7463 129.751 26.7781 129.687 26.8418C129.624 26.9055 129.624 26.9692 129.592 27.0965ZM131.502 26.3642C131.662 26.3642 131.789 26.396 131.885 26.4915C132.012 26.5552 132.076 26.6826 132.139 26.8418C132.203 27.001 132.235 27.192 132.235 27.4786C132.235 27.7652 132.203 27.9562 132.139 28.1154C132.076 28.2746 132.012 28.3701 131.885 28.4657C131.789 28.5294 131.63 28.593 131.502 28.593C131.343 28.593 131.216 28.5612 131.12 28.4657C130.993 28.402 130.929 28.2746 130.866 28.1154C130.802 27.9562 130.77 27.7652 130.77 27.4786C130.77 27.0965 130.834 26.8099 130.961 26.6507C131.088 26.4597 131.28 26.3642 131.502 26.3642ZM131.534 26.7463C131.471 26.7463 131.407 26.7463 131.343 26.8099C131.28 26.8418 131.248 26.9373 131.216 27.0328C131.184 27.1284 131.184 27.2876 131.184 27.4786C131.184 27.7333 131.216 27.9244 131.28 28.0199C131.343 28.1154 131.407 28.1791 131.534 28.1791C131.63 28.1791 131.693 28.1473 131.757 28.0517C131.821 27.9244 131.853 27.7333 131.853 27.4786C131.853 27.2239 131.821 27.0328 131.757 26.9055C131.693 26.7781 131.63 26.7463 131.534 26.7463ZM128.955 29.8348H128.573C128.573 29.6119 128.669 29.4209 128.796 29.2935C128.923 29.1662 129.083 29.1025 129.305 29.1025C129.433 29.1025 129.56 29.1343 129.656 29.198C129.751 29.2617 129.815 29.3254 129.91 29.4209C129.974 29.5164 130.006 29.6438 130.006 29.7393C130.006 29.8667 129.974 29.994 129.879 30.1532C129.815 30.2806 129.687 30.4716 129.496 30.6627L129.242 30.9174H130.006V31.2677H128.541V31.0766L129.178 30.408C129.337 30.2488 129.433 30.1214 129.496 30.0259C129.56 29.9303 129.592 29.8348 129.592 29.7711C129.592 29.6756 129.56 29.6438 129.496 29.5801C129.433 29.5164 129.369 29.4846 129.274 29.4846C129.178 29.4846 129.114 29.5164 129.051 29.5801C128.987 29.6438 128.955 29.7075 128.955 29.8348ZM112.876 5.15821H112.493C112.493 4.93532 112.589 4.74428 112.716 4.61691C112.844 4.48955 113.003 4.42587 113.226 4.42587C113.353 4.42587 113.481 4.45771 113.576 4.52139C113.672 4.58507 113.735 4.64875 113.831 4.74428C113.894 4.8398 113.926 4.96716 113.926 5.06269C113.926 5.19005 113.894 5.31741 113.799 5.47662C113.735 5.60398 113.608 5.79502 113.417 5.98607L113.194 6.20895H113.958V6.5592H112.493V6.36816L113.13 5.6995C113.289 5.5403 113.385 5.41293 113.449 5.31741C113.512 5.22189 113.544 5.12637 113.544 5.06269C113.544 4.96716 113.512 4.93532 113.449 4.87164C113.385 4.80796 113.321 4.77612 113.226 4.77612C113.13 4.77612 113.067 4.80796 113.003 4.87164C112.907 4.96716 112.876 5.06269 112.876 5.15821ZM114.786 4.42587C114.945 4.42587 115.073 4.45771 115.168 4.55323C115.295 4.61691 115.359 4.74428 115.423 4.90348C115.486 5.06269 115.518 5.25373 115.518 5.5403C115.518 5.82686 115.486 6.01791 115.423 6.17711C115.359 6.33632 115.295 6.43184 115.168 6.52736C115.073 6.59104 114.913 6.65473 114.786 6.65473C114.627 6.65473 114.499 6.62288 114.404 6.52736C114.277 6.46368 114.213 6.33632 114.149 6.17711C114.085 6.01791 114.054 5.82686 114.054 5.5403C114.054 5.15821 114.117 4.87164 114.245 4.71244C114.372 4.52139 114.531 4.42587 114.786 4.42587ZM114.786 4.80796C114.722 4.80796 114.659 4.80796 114.595 4.87164C114.531 4.90348 114.499 4.999 114.468 5.09453C114.436 5.19005 114.436 5.34925 114.436 5.5403C114.436 5.79502 114.468 5.98607 114.531 6.08159C114.595 6.17711 114.659 6.24079 114.786 6.24079C114.882 6.24079 114.945 6.20895 115.009 6.11343C115.073 5.98607 115.104 5.79502 115.104 5.5403C115.104 5.28557 115.073 5.09453 115.009 4.96716C114.977 4.87164 114.913 4.80796 114.786 4.80796ZM116.537 4.42587H116.919V5.76318H117.11V6.11343H116.919V6.52736H116.537V6.11343H115.614V5.76318L116.537 4.42587ZM116.569 5.76318V5.06269L116.091 5.76318H116.569ZM117.684 5.15821H117.301C117.301 4.93532 117.397 4.74428 117.524 4.61691C117.652 4.48955 117.811 4.42587 118.034 4.42587C118.161 4.42587 118.288 4.45771 118.384 4.52139C118.48 4.58507 118.543 4.64875 118.639 4.74428C118.702 4.8398 118.734 4.96716 118.734 5.06269C118.734 5.19005 118.702 5.31741 118.607 5.47662C118.543 5.60398 118.416 5.79502 118.225 5.98607L117.97 6.24079H118.734V6.59104H117.301V6.4L117.938 5.73134C118.097 5.57214 118.193 5.44477 118.257 5.34925C118.32 5.25373 118.352 5.15821 118.352 5.09453C118.352 4.999 118.32 4.96716 118.257 4.90348C118.193 4.8398 118.129 4.80796 118.034 4.80796C117.938 4.80796 117.875 4.8398 117.811 4.90348C117.747 4.96716 117.684 5.06269 117.684 5.15821ZM119.785 4.42587H120.167V5.76318H120.358V6.11343H120.167V6.52736H119.785V6.11343H118.862V5.76318L119.785 4.42587ZM119.785 5.76318V5.06269L119.307 5.76318H119.785ZM121.186 6.62288L120.836 6.46368L121.218 5.76318C121.027 5.76318 120.899 5.6995 120.772 5.57214C120.645 5.44477 120.581 5.28557 120.581 5.09453C120.581 4.90348 120.645 4.74428 120.772 4.64876C120.899 4.52139 121.059 4.45771 121.25 4.45771C121.441 4.45771 121.6 4.52139 121.727 4.64876C121.855 4.77612 121.918 4.93532 121.918 5.09453C121.918 5.15821 121.918 5.22189 121.886 5.28557C121.886 5.34925 121.823 5.44477 121.759 5.57214L121.186 6.62288ZM121.25 5.38109C121.313 5.38109 121.377 5.34925 121.441 5.28557C121.504 5.22189 121.504 5.15821 121.504 5.09453C121.504 4.999 121.473 4.93532 121.409 4.87164C121.345 4.80796 121.282 4.77612 121.218 4.77612C121.154 4.77612 121.09 4.80796 121.027 4.87164C120.963 4.93532 120.931 4.999 120.931 5.09453C120.931 5.19005 120.963 5.25373 121.027 5.28557C121.09 5.34925 121.186 5.38109 121.25 5.38109ZM122.491 4.48955H123.479V4.8398H122.778L122.683 5.22189C122.714 5.22189 122.714 5.22189 122.746 5.22189H122.81C123.001 5.22189 123.16 5.28557 123.287 5.41293C123.415 5.5403 123.479 5.6995 123.479 5.89055C123.479 6.11343 123.415 6.27264 123.256 6.4C123.128 6.52736 122.937 6.62288 122.746 6.62288C122.555 6.62288 122.396 6.5592 122.269 6.46368C122.141 6.36816 122.046 6.24079 122.014 6.04975H122.428C122.46 6.11343 122.491 6.17711 122.555 6.20895C122.619 6.24079 122.683 6.27264 122.714 6.27264C122.81 6.27264 122.874 6.24079 122.937 6.17711C123.001 6.11343 123.033 6.04975 123.033 5.95423C123.033 5.85871 123.001 5.79502 122.937 5.73134C122.874 5.66766 122.81 5.63582 122.714 5.63582C122.683 5.63582 122.619 5.63582 122.587 5.66766C122.555 5.6995 122.491 5.73134 122.46 5.76318L122.141 5.6995L122.491 4.48955ZM124.593 4.42587H124.975V5.76318H125.166V6.11343H124.975V6.52736H124.593V6.11343H123.67V5.76318L124.593 4.42587ZM124.593 5.76318V5.06269L124.115 5.76318H124.593ZM113.226 7.16418L113.576 7.32338L113.194 8.02388C113.385 8.02388 113.512 8.08756 113.64 8.21492C113.767 8.34229 113.831 8.50149 113.831 8.69254C113.831 8.88358 113.767 9.04279 113.64 9.13831C113.512 9.26567 113.353 9.32935 113.162 9.32935C112.971 9.32935 112.812 9.26567 112.684 9.13831C112.557 9.01094 112.493 8.85174 112.493 8.69254C112.493 8.62885 112.493 8.56517 112.525 8.50149C112.525 8.43781 112.589 8.34229 112.653 8.18308L113.226 7.16418ZM113.162 8.43781C113.098 8.43781 113.035 8.46965 112.971 8.53333C112.907 8.59701 112.907 8.66069 112.907 8.72438C112.907 8.8199 112.939 8.88358 113.003 8.91542C113.067 8.9791 113.13 9.01094 113.194 9.01094C113.258 9.01094 113.321 8.9791 113.385 8.91542C113.449 8.85174 113.481 8.78806 113.481 8.69254C113.481 8.59701 113.449 8.53333 113.385 8.50149C113.289 8.46965 113.258 8.43781 113.162 8.43781ZM115.232 8.18308C115.327 8.24677 115.391 8.31045 115.455 8.40597C115.518 8.50149 115.55 8.59701 115.55 8.72438C115.55 8.85174 115.518 8.94726 115.455 9.07463C115.391 9.17015 115.327 9.26567 115.2 9.29751C115.104 9.36119 114.977 9.39303 114.818 9.39303C114.659 9.39303 114.499 9.36119 114.404 9.32935C114.308 9.26567 114.213 9.20199 114.149 9.10647C114.085 9.01094 114.054 8.88358 114.054 8.75622C114.054 8.62885 114.085 8.53333 114.117 8.46965C114.149 8.37413 114.245 8.31045 114.34 8.24676C114.277 8.18308 114.213 8.1194 114.213 8.05572C114.181 7.99204 114.181 7.92836 114.181 7.83283C114.181 7.70547 114.213 7.60995 114.277 7.54627C114.34 7.45075 114.404 7.38706 114.499 7.32338C114.595 7.2597 114.722 7.2597 114.818 7.2597C114.945 7.2597 115.041 7.29154 115.136 7.32338C115.232 7.38706 115.295 7.45075 115.359 7.54627C115.423 7.64179 115.455 7.73731 115.455 7.83283C115.455 7.89652 115.455 7.9602 115.423 8.05572C115.359 8.02388 115.295 8.1194 115.232 8.18308ZM114.786 7.57811C114.722 7.57811 114.659 7.60995 114.627 7.64179C114.595 7.67363 114.563 7.73731 114.563 7.80099C114.563 7.86468 114.595 7.92836 114.627 7.9602C114.659 7.99204 114.722 8.02388 114.786 8.02388C114.85 8.02388 114.913 7.99204 114.945 7.9602C114.977 7.92836 115.009 7.86468 115.009 7.80099C115.009 7.73731 114.977 7.67363 114.945 7.64179C114.913 7.57811 114.85 7.57811 114.786 7.57811ZM114.786 8.37413C114.69 8.37413 114.595 8.40597 114.531 8.46965C114.468 8.53333 114.436 8.59701 114.436 8.69254C114.436 8.78806 114.468 8.85174 114.531 8.91542C114.595 8.9791 114.659 9.01094 114.786 9.01094C114.882 9.01094 114.977 8.9791 115.041 8.91542C115.104 8.85174 115.136 8.78806 115.136 8.69254C115.136 8.59701 115.104 8.53333 115.041 8.46965C114.977 8.40597 114.882 8.37413 114.786 8.37413ZM116.442 7.16418L116.792 7.32338L116.41 8.02388C116.601 8.02388 116.728 8.08756 116.856 8.21492C116.983 8.34229 117.047 8.50149 117.047 8.69254C117.047 8.88358 116.983 9.04279 116.856 9.13831C116.728 9.26567 116.569 9.32935 116.378 9.32935C116.187 9.32935 116.028 9.26567 115.9 9.13831C115.773 9.01094 115.709 8.85174 115.709 8.69254C115.709 8.62885 115.709 8.56517 115.741 8.50149C115.741 8.43781 115.805 8.34229 115.869 8.18308L116.442 7.16418ZM116.378 8.43781C116.314 8.43781 116.251 8.46965 116.187 8.53333C116.123 8.59701 116.123 8.66069 116.123 8.72438C116.123 8.8199 116.155 8.88358 116.219 8.91542C116.283 8.9791 116.346 9.01094 116.41 9.01094C116.474 9.01094 116.537 8.9791 116.601 8.91542C116.665 8.85174 116.696 8.78806 116.696 8.69254C116.696 8.59701 116.665 8.53333 116.601 8.50149C116.537 8.46965 116.442 8.43781 116.378 8.43781ZM125.58 7.22786H126.949V7.45074L125.994 9.39303L125.644 9.23383L126.44 7.64179H125.548V7.22786H125.58ZM127.968 7.16418H128.35V8.50149H128.541V8.85174H128.35V9.26567H127.968V8.85174H127.045V8.50149L127.968 7.16418ZM128 8.50149V7.80099L127.522 8.50149H128ZM129.465 7.16418L129.815 7.32338L129.433 8.02388C129.624 8.02388 129.751 8.08756 129.879 8.21492C130.006 8.34229 130.07 8.50149 130.07 8.69254C130.07 8.88358 130.006 9.04279 129.879 9.13831C129.751 9.26567 129.592 9.32935 129.401 9.32935C129.21 9.32935 129.051 9.26567 128.923 9.13831C128.796 9.01094 128.732 8.85174 128.732 8.69254C128.732 8.62885 128.732 8.56517 128.764 8.50149C128.764 8.43781 128.828 8.34229 128.891 8.18308L129.465 7.16418ZM129.401 8.43781C129.337 8.43781 129.274 8.46965 129.21 8.53333C129.146 8.59701 129.146 8.66069 129.146 8.72438C129.146 8.8199 129.178 8.88358 129.242 8.91542C129.305 8.9791 129.369 9.01094 129.433 9.01094C129.496 9.01094 129.56 8.9791 129.624 8.91542C129.687 8.85174 129.719 8.78806 129.719 8.69254C129.719 8.59701 129.687 8.53333 129.624 8.50149C129.56 8.46965 129.496 8.43781 129.401 8.43781ZM130.706 7.22786H131.693V7.57811H130.993L130.897 7.9602C130.929 7.9602 130.929 7.9602 130.961 7.9602H131.025C131.216 7.9602 131.375 8.02388 131.502 8.15124C131.63 8.27861 131.693 8.43781 131.693 8.62885C131.693 8.85174 131.63 9.01094 131.471 9.13831C131.343 9.26567 131.152 9.36119 130.961 9.36119C130.77 9.36119 130.611 9.29751 130.484 9.20199C130.356 9.10647 130.261 8.9791 130.229 8.78806H130.643C130.675 8.85174 130.706 8.91542 130.77 8.94726C130.834 8.9791 130.897 9.01094 130.929 9.01094C131.025 9.01094 131.088 8.9791 131.152 8.91542C131.216 8.85174 131.248 8.78806 131.248 8.69254C131.248 8.59701 131.216 8.53333 131.152 8.46965C131.088 8.40597 131.025 8.37413 130.929 8.37413C130.897 8.37413 130.834 8.37413 130.802 8.40597C130.77 8.43781 130.706 8.46965 130.675 8.50149L130.356 8.43781L130.706 7.22786ZM132.33 7.89652H131.948C131.948 7.67363 132.044 7.48259 132.171 7.35522C132.298 7.22786 132.458 7.16418 132.681 7.16418C132.808 7.16418 132.935 7.19602 133.031 7.2597C133.126 7.32338 133.19 7.38706 133.286 7.48259C133.349 7.57811 133.381 7.70547 133.381 7.80099C133.381 7.92836 133.349 8.05572 133.254 8.21492C133.19 8.34229 133.063 8.53333 132.872 8.72438L132.617 8.9791H133.381V9.32935H131.916V9.13831L132.553 8.46965C132.712 8.31045 132.808 8.18308 132.872 8.08756C132.935 7.99204 132.967 7.89652 132.967 7.83283C132.967 7.73731 132.935 7.70547 132.872 7.64179C132.808 7.57811 132.744 7.54627 132.649 7.54627C132.553 7.54627 132.489 7.57811 132.426 7.64179C132.362 7.70547 132.33 7.80099 132.33 7.89652ZM113.162 9.90249C113.321 9.90249 113.449 9.93433 113.544 10.0299C113.672 10.0935 113.735 10.2209 113.799 10.3801C113.863 10.5393 113.894 10.7303 113.894 11.0169C113.894 11.3035 113.863 11.4945 113.799 11.6537C113.735 11.8129 113.672 11.9085 113.544 12.004C113.449 12.0677 113.289 12.1313 113.162 12.1313C113.003 12.1313 112.876 12.0995 112.78 12.004C112.653 11.9403 112.589 11.8129 112.525 11.6537C112.462 11.4945 112.43 11.3035 112.43 11.0169C112.43 10.6348 112.493 10.3483 112.621 10.1891C112.748 9.99801 112.939 9.90249 113.162 9.90249ZM113.194 10.2846C113.13 10.2846 113.067 10.2846 113.003 10.3483C112.939 10.3801 112.907 10.4756 112.876 10.5711C112.876 10.6667 112.844 10.8259 112.844 11.0169C112.844 11.2716 112.876 11.4627 112.939 11.5582C113.003 11.6537 113.067 11.7174 113.194 11.7174C113.289 11.7174 113.353 11.6856 113.417 11.59C113.481 11.4627 113.512 11.2716 113.512 11.0169C113.512 10.7622 113.481 10.5711 113.417 10.4438C113.385 10.3483 113.289 10.2846 113.194 10.2846ZM114.818 9.90249L115.168 10.0617L114.786 10.7622C114.977 10.7622 115.104 10.8259 115.232 10.9532C115.359 11.0806 115.423 11.2398 115.423 11.4308C115.423 11.6219 115.359 11.7811 115.232 11.8766C115.104 12.004 114.945 12.0677 114.754 12.0677C114.563 12.0677 114.404 12.004 114.277 11.8766C114.149 11.7493 114.085 11.59 114.085 11.4308C114.085 11.3672 114.085 11.3035 114.117 11.2398C114.117 11.1761 114.181 11.0806 114.245 10.9214L114.818 9.90249ZM114.786 11.1761C114.722 11.1761 114.659 11.208 114.595 11.2716C114.531 11.3353 114.531 11.399 114.531 11.4627C114.531 11.5582 114.563 11.6219 114.627 11.6537C114.69 11.7174 114.754 11.7493 114.818 11.7493C114.882 11.7493 114.945 11.7174 115.009 11.6537C115.073 11.59 115.104 11.5264 115.104 11.4308C115.104 11.3353 115.073 11.2716 115.009 11.2398C114.913 11.208 114.85 11.1761 114.786 11.1761ZM116.378 12.0995L116.028 11.9403L116.41 11.2398C116.219 11.2398 116.091 11.1761 115.964 11.0488C115.837 10.9214 115.773 10.7622 115.773 10.5711C115.773 10.3801 115.837 10.2209 115.964 10.1254C116.091 9.99801 116.251 9.93433 116.442 9.93433C116.633 9.93433 116.792 9.99801 116.919 10.1254C117.047 10.2527 117.11 10.4119 117.11 10.5711C117.11 10.6348 117.11 10.6985 117.079 10.7622C117.079 10.8259 117.015 10.9214 116.951 11.0488L116.378 12.0995ZM116.442 10.8577C116.505 10.8577 116.569 10.8259 116.633 10.7622C116.696 10.6985 116.696 10.6348 116.696 10.5711C116.696 10.4756 116.665 10.4119 116.601 10.3483C116.537 10.2846 116.474 10.2527 116.41 10.2527C116.346 10.2527 116.283 10.2846 116.219 10.3483C116.155 10.4119 116.123 10.4756 116.123 10.5711C116.123 10.6667 116.155 10.7303 116.219 10.7622C116.283 10.8259 116.346 10.8577 116.442 10.8577ZM117.365 9.96617H118.734V10.1891L117.779 12.1313L117.429 11.9721L118.225 10.3801H117.333V9.96617H117.365ZM125.962 10.4756H125.58C125.58 10.3164 125.644 10.1891 125.739 10.1254C125.867 9.99801 126.026 9.93433 126.217 9.93433C126.376 9.93433 126.535 9.99801 126.663 10.0935C126.79 10.2209 126.822 10.3164 126.822 10.4756C126.822 10.5711 126.79 10.6667 126.758 10.7303C126.694 10.794 126.631 10.8577 126.535 10.9214C126.663 10.9532 126.758 11.0169 126.822 11.1124C126.885 11.208 126.949 11.3353 126.949 11.4627C126.949 11.6537 126.885 11.8129 126.726 11.9403C126.599 12.0677 126.408 12.1313 126.185 12.1313C125.994 12.1313 125.803 12.0677 125.676 11.9403C125.548 11.8129 125.485 11.6537 125.453 11.4308H125.835C125.835 11.5582 125.898 11.6219 125.962 11.6537C126.026 11.7174 126.089 11.7493 126.185 11.7493C126.281 11.7493 126.344 11.7174 126.408 11.6537C126.472 11.59 126.503 11.5264 126.503 11.4308C126.503 11.3353 126.472 11.2716 126.376 11.208C126.281 11.1443 126.185 11.1124 126.026 11.1124V10.7622C126.121 10.7622 126.185 10.7303 126.249 10.7303C126.281 10.6985 126.344 10.6667 126.376 10.6348C126.408 10.603 126.408 10.5393 126.408 10.5075C126.408 10.4438 126.408 10.4119 126.344 10.3801C126.312 10.3483 126.249 10.3164 126.185 10.3164C126.121 10.3164 126.058 10.3164 126.026 10.3801C125.994 10.3801 125.962 10.4119 125.962 10.4756ZM127.522 10.6348H127.14C127.14 10.4119 127.236 10.2209 127.363 10.0935C127.49 9.96617 127.65 9.90249 127.873 9.90249C128 9.90249 128.127 9.93433 128.223 9.99801C128.318 10.0617 128.382 10.1254 128.478 10.2209C128.541 10.3164 128.573 10.4438 128.573 10.5393C128.573 10.6667 128.541 10.794 128.446 10.9532C128.382 11.0806 128.255 11.2716 128.064 11.4627L127.809 11.7174H128.573V12.0677H127.045V11.8766L127.682 11.208C127.841 11.0488 127.936 10.9214 128 10.8259C128.064 10.7303 128.095 10.6348 128.095 10.5711C128.095 10.4756 128.064 10.4438 128 10.3801C127.936 10.3164 127.873 10.2846 127.777 10.2846C127.682 10.2846 127.618 10.3164 127.554 10.3801C127.554 10.4438 127.522 10.5393 127.522 10.6348ZM129.433 9.90249C129.592 9.90249 129.719 9.93433 129.815 10.0299C129.942 10.0935 130.006 10.2209 130.07 10.3801C130.133 10.5393 130.165 10.7303 130.165 11.0169C130.165 11.3035 130.133 11.4945 130.07 11.6537C130.006 11.8129 129.942 11.9085 129.815 12.004C129.719 12.0677 129.56 12.1313 129.433 12.1313C129.274 12.1313 129.146 12.0995 129.051 12.004C128.923 11.9403 128.86 11.8129 128.796 11.6537C128.732 11.4945 128.7 11.3035 128.7 11.0169C128.7 10.6348 128.764 10.3483 128.891 10.1891C128.987 9.99801 129.178 9.90249 129.433 9.90249ZM129.433 10.2846C129.369 10.2846 129.305 10.2846 129.242 10.3483C129.178 10.3801 129.146 10.4756 129.114 10.5711C129.083 10.6667 129.083 10.8259 129.083 11.0169C129.083 11.2716 129.114 11.4627 129.178 11.5582C129.242 11.6537 129.305 11.7174 129.433 11.7174C129.56 11.7174 129.592 11.6856 129.656 11.59C129.719 11.4627 129.751 11.2716 129.751 11.0169C129.751 10.7622 129.719 10.5711 129.656 10.4438C129.624 10.3483 129.528 10.2846 129.433 10.2846ZM131.057 9.90249L131.407 10.0617L131.025 10.7622C131.216 10.7622 131.343 10.8259 131.471 10.9532C131.598 11.0806 131.662 11.2398 131.662 11.4308C131.662 11.6219 131.598 11.7811 131.471 11.8766C131.343 12.004 131.184 12.0677 130.993 12.0677C130.802 12.0677 130.643 12.004 130.515 11.8766C130.388 11.7493 130.324 11.59 130.324 11.4308C130.324 11.3672 130.324 11.3035 130.356 11.2398C130.356 11.1761 130.42 11.0806 130.484 10.9214L131.057 9.90249ZM131.025 11.1761C130.961 11.1761 130.897 11.208 130.834 11.2716C130.77 11.3353 130.77 11.399 130.77 11.4627C130.77 11.5582 130.802 11.6219 130.866 11.6537C130.929 11.7174 130.993 11.7493 131.057 11.7493C131.12 11.7493 131.184 11.7174 131.248 11.6537C131.311 11.59 131.343 11.5264 131.343 11.4308C131.343 11.3353 131.311 11.2716 131.248 11.2398C131.152 11.208 131.088 11.1761 131.025 11.1761ZM112.907 13.2139H112.525C112.525 13.0547 112.589 12.9274 112.684 12.8637C112.812 12.7363 112.971 12.6726 113.162 12.6726C113.321 12.6726 113.481 12.7363 113.608 12.8318C113.735 12.9592 113.767 13.0547 113.767 13.2139C113.767 13.3095 113.735 13.405 113.703 13.4687C113.64 13.5323 113.576 13.596 113.481 13.6597C113.608 13.6915 113.703 13.7552 113.767 13.8507C113.831 13.9463 113.894 14.0736 113.894 14.201C113.894 14.392 113.831 14.5512 113.672 14.6786C113.544 14.806 113.353 14.8697 113.13 14.8697C112.939 14.8697 112.748 14.806 112.621 14.6786C112.493 14.5512 112.43 14.392 112.398 14.1692H112.78C112.78 14.2965 112.844 14.3602 112.907 14.392C112.971 14.4557 113.035 14.4876 113.13 14.4876C113.226 14.4876 113.289 14.4557 113.353 14.392C113.417 14.3284 113.449 14.2647 113.449 14.1692C113.449 14.0736 113.417 14.0099 113.321 13.9463C113.226 13.8826 113.13 13.8507 112.971 13.8507V13.5005C113.067 13.5005 113.13 13.4687 113.194 13.4687C113.226 13.4368 113.289 13.405 113.321 13.3731C113.353 13.3413 113.353 13.2776 113.353 13.2458C113.353 13.1821 113.353 13.1502 113.289 13.1184C113.258 13.0866 113.194 13.0547 113.13 13.0547C113.067 13.0547 113.003 13.0547 112.971 13.1184C112.971 13.1184 112.939 13.1821 112.907 13.2139ZM114.818 12.6726L115.168 12.8318L114.786 13.5323C114.977 13.5323 115.104 13.596 115.232 13.7234C115.359 13.8507 115.423 14.0099 115.423 14.201C115.423 14.392 115.359 14.5512 115.232 14.6468C115.104 14.7741 114.945 14.8378 114.754 14.8378C114.563 14.8378 114.404 14.7741 114.277 14.6468C114.149 14.5194 114.085 14.3602 114.085 14.201C114.085 14.1373 114.085 14.0736 114.117 14.0099C114.117 13.9463 114.181 13.8507 114.245 13.6915L114.818 12.6726ZM114.786 13.9144C114.722 13.9144 114.659 13.9463 114.595 14.0099C114.531 14.0736 114.531 14.1373 114.531 14.201C114.531 14.2965 114.563 14.3602 114.627 14.392C114.69 14.4557 114.754 14.4876 114.818 14.4876C114.882 14.4876 114.945 14.4557 115.009 14.392C115.073 14.3284 115.104 14.2647 115.104 14.1692C115.104 14.0736 115.073 14.0099 115.009 13.9781C114.913 13.9463 114.85 13.9144 114.786 13.9144ZM117.747 13.0547L117.461 13.3095C117.27 13.1184 117.047 13.0229 116.824 13.0229C116.633 13.0229 116.442 13.0866 116.314 13.2458C116.187 13.3731 116.091 13.5642 116.091 13.7552C116.091 13.8826 116.123 14.0099 116.187 14.1055C116.251 14.2328 116.314 14.2965 116.442 14.3602C116.569 14.4239 116.696 14.4557 116.824 14.4557C116.951 14.4557 117.047 14.4239 117.142 14.392C117.238 14.3602 117.333 14.2647 117.461 14.1692L117.715 14.4557C117.556 14.6149 117.429 14.7104 117.27 14.7741C117.142 14.8378 116.983 14.8697 116.792 14.8697C116.474 14.8697 116.187 14.7741 115.996 14.5512C115.773 14.3284 115.678 14.0736 115.678 13.7552C115.678 13.5323 115.709 13.3731 115.805 13.1821C115.9 13.0229 116.028 12.8955 116.219 12.8C116.378 12.7045 116.601 12.6408 116.792 12.6408C116.951 12.6408 117.142 12.6726 117.301 12.7682C117.492 12.8318 117.652 12.9274 117.747 13.0547ZM118.702 12.6726L119.053 12.8318L118.671 13.5323C118.862 13.5323 118.989 13.596 119.116 13.7234C119.244 13.8507 119.307 14.0099 119.307 14.201C119.307 14.392 119.244 14.5512 119.116 14.6468C118.989 14.7741 118.83 14.8378 118.639 14.8378C118.448 14.8378 118.288 14.7741 118.161 14.6468C118.034 14.5194 117.97 14.3602 117.97 14.201C117.97 14.1373 117.97 14.0736 118.002 14.0099C118.002 13.9463 118.066 13.8507 118.129 13.6915L118.702 12.6726ZM118.639 13.9144C118.575 13.9144 118.511 13.9463 118.448 14.0099C118.384 14.0736 118.384 14.1373 118.384 14.201C118.384 14.2965 118.416 14.3602 118.48 14.392C118.543 14.4557 118.607 14.4876 118.671 14.4876C118.734 14.4876 118.798 14.4557 118.862 14.392C118.925 14.3284 118.957 14.2647 118.957 14.1692C118.957 14.0736 118.925 14.0099 118.862 13.9781C118.766 13.9463 118.702 13.9144 118.639 13.9144ZM119.944 12.7045H120.931V13.0547H120.231L120.135 13.4368C120.167 13.4368 120.167 13.4368 120.199 13.4368H120.263C120.454 13.4368 120.613 13.5005 120.74 13.6279C120.868 13.7552 120.931 13.9144 120.931 14.1055C120.931 14.3284 120.868 14.4876 120.708 14.6149C120.581 14.7423 120.39 14.8378 120.199 14.8378C120.008 14.8378 119.849 14.7741 119.721 14.6786C119.594 14.5831 119.498 14.4557 119.467 14.2647H119.881C119.912 14.3284 119.944 14.392 120.008 14.4239C120.072 14.4557 120.135 14.4876 120.167 14.4876C120.263 14.4876 120.326 14.4557 120.39 14.392C120.454 14.3284 120.485 14.2647 120.485 14.1692C120.485 14.0736 120.454 14.0099 120.39 13.9463C120.326 13.8826 120.263 13.8507 120.167 13.8507C120.135 13.8507 120.072 13.8507 120.04 13.8826C120.008 13.9144 119.944 13.9463 119.912 13.9781L119.594 13.9144L119.944 12.7045ZM121.886 12.6726L122.237 12.8318L121.855 13.5323C122.046 13.5323 122.173 13.596 122.3 13.7234C122.428 13.8507 122.491 14.0099 122.491 14.201C122.491 14.392 122.428 14.5512 122.3 14.6468C122.173 14.7741 122.014 14.8378 121.823 14.8378C121.632 14.8378 121.473 14.7741 121.345 14.6468C121.218 14.5194 121.154 14.3602 121.154 14.201C121.154 14.1373 121.154 14.0736 121.186 14.0099C121.186 13.9463 121.25 13.8507 121.313 13.6915L121.886 12.6726ZM121.855 13.9144C121.791 13.9144 121.727 13.9463 121.664 14.0099C121.6 14.0736 121.6 14.1373 121.6 14.201C121.6 14.2965 121.632 14.3602 121.695 14.392C121.759 14.4557 121.823 14.4876 121.886 14.4876C121.95 14.4876 122.014 14.4557 122.078 14.392C122.141 14.3284 122.173 14.2647 122.173 14.1692C122.173 14.0736 122.141 14.0099 122.078 13.9781C121.982 13.9463 121.918 13.9144 121.855 13.9144ZM123.128 12.7045H123.733V14.7741H123.351V13.0547H122.905L123.128 12.7045ZM124.434 12.7045H125.803V12.9274L124.848 14.8697L124.497 14.7104L125.293 13.1184H124.402V12.7045H124.434ZM126.376 13.3731H125.994C125.994 13.1502 126.089 12.9592 126.217 12.8318C126.344 12.7045 126.503 12.6408 126.726 12.6408C126.854 12.6408 126.981 12.6726 127.077 12.7363C127.172 12.8 127.236 12.8637 127.331 12.9592C127.395 13.0547 127.427 13.1821 127.427 13.2776C127.427 13.405 127.395 13.5323 127.299 13.6915C127.236 13.8189 127.108 14.0099 126.917 14.201L126.663 14.4557H127.427V14.806H125.994V14.6149L126.631 13.9463C126.79 13.7871 126.886 13.6597 126.949 13.5642C127.013 13.4687 127.045 13.3731 127.045 13.3095C127.045 13.2139 127.013 13.1821 126.949 13.1184C126.886 13.0547 126.822 13.0229 126.726 13.0229C126.631 13.0229 126.567 13.0547 126.503 13.1184C126.408 13.1821 126.376 13.2776 126.376 13.3731ZM128 13.3731H127.618C127.618 13.1502 127.713 12.9592 127.841 12.8318C127.968 12.7045 128.127 12.6408 128.35 12.6408C128.478 12.6408 128.605 12.6726 128.7 12.7363C128.796 12.8 128.86 12.8637 128.955 12.9592C129.019 13.0547 129.051 13.1821 129.051 13.2776C129.051 13.405 129.019 13.5323 128.923 13.6915C128.86 13.8189 128.732 14.0099 128.541 14.201L128.286 14.4557H129.051V14.806H127.618V14.6149L128.255 13.9463C128.414 13.7871 128.509 13.6597 128.573 13.5642C128.637 13.4687 128.669 13.3731 128.669 13.3095C128.669 13.2139 128.637 13.1821 128.573 13.1184C128.509 13.0547 128.446 13.0229 128.35 13.0229C128.255 13.0229 128.191 13.0547 128.127 13.1184C128.032 13.1821 128 13.2776 128 13.3731ZM113.162 15.4109C113.321 15.4109 113.449 15.4428 113.544 15.5383C113.672 15.602 113.735 15.7294 113.799 15.8886C113.863 16.0478 113.894 16.2388 113.894 16.5254C113.894 16.8119 113.863 17.003 113.799 17.1622C113.735 17.3214 113.672 17.4169 113.544 17.5124C113.449 17.5761 113.289 17.6398 113.162 17.6398C113.003 17.6398 112.876 17.608 112.78 17.5124C112.653 17.4488 112.589 17.3214 112.525 17.1622C112.462 17.003 112.43 16.8119 112.43 16.5254C112.43 16.1433 112.493 15.8567 112.621 15.6975C112.748 15.4746 112.939 15.4109 113.162 15.4109ZM113.194 15.793C113.13 15.793 113.067 15.793 113.003 15.8567C112.939 15.8886 112.907 15.9841 112.876 16.0796C112.844 16.1751 112.844 16.3343 112.844 16.5254C112.844 16.7801 112.876 16.9711 112.939 17.0667C113.003 17.1622 113.067 17.2259 113.194 17.2259C113.289 17.2259 113.353 17.194 113.417 17.0985C113.481 16.9711 113.512 16.7801 113.512 16.5254C113.512 16.2706 113.481 16.0796 113.417 15.9522C113.385 15.8249 113.289 15.793 113.194 15.793ZM115.773 15.4428H117.142V15.6657L116.187 17.608L115.837 17.4488L116.633 15.8567H115.741V15.4428H115.773ZM118.034 15.4109L118.384 15.5701L118.002 16.2706C118.193 16.2706 118.32 16.3343 118.448 16.4617C118.575 16.5891 118.639 16.7483 118.639 16.9393C118.639 17.1303 118.575 17.2896 118.448 17.3851C118.32 17.4806 118.161 17.5761 117.97 17.5761C117.779 17.5761 117.62 17.5124 117.492 17.3851C117.365 17.2577 117.301 17.0985 117.301 16.9393C117.301 16.8756 117.301 16.8119 117.333 16.7483C117.333 16.6846 117.397 16.5891 117.461 16.4298L118.034 15.4109ZM118.002 16.6527C117.938 16.6527 117.875 16.6846 117.811 16.7483C117.747 16.8119 117.747 16.8756 117.747 16.9393C117.747 17.0348 117.779 17.0985 117.843 17.1303C117.906 17.194 117.97 17.2259 118.034 17.2259C118.097 17.2259 118.161 17.194 118.225 17.1303C118.288 17.0667 118.32 17.003 118.32 16.9075C118.32 16.8119 118.288 16.7483 118.225 16.7164C118.129 16.6846 118.066 16.6527 118.002 16.6527ZM120.04 16.398C120.135 16.4617 120.199 16.5254 120.263 16.6209C120.326 16.7164 120.358 16.8119 120.358 16.9393C120.358 17.0667 120.326 17.1622 120.263 17.2896C120.199 17.3851 120.135 17.4806 120.008 17.5124C119.912 17.5761 119.785 17.608 119.626 17.608C119.467 17.608 119.307 17.5761 119.212 17.5443C119.116 17.4806 119.021 17.4169 118.957 17.3214C118.893 17.2259 118.862 17.0985 118.862 16.9711C118.862 16.8438 118.893 16.7483 118.925 16.6846C118.957 16.5891 119.053 16.5254 119.148 16.4617C119.085 16.398 119.021 16.3343 119.021 16.2706C118.989 16.207 118.989 16.1433 118.989 16.0478C118.989 15.9204 119.021 15.8249 119.085 15.7612C119.148 15.6657 119.212 15.602 119.307 15.5383C119.403 15.4746 119.53 15.4746 119.626 15.4746C119.753 15.4746 119.849 15.5065 119.944 15.5383C120.04 15.602 120.103 15.6657 120.167 15.7612C120.231 15.8567 120.263 15.9522 120.263 16.0478C120.263 16.1114 120.263 16.1751 120.231 16.2706C120.167 16.2706 120.135 16.3343 120.04 16.398ZM119.594 15.793C119.53 15.793 119.467 15.8249 119.435 15.8567C119.403 15.8886 119.371 15.9522 119.371 16.0159C119.371 16.0796 119.403 16.1433 119.435 16.1751C119.467 16.207 119.53 16.2388 119.594 16.2388C119.658 16.2388 119.721 16.207 119.753 16.1751C119.785 16.1433 119.817 16.0796 119.817 16.0159C119.817 15.9522 119.785 15.8886 119.753 15.8567C119.721 15.793 119.689 15.793 119.594 15.793ZM119.626 16.6209C119.53 16.6209 119.435 16.6527 119.371 16.7164C119.307 16.7801 119.276 16.8438 119.276 16.9393C119.276 17.0348 119.307 17.0985 119.371 17.1622C119.435 17.2259 119.498 17.2577 119.626 17.2577C119.721 17.2577 119.817 17.2259 119.881 17.1622C119.944 17.0985 119.976 17.0348 119.976 16.9393C119.976 16.8438 119.944 16.7801 119.881 16.7164C119.785 16.6527 119.721 16.6209 119.626 16.6209ZM121.25 15.4109L121.6 15.5701L121.218 16.2706C121.409 16.2706 121.536 16.3343 121.664 16.4617C121.791 16.5891 121.855 16.7483 121.855 16.9393C121.855 17.1303 121.791 17.2896 121.664 17.3851C121.536 17.4806 121.377 17.5761 121.186 17.5761C120.995 17.5761 120.836 17.5124 120.708 17.3851C120.581 17.2577 120.517 17.0985 120.517 16.9393C120.517 16.8756 120.517 16.8119 120.549 16.7483C120.549 16.6846 120.613 16.5891 120.677 16.4298L121.25 15.4109ZM121.186 16.6527C121.122 16.6527 121.059 16.6846 120.995 16.7483C120.931 16.8119 120.931 16.8756 120.931 16.9393C120.931 17.0348 120.963 17.0985 121.027 17.1303C121.09 17.194 121.154 17.2259 121.218 17.2259C121.282 17.2259 121.345 17.194 121.409 17.1303C121.473 17.0667 121.504 17.003 121.504 16.9075C121.504 16.8119 121.473 16.7483 121.409 16.7164C121.345 16.6846 121.282 16.6527 121.186 16.6527ZM123.797 15.4428H125.166V15.6657L124.211 17.608L123.861 17.4488L124.657 15.8567H123.765L123.797 15.4428ZM126.217 15.4109H126.599V16.7483H126.79V17.0985H126.599V17.5124H126.217V17.0985H125.293V16.7483L126.217 15.4109ZM126.217 16.7483V16.0478L125.739 16.7483H126.217ZM127.682 15.4109L128.032 15.5701L127.65 16.2706C127.841 16.2706 127.968 16.3343 128.095 16.4617C128.223 16.5891 128.286 16.7483 128.286 16.9393C128.286 17.1303 128.223 17.2896 128.095 17.3851C127.968 17.5124 127.809 17.5761 127.618 17.5761C127.427 17.5761 127.268 17.5124 127.14 17.3851C127.013 17.2577 126.949 17.0985 126.949 16.9393C126.949 16.8756 126.949 16.8119 126.981 16.7483C126.981 16.6846 127.045 16.5891 127.108 16.4298L127.682 15.4109ZM127.618 16.6527C127.554 16.6527 127.49 16.6846 127.427 16.7483C127.363 16.8119 127.363 16.8756 127.363 16.9393C127.363 17.0348 127.395 17.0985 127.459 17.1303C127.522 17.194 127.586 17.2259 127.65 17.2259C127.713 17.2259 127.777 17.194 127.841 17.1303C127.904 17.0667 127.936 17.003 127.936 16.9075C127.936 16.8119 127.904 16.7483 127.841 16.7164C127.777 16.6846 127.713 16.6527 127.618 16.6527ZM130.579 16.1433H130.197C130.197 15.9204 130.292 15.7294 130.42 15.602C130.547 15.4746 130.706 15.4109 130.929 15.4109C131.057 15.4109 131.184 15.4428 131.28 15.5065C131.375 15.5701 131.439 15.6338 131.534 15.7294C131.598 15.8249 131.63 15.9522 131.63 16.0478C131.63 16.1751 131.598 16.3025 131.502 16.4617C131.439 16.5891 131.311 16.7801 131.12 16.9711L130.866 17.2259H131.63V17.5761H130.165V17.3851L130.802 16.7164C130.961 16.5572 131.057 16.4298 131.12 16.3343C131.184 16.2388 131.216 16.1433 131.216 16.0796C131.216 15.9841 131.184 15.9522 131.12 15.8886C131.057 15.8249 130.993 15.793 130.897 15.793C130.802 15.793 130.738 15.8249 130.675 15.8886C130.611 15.9204 130.579 16.0159 130.579 16.1433ZM113.162 18.1493C113.321 18.1493 113.449 18.1811 113.544 18.2766C113.672 18.3403 113.735 18.4677 113.799 18.6269C113.863 18.7861 113.894 18.9771 113.894 19.2637C113.894 19.5502 113.863 19.7413 113.799 19.9005C113.735 20.0597 113.672 20.1552 113.544 20.2507C113.449 20.3144 113.289 20.3781 113.162 20.3781C113.003 20.3781 112.876 20.3463 112.78 20.2507C112.653 20.1871 112.589 20.0597 112.525 19.9005C112.462 19.7413 112.43 19.5502 112.43 19.2637C112.43 18.8816 112.493 18.595 112.621 18.4358C112.748 18.2448 112.939 18.1493 113.162 18.1493ZM113.194 18.5313C113.13 18.5313 113.067 18.5313 113.003 18.595C112.939 18.6269 112.907 18.7224 112.876 18.8179C112.844 18.9134 112.844 19.0726 112.844 19.2637C112.844 19.5184 112.876 19.7095 112.939 19.805C113.003 19.9005 113.067 19.9642 113.194 19.9642C113.289 19.9642 113.353 19.9323 113.417 19.8368C113.481 19.7095 113.512 19.5184 113.512 19.2637C113.512 19.009 113.481 18.8179 113.417 18.6905C113.385 18.5632 113.289 18.5313 113.194 18.5313ZM114.945 18.1493H115.327V19.4866H115.518V19.8368H115.327V20.2507H114.945V19.8368H114.022V19.4866L114.945 18.1493ZM114.945 19.4866V18.7861L114.468 19.4866H114.945ZM116.091 18.8816H115.709C115.709 18.6587 115.805 18.4677 115.932 18.3403C116.06 18.2129 116.219 18.1493 116.442 18.1493C116.569 18.1493 116.696 18.1811 116.792 18.2448C116.887 18.3085 116.951 18.3721 117.047 18.4677C117.11 18.5632 117.142 18.6905 117.142 18.7861C117.142 18.9134 117.11 19.0408 117.015 19.2C116.951 19.3274 116.824 19.5184 116.633 19.7095L116.378 19.9642H117.142V20.3144H115.709V20.1234L116.346 19.4547C116.505 19.2955 116.601 19.1682 116.665 19.0726C116.728 18.9771 116.76 18.8816 116.76 18.8179C116.76 18.7224 116.728 18.6905 116.665 18.6269C116.601 18.5632 116.537 18.5313 116.442 18.5313C116.346 18.5313 116.283 18.5632 116.219 18.6269C116.123 18.6587 116.091 18.7542 116.091 18.8816ZM127.013 20.3144L126.663 20.1552L127.045 19.4547C126.854 19.4547 126.726 19.391 126.599 19.2637C126.472 19.1363 126.408 18.9771 126.408 18.7861C126.408 18.595 126.472 18.4358 126.599 18.3403C126.726 18.2129 126.886 18.1493 127.077 18.1493C127.268 18.1493 127.427 18.2129 127.554 18.3403C127.682 18.4677 127.745 18.6269 127.745 18.7861C127.745 18.8498 127.745 18.9134 127.713 18.9771C127.713 19.0408 127.65 19.1363 127.586 19.2637L127.013 20.3144ZM127.045 19.0726C127.108 19.0726 127.172 19.0408 127.236 18.9771C127.299 18.9134 127.299 18.8498 127.299 18.7861C127.299 18.6905 127.268 18.6269 127.204 18.5632C127.14 18.4995 127.077 18.4677 127.013 18.4677C126.949 18.4677 126.885 18.4995 126.822 18.5632C126.758 18.6269 126.726 18.6905 126.726 18.7861C126.726 18.8816 126.758 18.9453 126.822 18.9771C126.917 19.0408 126.981 19.0726 127.045 19.0726ZM128.318 18.2129H129.305V18.5632H128.605L128.509 18.9453C128.541 18.9453 128.541 18.9453 128.573 18.9453H128.637C128.828 18.9453 128.987 19.009 129.114 19.1363C129.242 19.2637 129.305 19.4229 129.305 19.6139C129.305 19.8368 129.242 19.996 129.083 20.1234C128.955 20.2507 128.764 20.3463 128.573 20.3463C128.382 20.3463 128.223 20.2826 128.095 20.1871C127.968 20.0915 127.873 19.9642 127.841 19.7731H128.255C128.286 19.8368 128.318 19.9005 128.382 19.9323C128.446 19.9642 128.509 19.996 128.541 19.996C128.637 19.996 128.7 19.9642 128.764 19.9005C128.828 19.8368 128.86 19.7731 128.86 19.6776C128.86 19.5821 128.828 19.5184 128.764 19.4547C128.7 19.391 128.637 19.3592 128.541 19.3592C128.509 19.3592 128.446 19.3592 128.414 19.391C128.382 19.4229 128.318 19.4547 128.286 19.4866L127.968 19.4229L128.318 18.2129ZM130.388 18.1493H130.77V19.4866H130.961V19.8368H130.77V20.2507H130.388V19.8368H129.465V19.4866L130.388 18.1493ZM130.42 19.4866V18.7861L129.942 19.4866H130.42ZM112.525 29.1662H113.894V29.3891L112.939 31.3313L112.589 31.1721L113.385 29.5801H112.493V29.1662H112.525ZM114.149 29.1662H115.518V29.3891L114.563 31.3313L114.213 31.1721L115.009 29.5801H114.117L114.149 29.1662ZM116.442 29.1025L116.792 29.2617L116.41 29.9622C116.601 29.9622 116.728 30.0259 116.856 30.1532C116.983 30.2806 117.047 30.4398 117.047 30.6308C117.047 30.8219 116.983 30.9811 116.856 31.0766C116.728 31.204 116.569 31.2677 116.378 31.2677C116.187 31.2677 116.028 31.204 115.9 31.0766C115.773 30.9493 115.709 30.79 115.709 30.6308C115.709 30.5672 115.709 30.5035 115.741 30.4398C115.741 30.3761 115.805 30.2806 115.869 30.1214L116.442 29.1025ZM116.378 30.3443C116.314 30.3443 116.251 30.3761 116.187 30.4398C116.123 30.5035 116.123 30.5672 116.123 30.6308C116.123 30.7264 116.155 30.79 116.219 30.8219C116.283 30.8856 116.346 30.9174 116.41 30.9174C116.474 30.9174 116.537 30.8856 116.601 30.8219C116.665 30.7582 116.696 30.6945 116.696 30.599C116.696 30.5035 116.665 30.4398 116.601 30.408C116.537 30.3761 116.442 30.3443 116.378 30.3443ZM118.448 30.0896C118.543 30.1532 118.607 30.2169 118.671 30.3124C118.734 30.408 118.766 30.5035 118.766 30.6308C118.766 30.7582 118.734 30.8537 118.671 30.9811C118.607 31.0766 118.543 31.1721 118.416 31.204C118.32 31.2677 118.193 31.2995 118.034 31.2995C117.875 31.2995 117.715 31.2677 117.62 31.2358C117.524 31.1721 117.429 31.1085 117.365 31.0129C117.301 30.9174 117.27 30.79 117.27 30.6627C117.27 30.5353 117.301 30.4398 117.333 30.3761C117.365 30.2806 117.461 30.2169 117.556 30.1532C117.492 30.0895 117.429 30.0259 117.429 29.9622C117.397 29.8985 117.397 29.8348 117.397 29.7393C117.397 29.6119 117.429 29.5164 117.492 29.4527C117.556 29.3572 117.62 29.2935 117.715 29.2298C117.811 29.1662 117.938 29.1662 118.034 29.1662C118.161 29.1662 118.257 29.198 118.352 29.2298C118.448 29.2935 118.511 29.3572 118.575 29.4527C118.639 29.5483 118.671 29.6438 118.671 29.7393C118.671 29.803 118.671 29.8667 118.639 29.9622C118.575 29.9622 118.511 30.0259 118.448 30.0896ZM118.002 29.4846C117.938 29.4846 117.875 29.5164 117.843 29.5483C117.811 29.5801 117.779 29.6438 117.779 29.7075C117.779 29.7711 117.811 29.8348 117.843 29.8667C117.875 29.8985 117.938 29.9303 118.002 29.9303C118.066 29.9303 118.129 29.8985 118.161 29.8667C118.193 29.8348 118.225 29.7711 118.225 29.7075C118.225 29.6438 118.193 29.5801 118.161 29.5483C118.129 29.5164 118.066 29.4846 118.002 29.4846ZM118.002 30.3124C117.906 30.3124 117.811 30.3443 117.747 30.408C117.684 30.4716 117.652 30.5353 117.652 30.6308C117.652 30.7264 117.684 30.79 117.747 30.8537C117.811 30.9174 117.875 30.9492 118.002 30.9492C118.097 30.9492 118.193 30.9174 118.257 30.8537C118.32 30.79 118.352 30.7264 118.352 30.6308C118.352 30.5353 118.32 30.4716 118.257 30.408C118.193 30.3443 118.097 30.3124 118.002 30.3124ZM119.658 29.1025L120.008 29.2617L119.626 29.9622C119.817 29.9622 119.944 30.0259 120.072 30.1532C120.199 30.2806 120.263 30.4398 120.263 30.6308C120.263 30.8219 120.199 30.9811 120.072 31.0766C119.944 31.204 119.785 31.2677 119.594 31.2677C119.403 31.2677 119.244 31.204 119.116 31.0766C118.989 30.9493 118.925 30.79 118.925 30.6308C118.925 30.5672 118.925 30.5035 118.957 30.4398C118.957 30.3761 119.021 30.2806 119.085 30.1214L119.658 29.1025ZM119.594 30.3443C119.53 30.3443 119.467 30.3761 119.403 30.4398C119.339 30.5035 119.339 30.5672 119.339 30.6308C119.339 30.7264 119.371 30.79 119.435 30.8219C119.498 30.8856 119.562 30.9174 119.626 30.9174C119.689 30.9174 119.753 30.8856 119.817 30.8219C119.881 30.7582 119.912 30.6945 119.912 30.599C119.912 30.5035 119.881 30.4398 119.817 30.408C119.753 30.3761 119.689 30.3443 119.594 30.3443ZM121.186 31.2995L120.836 31.1403L121.218 30.4398C121.027 30.4398 120.899 30.3761 120.772 30.2488C120.645 30.1214 120.581 29.9622 120.581 29.7711C120.581 29.5801 120.645 29.4209 120.772 29.3254C120.899 29.198 121.059 29.1343 121.25 29.1343C121.441 29.1343 121.6 29.198 121.727 29.3254C121.855 29.4527 121.918 29.6119 121.918 29.7711C121.918 29.8348 121.918 29.8985 121.886 29.9622C121.886 30.0259 121.823 30.1214 121.759 30.2488L121.186 31.2995ZM121.25 30.0259C121.313 30.0259 121.377 29.994 121.441 29.9303C121.504 29.8667 121.504 29.803 121.504 29.7393C121.504 29.6438 121.473 29.5801 121.409 29.5164C121.345 29.4527 121.282 29.4209 121.218 29.4209C121.154 29.4209 121.09 29.4527 121.027 29.5164C120.963 29.5801 120.931 29.6438 120.931 29.7393C120.931 29.8348 120.963 29.8985 121.027 29.9303C121.09 29.994 121.186 30.0259 121.25 30.0259ZM122.205 29.1662H123.574V29.3891L122.619 31.3313L122.269 31.1721L123.065 29.5801H122.173L122.205 29.1662ZM124.593 29.1025H124.975V30.4398H125.166V30.79H124.975V31.204H124.593V30.79H123.67V30.4398L124.593 29.1025ZM124.593 30.4398V29.7393L124.115 30.4398H124.593ZM126.089 29.1025L126.44 29.2617L126.058 29.9622C126.249 29.9622 126.376 30.0259 126.503 30.1532C126.631 30.2806 126.694 30.4398 126.694 30.6308C126.694 30.8219 126.631 30.9811 126.503 31.0766C126.376 31.204 126.217 31.2677 126.026 31.2677C125.835 31.2677 125.676 31.204 125.548 31.0766C125.421 30.9493 125.357 30.79 125.357 30.6308C125.357 30.5672 125.357 30.5035 125.389 30.4398C125.389 30.3761 125.453 30.2806 125.516 30.1214L126.089 29.1025ZM126.026 30.3443C125.962 30.3443 125.898 30.3761 125.835 30.4398C125.771 30.5035 125.771 30.5672 125.771 30.6308C125.771 30.7264 125.803 30.79 125.867 30.8219C125.93 30.8856 125.994 30.9174 126.058 30.9174C126.121 30.9174 126.185 30.8856 126.249 30.8219C126.312 30.7582 126.344 30.6945 126.344 30.599C126.344 30.5035 126.312 30.4398 126.249 30.408C126.185 30.3761 126.089 30.3443 126.026 30.3443ZM127.331 29.1662H128.318V29.5164H127.618L127.522 29.8985C127.554 29.8985 127.554 29.8985 127.586 29.8985H127.65C127.841 29.8985 128 29.9622 128.127 30.0896C128.255 30.2169 128.318 30.3761 128.318 30.5672C128.318 30.79 128.255 30.9493 128.095 31.0766C127.968 31.204 127.777 31.2995 127.586 31.2995C127.395 31.2995 127.236 31.2358 127.108 31.1403C126.981 31.0448 126.885 30.9174 126.854 30.7264H127.268C127.299 30.79 127.331 30.8537 127.395 30.8856C127.459 30.9174 127.522 30.9492 127.554 30.9492C127.65 30.9492 127.713 30.9174 127.777 30.8537C127.841 30.79 127.873 30.7264 127.873 30.6308C127.873 30.5353 127.841 30.4716 127.777 30.408C127.713 30.3443 127.65 30.3124 127.554 30.3124C127.522 30.3124 127.459 30.3124 127.427 30.3443C127.395 30.3761 127.331 30.408 127.299 30.4398L126.981 30.3761L127.331 29.1662Z" fill="#A09039"/>
</svg>
